<svg width="672" height="483" viewBox="0 0 672 483" fill="none" xmlns="http://www.w3.org/2000/svg">
<path d="M574.599 474.829C574.599 479.325 467.793 482.949 336.179 482.949C204.565 482.949 97.7434 479.325 97.7434 474.829C97.7434 470.333 204.549 466.724 336.179 466.724C467.809 466.724 574.599 470.349 574.599 474.829Z" fill="#FFC727"/>
<path opacity="0.6" d="M574.599 474.829C574.599 479.325 467.793 482.949 336.179 482.949C204.565 482.949 97.7434 479.325 97.7434 474.829C97.7434 470.333 204.549 466.724 336.179 466.724C467.809 466.724 574.599 470.349 574.599 474.829Z" fill="white"/>
<path d="M110.657 221.72C110.754 221.72 109.541 216.016 109.411 215.603C108.02 211.536 102.793 204.44 97.7112 204.44C96.8682 204.465 96.0402 204.657 95.2808 205.004C94.5214 205.35 93.8476 205.844 93.3029 206.452C92.7582 207.061 92.3549 207.77 92.1191 208.536C91.8832 209.301 91.8202 210.104 91.9339 210.894C92.3061 214.258 95.5103 217.133 98.407 218.784C101.805 220.787 110.657 221.72 110.657 221.72Z" fill="#FFC727"/>
<path d="M120.48 183.307C115.706 184.928 113.344 193.278 113.489 197.559C113.489 197.926 114.396 203.676 114.493 203.676H114.59C114.201 204.991 113.797 206.398 113.392 207.958C112.68 210.832 111.903 214.074 111.305 217.683C110.61 221.549 110.157 225.45 109.945 229.366C109.695 233.754 109.852 238.155 110.415 242.517C110.421 242.568 110.421 242.619 110.415 242.67C109.8 241.401 107.923 237.899 107.745 237.639C105.252 234.061 98.2291 228.464 93.3258 229.794C92.5221 230.028 91.7795 230.419 91.146 230.942C90.5125 231.464 90.0023 232.107 89.6483 232.828C89.2944 233.549 89.1046 234.332 89.0914 235.126C89.0781 235.921 89.2416 236.709 89.5714 237.44C90.866 240.605 94.7498 242.563 98.0025 243.45C101.676 244.428 109.864 243.266 110.512 243.174C111.213 247.595 112.219 251.967 113.522 256.264C114.282 258.772 115.14 261.28 115.982 263.772C115.415 262.687 114.881 261.723 114.8 261.601C112.308 258.023 105.285 252.426 100.381 253.756C99.5778 253.99 98.8352 254.381 98.2017 254.904C97.5682 255.427 97.0579 256.069 96.704 256.79C96.35 257.511 96.1603 258.294 96.147 259.088C96.1338 259.883 96.2973 260.671 96.627 261.402C97.9216 264.552 101.805 266.525 105.058 267.397C108.311 268.268 115.367 267.397 117.211 267.183C117.551 268.131 117.891 269.094 118.247 270.042C119.865 274.63 121.613 279.217 123.102 283.713C123.636 285.242 124.089 286.894 124.558 288.484C124.057 287.521 123.604 286.71 123.523 286.603C121.047 283.009 114.007 277.428 109.12 278.758C108.315 278.991 107.571 279.381 106.935 279.903C106.3 280.424 105.788 281.067 105.433 281.788C105.077 282.509 104.886 283.292 104.872 284.088C104.857 284.883 105.02 285.672 105.349 286.404C106.644 289.554 110.544 291.527 113.797 292.399C117.05 293.27 123.409 292.506 125.61 292.215C126.047 293.851 126.484 295.503 126.824 297.108C127.018 298.209 127.293 299.249 127.439 300.381L127.924 303.653C128.151 305.748 128.41 307.904 128.572 309.954C128.701 311.391 128.798 312.752 128.895 314.113C128.394 312.584 127.277 309.418 127.277 309.174C125.486 305.809 122.811 302.934 119.509 300.824C119.326 300.441 119.109 300.073 118.862 299.723C118.401 299.057 117.796 298.489 117.088 298.057C116.379 297.625 115.583 297.339 114.75 297.216C113.917 297.094 113.066 297.138 112.253 297.346C111.439 297.554 110.68 297.921 110.026 298.424C106.191 301.558 107.146 310.152 108.91 314.098C109.007 314.327 110.528 316.743 111.369 318.242L109.314 315.826C107.89 314.189 106.434 312.599 104.88 310.886C104.082 310.091 103.289 309.281 102.501 308.455C101.725 307.629 100.802 306.849 99.9445 306.024C97.9055 304.173 95.7532 302.384 93.4714 300.641C94.9926 299.463 100.284 295.243 101.805 292.368C103.327 289.493 104.411 285.471 102.825 282.428C102.476 281.704 101.971 281.058 101.34 280.531C100.71 280.003 99.9699 279.607 99.1672 279.368C98.3646 279.128 97.5176 279.051 96.6813 279.141C95.845 279.231 95.0381 279.486 94.3129 279.89C90.0083 282.428 89.5714 291.068 90.688 295.182C90.688 295.442 91.9179 298.347 92.5813 299.922C91.2382 298.867 89.9112 297.827 88.5195 296.864C84.5062 293.943 80.4281 291.099 76.2206 288.239L72.4501 285.594C72.9841 285.181 79.3925 280.288 81.1078 277.061C82.629 274.201 83.7132 270.164 82.1273 267.137C81.7805 266.409 81.2753 265.759 80.6446 265.229C80.0139 264.699 79.2719 264.3 78.4671 264.059C77.6623 263.818 76.8128 263.74 75.9739 263.83C75.1351 263.921 74.3259 264.177 73.599 264.583C69.3106 267.137 68.8737 275.761 69.9903 279.875C70.0712 280.181 71.738 284.34 72.2235 285.38C69.4563 283.438 66.7214 281.48 64.1322 279.447C60.5908 276.706 57.2394 273.754 54.0989 270.608C54.3416 270.424 61.0574 265.332 62.8052 262.044C64.3264 259.185 65.4106 255.148 63.8247 252.105C63.4743 251.384 62.968 250.741 62.3384 250.217C61.7088 249.693 60.9699 249.299 60.1694 249.061C59.3689 248.824 58.5245 248.747 57.6907 248.837C56.857 248.926 56.0523 249.18 55.3288 249.582C51.0242 252.135 50.6034 260.775 51.7038 264.873C51.7848 265.149 53.047 268.329 53.6943 269.813L53.4516 269.966C50.3774 266.717 47.6154 263.217 45.1984 259.506C43.8552 257.488 42.6739 255.469 41.5735 253.496C42.9328 252.671 49.0661 248.909 50.9918 246.034C52.9176 243.159 54.3902 239.443 53.1603 236.263C52.897 235.515 52.472 234.828 51.9123 234.245C51.3527 233.661 50.6706 233.194 49.9095 232.874C49.1483 232.553 48.3249 232.385 47.4915 232.382C46.6582 232.378 45.8331 232.538 45.0689 232.853C40.5054 234.932 39.0652 243.557 39.6963 247.716C39.6963 247.946 40.3436 250.255 40.8291 251.921C40.3436 251.034 39.8257 250.102 39.3888 249.23C37.7705 245.973 36.395 242.884 35.2622 240.147C34.6311 238.618 34.0809 237.088 33.644 235.804C34.5178 234.351 37.9971 228.403 38.3208 225.1C38.6444 221.797 38.1266 217.775 35.4888 215.481C34.8868 214.922 34.1671 214.489 33.3766 214.21C32.586 213.931 31.7422 213.812 30.8998 213.861C30.0575 213.91 29.2355 214.126 28.4871 214.495C27.7388 214.863 27.0808 215.377 26.5559 216.001C23.5298 219.839 26.4265 228.051 29.0481 231.537C29.2746 231.843 33.385 236.125 33.4336 236.125V236.033C33.8867 237.333 34.3722 238.709 34.9548 240.223C36.039 242.991 37.2851 246.111 38.8871 249.398C40.5682 252.987 42.4702 256.479 44.5835 259.858C46.9399 263.645 49.6477 267.227 52.6748 270.562L52.7881 270.669C51.5258 269.935 47.9333 267.993 47.6258 267.871C43.4669 266.173 34.356 265.225 31.0224 268.834C30.4866 269.449 30.0939 270.164 29.8699 270.932C29.6459 271.7 29.5957 272.504 29.7224 273.292C29.8491 274.08 30.15 274.833 30.6054 275.504C31.0608 276.174 31.6605 276.746 32.3655 277.183C35.2784 279.141 39.6801 278.713 42.9005 277.795C46.5416 276.709 52.6101 271.464 53.1765 271.051C56.3418 274.375 59.7368 277.496 63.3392 280.395C65.4268 282.092 67.5791 283.743 69.8123 285.38C68.6957 284.783 67.6924 284.248 67.5467 284.187C63.3878 282.49 54.2931 281.541 50.9594 285.15C50.4204 285.764 50.0246 286.477 49.798 287.245C49.5713 288.013 49.5189 288.817 49.6442 289.606C49.7695 290.394 50.0696 291.148 50.525 291.82C50.9803 292.491 51.5806 293.063 52.2864 293.5C55.2155 295.457 59.601 295.029 62.8376 294.111C66.0741 293.194 71.4306 288.759 72.8385 287.582L75.363 289.447C79.441 292.399 83.4543 295.319 87.4191 298.301C88.7946 299.356 90.1054 300.427 91.4324 301.512C90.4452 300.977 89.6037 300.534 89.4581 300.473C85.2991 298.791 76.2045 297.827 72.8708 301.451C72.3318 302.065 71.936 302.778 71.7093 303.546C71.4827 304.314 71.4303 305.119 71.5556 305.907C71.6809 306.695 71.981 307.449 72.4363 308.12C72.8917 308.792 73.492 309.364 74.1978 309.801C77.1269 311.758 81.5124 311.33 84.7489 310.397C87.9855 309.464 92.8403 305.473 94.4585 304.097C95.7693 305.228 97.0963 306.375 98.3262 307.537C99.1353 308.348 99.9445 309.067 100.754 309.938L103.068 312.431C104.492 314.052 105.948 315.719 107.291 317.339C108.23 318.471 109.104 319.557 109.994 320.642C108.635 319.587 105.932 317.584 105.673 317.416C101.838 315.137 93.0021 312.905 89.1183 315.994C88.4914 316.526 87.9902 317.177 87.647 317.904C87.3038 318.631 87.1265 319.418 87.1265 320.214C87.1265 321.01 87.3038 321.798 87.647 322.525C87.9902 323.252 88.4914 323.903 89.1183 324.435C91.6913 326.79 96.093 327.034 99.4428 326.545C103.116 326.01 109.784 321.958 110.609 321.392C112.065 323.196 113.457 324.97 114.752 326.652C119.234 332.509 122.73 337.555 125.125 341.103L125.368 341.47L128.475 340.048L127.989 339.344C125.481 335.812 121.84 330.796 117.163 324.97C115.706 323.12 114.088 321.193 112.421 319.205C114.153 317.419 115.774 315.54 117.276 313.578C120.836 314.893 128.264 314.939 129.219 314.939C129.381 317.217 129.51 319.419 129.591 321.499C129.915 328.732 129.882 334.757 129.818 338.962C129.818 339.13 129.818 339.283 129.818 339.451L133.232 337.922C133.232 333.732 133.054 328.074 132.617 321.376C132.456 319.083 132.245 316.621 132.019 314.098C132.957 313.884 140.676 312.003 143.589 309.801C146.243 307.813 149.027 304.571 148.93 301.191C148.936 300.395 148.765 299.606 148.427 298.876C148.09 298.147 147.594 297.492 146.971 296.956C146.348 296.419 145.613 296.012 144.813 295.762C144.013 295.512 143.166 295.423 142.327 295.503C137.278 296.115 133.07 303.776 132.245 307.996C132.245 308.241 131.97 311.055 131.873 312.721C131.776 311.697 131.679 310.703 131.565 309.663C131.339 307.568 131.048 305.488 130.756 303.24C130.562 302.17 130.368 301.069 130.19 299.968C130.012 298.867 129.704 297.735 129.462 296.619C128.847 294.004 128.102 291.389 127.277 288.774C129.219 288.591 136.113 287.826 139.058 286.221C142.003 284.615 145.256 281.832 145.709 278.468C145.842 277.682 145.798 276.879 145.581 276.11C145.364 275.341 144.978 274.624 144.448 274.005C143.919 273.387 143.257 272.88 142.507 272.519C141.757 272.157 140.935 271.949 140.094 271.908C135.012 271.785 129.607 278.758 128.119 282.811C128.021 283.055 127.293 286.068 126.937 287.735C126.419 286.205 125.934 284.6 125.319 283.025C123.701 278.437 121.872 273.957 120.092 269.415L118.474 265.24C119.17 265.24 127.374 264.445 130.675 262.641C133.604 261.112 136.873 258.252 137.327 254.888C137.462 254.102 137.42 253.298 137.204 252.528C136.988 251.758 136.602 251.04 136.072 250.421C135.542 249.801 134.88 249.295 134.128 248.934C133.377 248.574 132.553 248.367 131.711 248.328C126.63 248.205 121.225 255.194 119.736 259.231C119.623 259.537 118.587 263.818 118.377 264.996C117.211 261.937 116.079 258.879 115.14 255.821C113.788 251.687 112.708 247.479 111.903 243.22C112.227 243.22 120.804 242.456 124.186 240.621C127.115 239.015 130.384 236.217 130.837 232.853C130.97 232.066 130.926 231.261 130.708 230.491C130.49 229.721 130.102 229.004 129.571 228.385C129.04 227.766 128.376 227.26 127.624 226.899C126.872 226.539 126.048 226.332 125.206 226.292C120.14 226.17 114.735 233.158 113.247 237.195C113.15 237.455 112.357 240.774 112.017 242.349H111.725C111.057 238.041 110.797 233.686 110.949 229.335C110.949 226.95 111.191 224.656 111.434 222.439C113.052 222.439 120.416 222.439 123.652 221.124C126.889 219.809 130.319 217.393 131.161 214.105C131.385 213.335 131.435 212.528 131.307 211.739C131.179 210.949 130.876 210.194 130.418 209.523C129.959 208.852 129.356 208.279 128.648 207.844C127.939 207.408 127.141 207.118 126.306 206.994C121.273 206.352 115.091 212.729 113.15 216.582C113.036 216.796 112.211 219.044 111.628 220.696C111.742 219.686 111.855 218.662 112.001 217.637C112.518 214.044 113.214 210.787 113.862 207.896C114.25 206.26 114.622 204.838 114.994 203.416C116.613 202.651 122.956 199.517 125.141 196.963C127.326 194.409 129.235 190.754 128.377 187.467C128.199 186.675 127.844 185.929 127.335 185.278C126.826 184.627 126.176 184.087 125.428 183.693C124.68 183.299 123.852 183.06 122.998 182.994C122.145 182.928 121.286 183.034 120.48 183.307Z" fill="#FFC727"/>
<path d="M28.7566 257.228C32.7214 257.075 40.6509 253.221 40.6671 253.221C40.6833 253.221 36.3949 249.062 36.0874 248.817C32.5434 246.156 24.0313 242.96 19.8076 245.621C19.1193 246.08 18.5407 246.67 18.1096 247.354C17.6785 248.037 17.4044 248.799 17.3052 249.59C17.206 250.38 17.2839 251.181 17.5338 251.941C17.7837 252.701 18.2 253.403 18.7557 254.001C21.0375 256.616 25.423 257.35 28.7566 257.228Z" fill="#FFC727"/>
<g opacity="0.5">
<path d="M110.657 221.72C110.754 221.72 109.541 216.016 109.411 215.603C108.02 211.536 102.793 204.44 97.7112 204.44C96.8682 204.465 96.0402 204.657 95.2808 205.004C94.5214 205.35 93.8476 205.844 93.3029 206.452C92.7582 207.061 92.3549 207.77 92.1191 208.536C91.8832 209.301 91.8202 210.104 91.9339 210.894C92.3061 214.258 95.5103 217.133 98.407 218.784C101.805 220.787 110.657 221.72 110.657 221.72Z" fill="white"/>
<path d="M120.48 183.307C115.706 184.928 113.344 193.278 113.489 197.559C113.489 197.926 114.396 203.676 114.493 203.676H114.59C114.201 204.991 113.797 206.398 113.392 207.958C112.68 210.832 111.903 214.074 111.305 217.683C110.61 221.549 110.157 225.45 109.945 229.366C109.695 233.754 109.852 238.155 110.415 242.517C110.421 242.568 110.421 242.619 110.415 242.67C109.8 241.401 107.923 237.899 107.745 237.639C105.252 234.061 98.2291 228.464 93.3258 229.794C92.5221 230.028 91.7795 230.419 91.146 230.942C90.5125 231.464 90.0023 232.107 89.6483 232.828C89.2944 233.549 89.1046 234.332 89.0914 235.126C89.0781 235.921 89.2416 236.709 89.5714 237.44C90.866 240.605 94.7498 242.563 98.0025 243.45C101.676 244.428 109.864 243.266 110.512 243.174C111.213 247.595 112.219 251.967 113.522 256.264C114.282 258.772 115.14 261.28 115.982 263.772C115.415 262.687 114.881 261.723 114.8 261.601C112.308 258.023 105.285 252.426 100.381 253.756C99.5778 253.99 98.8352 254.381 98.2017 254.904C97.5682 255.427 97.0579 256.069 96.704 256.79C96.35 257.511 96.1603 258.294 96.147 259.088C96.1338 259.883 96.2973 260.671 96.627 261.402C97.9216 264.552 101.805 266.525 105.058 267.397C108.311 268.268 115.367 267.397 117.211 267.183C117.551 268.131 117.891 269.094 118.247 270.042C119.865 274.63 121.613 279.217 123.102 283.713C123.636 285.242 124.089 286.894 124.558 288.484C124.057 287.521 123.604 286.71 123.523 286.603C121.047 283.009 114.007 277.428 109.12 278.758C108.315 278.991 107.571 279.381 106.935 279.903C106.3 280.424 105.788 281.067 105.433 281.788C105.077 282.509 104.886 283.292 104.872 284.088C104.857 284.883 105.02 285.672 105.349 286.404C106.644 289.554 110.544 291.527 113.797 292.399C117.05 293.27 123.409 292.506 125.61 292.215C126.047 293.851 126.484 295.503 126.824 297.108C127.018 298.209 127.293 299.249 127.439 300.381L127.924 303.653C128.151 305.748 128.41 307.904 128.572 309.954C128.701 311.391 128.798 312.752 128.895 314.113C128.394 312.584 127.277 309.418 127.277 309.174C125.486 305.809 122.811 302.934 119.509 300.824C119.326 300.441 119.109 300.073 118.862 299.723C118.401 299.057 117.796 298.489 117.088 298.057C116.379 297.625 115.583 297.339 114.75 297.216C113.917 297.094 113.066 297.138 112.253 297.346C111.439 297.554 110.68 297.921 110.026 298.424C106.191 301.558 107.146 310.152 108.91 314.098C109.007 314.327 110.528 316.743 111.369 318.242L109.314 315.826C107.89 314.189 106.434 312.599 104.88 310.886C104.082 310.091 103.289 309.281 102.501 308.455C101.725 307.629 100.802 306.849 99.9445 306.024C97.9055 304.173 95.7532 302.384 93.4714 300.641C94.9926 299.463 100.284 295.243 101.805 292.368C103.327 289.493 104.411 285.471 102.825 282.428C102.476 281.704 101.971 281.058 101.34 280.531C100.71 280.003 99.9699 279.607 99.1672 279.368C98.3646 279.128 97.5176 279.051 96.6813 279.141C95.845 279.231 95.0381 279.486 94.3129 279.89C90.0083 282.428 89.5714 291.068 90.688 295.182C90.688 295.442 91.9179 298.347 92.5813 299.922C91.2382 298.867 89.9112 297.827 88.5195 296.864C84.5062 293.943 80.4281 291.099 76.2206 288.239L72.4501 285.594C72.9841 285.181 79.3925 280.288 81.1078 277.061C82.629 274.201 83.7132 270.164 82.1273 267.137C81.7805 266.409 81.2753 265.759 80.6446 265.229C80.0139 264.699 79.2719 264.3 78.4671 264.059C77.6623 263.818 76.8128 263.74 75.9739 263.83C75.1351 263.921 74.3259 264.177 73.599 264.583C69.3106 267.137 68.8737 275.761 69.9903 279.875C70.0712 280.181 71.738 284.34 72.2235 285.38C69.4563 283.438 66.7214 281.48 64.1322 279.447C60.5908 276.706 57.2394 273.754 54.0989 270.608C54.3416 270.424 61.0574 265.332 62.8052 262.044C64.3264 259.185 65.4106 255.148 63.8247 252.105C63.4743 251.384 62.968 250.741 62.3384 250.217C61.7088 249.693 60.9699 249.299 60.1694 249.061C59.3689 248.824 58.5245 248.747 57.6907 248.837C56.857 248.926 56.0523 249.18 55.3288 249.582C51.0242 252.135 50.6034 260.775 51.7038 264.873C51.7848 265.149 53.047 268.329 53.6943 269.813L53.4516 269.966C50.3774 266.717 47.6154 263.217 45.1984 259.506C43.8552 257.488 42.6739 255.469 41.5735 253.496C42.9328 252.671 49.0661 248.909 50.9918 246.034C52.9176 243.159 54.3902 239.443 53.1603 236.263C52.897 235.515 52.472 234.828 51.9123 234.245C51.3527 233.661 50.6706 233.194 49.9095 232.874C49.1483 232.553 48.3249 232.385 47.4915 232.382C46.6582 232.378 45.8331 232.538 45.0689 232.853C40.5054 234.932 39.0652 243.557 39.6963 247.716C39.6963 247.946 40.3436 250.255 40.8291 251.921C40.3436 251.034 39.8257 250.102 39.3888 249.23C37.7705 245.973 36.395 242.884 35.2622 240.147C34.6311 238.618 34.0809 237.088 33.644 235.804C34.5178 234.351 37.9971 228.403 38.3208 225.1C38.6444 221.797 38.1266 217.775 35.4888 215.481C34.8868 214.922 34.1671 214.489 33.3766 214.21C32.586 213.931 31.7422 213.812 30.8998 213.861C30.0575 213.91 29.2355 214.126 28.4871 214.495C27.7388 214.863 27.0808 215.377 26.5559 216.001C23.5298 219.839 26.4265 228.051 29.0481 231.537C29.2746 231.843 33.385 236.125 33.4336 236.125V236.033C33.8867 237.333 34.3722 238.709 34.9548 240.223C36.039 242.991 37.2851 246.111 38.8871 249.398C40.5682 252.987 42.4702 256.479 44.5835 259.858C46.9399 263.645 49.6477 267.227 52.6748 270.562L52.7881 270.669C51.5258 269.935 47.9333 267.993 47.6258 267.871C43.4669 266.173 34.356 265.225 31.0224 268.834C30.4866 269.449 30.0939 270.164 29.8699 270.932C29.6459 271.7 29.5957 272.504 29.7224 273.292C29.8491 274.08 30.15 274.833 30.6054 275.504C31.0608 276.174 31.6605 276.746 32.3655 277.183C35.2784 279.141 39.6801 278.713 42.9005 277.795C46.5416 276.709 52.6101 271.464 53.1765 271.051C56.3418 274.375 59.7368 277.496 63.3392 280.395C65.4268 282.092 67.5791 283.743 69.8123 285.38C68.6957 284.783 67.6924 284.248 67.5467 284.187C63.3878 282.49 54.2931 281.541 50.9594 285.15C50.4204 285.764 50.0246 286.477 49.798 287.245C49.5713 288.013 49.5189 288.817 49.6442 289.606C49.7695 290.394 50.0696 291.148 50.525 291.82C50.9803 292.491 51.5806 293.063 52.2864 293.5C55.2155 295.457 59.601 295.029 62.8376 294.111C66.0741 293.194 71.4306 288.759 72.8385 287.582L75.363 289.447C79.441 292.399 83.4543 295.319 87.4191 298.301C88.7946 299.356 90.1054 300.427 91.4324 301.512C90.4452 300.977 89.6037 300.534 89.4581 300.473C85.2991 298.791 76.2045 297.827 72.8708 301.451C72.3318 302.065 71.936 302.778 71.7093 303.546C71.4827 304.314 71.4303 305.119 71.5556 305.907C71.6809 306.695 71.981 307.449 72.4363 308.12C72.8917 308.792 73.492 309.364 74.1978 309.801C77.1269 311.758 81.5124 311.33 84.7489 310.397C87.9855 309.464 92.8403 305.473 94.4585 304.097C95.7693 305.228 97.0963 306.375 98.3262 307.537C99.1353 308.348 99.9445 309.067 100.754 309.938L103.068 312.431C104.492 314.052 105.948 315.719 107.291 317.339C108.23 318.471 109.104 319.557 109.994 320.642C108.635 319.587 105.932 317.584 105.673 317.416C101.838 315.137 93.0021 312.905 89.1183 315.994C88.4914 316.526 87.9902 317.177 87.647 317.904C87.3038 318.631 87.1265 319.418 87.1265 320.214C87.1265 321.01 87.3038 321.798 87.647 322.525C87.9902 323.252 88.4914 323.903 89.1183 324.435C91.6913 326.79 96.093 327.034 99.4428 326.545C103.116 326.01 109.784 321.958 110.609 321.392C112.065 323.196 113.457 324.97 114.752 326.652C119.234 332.509 122.73 337.555 125.125 341.103L125.368 341.47L128.475 340.048L127.989 339.344C125.481 335.812 121.84 330.796 117.163 324.97C115.706 323.12 114.088 321.193 112.421 319.205C114.153 317.419 115.774 315.54 117.276 313.578C120.836 314.893 128.264 314.939 129.219 314.939C129.381 317.217 129.51 319.419 129.591 321.499C129.915 328.732 129.882 334.757 129.818 338.962C129.818 339.13 129.818 339.283 129.818 339.451L133.232 337.922C133.232 333.732 133.054 328.074 132.617 321.376C132.456 319.083 132.245 316.621 132.019 314.098C132.957 313.884 140.676 312.003 143.589 309.801C146.243 307.813 149.027 304.571 148.93 301.191C148.936 300.395 148.765 299.606 148.427 298.876C148.09 298.147 147.594 297.492 146.971 296.956C146.348 296.419 145.613 296.012 144.813 295.762C144.013 295.512 143.166 295.423 142.327 295.503C137.278 296.115 133.07 303.776 132.245 307.996C132.245 308.241 131.97 311.055 131.873 312.721C131.776 311.697 131.679 310.703 131.565 309.663C131.339 307.568 131.048 305.488 130.756 303.24C130.562 302.17 130.368 301.069 130.19 299.968C130.012 298.867 129.704 297.735 129.462 296.619C128.847 294.004 128.102 291.389 127.277 288.774C129.219 288.591 136.113 287.826 139.058 286.221C142.003 284.615 145.256 281.832 145.709 278.468C145.842 277.682 145.798 276.879 145.581 276.11C145.364 275.341 144.978 274.624 144.448 274.005C143.919 273.387 143.257 272.88 142.507 272.519C141.757 272.157 140.935 271.949 140.094 271.908C135.012 271.785 129.607 278.758 128.119 282.811C128.021 283.055 127.293 286.068 126.937 287.735C126.419 286.205 125.934 284.6 125.319 283.025C123.701 278.437 121.872 273.957 120.092 269.415L118.474 265.24C119.17 265.24 127.374 264.445 130.675 262.641C133.604 261.112 136.873 258.252 137.327 254.888C137.462 254.102 137.42 253.298 137.204 252.528C136.988 251.758 136.602 251.04 136.072 250.421C135.542 249.801 134.88 249.295 134.128 248.934C133.377 248.574 132.553 248.367 131.711 248.328C126.63 248.205 121.225 255.194 119.736 259.231C119.623 259.537 118.587 263.818 118.377 264.996C117.211 261.937 116.079 258.879 115.14 255.821C113.788 251.687 112.708 247.479 111.903 243.22C112.227 243.22 120.804 242.456 124.186 240.621C127.115 239.015 130.384 236.217 130.837 232.853C130.97 232.066 130.926 231.261 130.708 230.491C130.49 229.721 130.102 229.004 129.571 228.385C129.04 227.766 128.376 227.26 127.624 226.899C126.872 226.539 126.048 226.332 125.206 226.292C120.14 226.17 114.735 233.158 113.247 237.195C113.15 237.455 112.357 240.774 112.017 242.349H111.725C111.057 238.041 110.797 233.686 110.949 229.335C110.949 226.95 111.191 224.656 111.434 222.439C113.052 222.439 120.416 222.439 123.652 221.124C126.889 219.809 130.319 217.393 131.161 214.105C131.385 213.335 131.435 212.528 131.307 211.739C131.179 210.949 130.876 210.194 130.418 209.523C129.959 208.852 129.356 208.279 128.648 207.844C127.939 207.408 127.141 207.118 126.306 206.994C121.273 206.352 115.091 212.729 113.15 216.582C113.036 216.796 112.211 219.044 111.628 220.696C111.742 219.686 111.855 218.662 112.001 217.637C112.518 214.044 113.214 210.787 113.862 207.896C114.25 206.26 114.622 204.838 114.994 203.416C116.613 202.651 122.956 199.517 125.141 196.963C127.326 194.409 129.235 190.754 128.377 187.467C128.199 186.675 127.844 185.929 127.335 185.278C126.826 184.627 126.176 184.087 125.428 183.693C124.68 183.299 123.852 183.06 122.998 182.994C122.145 182.928 121.286 183.034 120.48 183.307Z" fill="white"/>
<path d="M28.7566 257.228C32.7214 257.075 40.6509 253.221 40.6671 253.221C40.6833 253.221 36.3949 249.062 36.0874 248.817C32.5434 246.156 24.0313 242.96 19.8076 245.621C19.1193 246.08 18.5407 246.67 18.1096 247.354C17.6785 248.037 17.4044 248.799 17.3052 249.59C17.206 250.38 17.2839 251.181 17.5338 251.941C17.7837 252.701 18.2 253.403 18.7557 254.001C21.0375 256.616 25.423 257.35 28.7566 257.228Z" fill="white"/>
</g>
<path d="M75.0554 351.042C75.0554 351.042 99.119 296.237 112.583 298.622C126.047 301.008 89.4903 385.999 89.4903 385.999C89.4903 385.999 131.824 310.535 160.694 310.535C189.564 310.535 150.111 393.936 113.554 421.736C113.554 421.736 171.278 362.955 204.97 375.677C238.662 388.4 137.602 447.962 137.602 447.962C137.602 447.962 196.296 430.483 189.564 443.986C182.832 457.488 164.594 459.874 164.594 459.874L230.943 463.055H0L51.9626 458.283C51.9626 458.283 -1.92574 432.869 12.4769 422.531C26.8795 412.194 58.6623 434.444 58.6623 434.444C58.6623 434.444 3.81911 377.253 14.4026 355.813C24.9861 334.374 72.1425 394.731 72.1425 394.731C72.1425 394.731 33.6438 317.691 41.3953 304.173C49.1469 290.655 75.0554 351.042 75.0554 351.042Z" fill="#FFC727"/>
<path opacity="0.4" d="M75.0554 351.042C75.0554 351.042 99.119 296.237 112.583 298.622C126.047 301.008 89.4903 385.999 89.4903 385.999C89.4903 385.999 131.824 310.535 160.694 310.535C189.564 310.535 150.111 393.936 113.554 421.736C113.554 421.736 171.278 362.955 204.97 375.677C238.662 388.4 137.602 447.962 137.602 447.962C137.602 447.962 196.296 430.483 189.564 443.986C182.832 457.488 164.594 459.874 164.594 459.874L230.943 463.055H0L51.9626 458.283C51.9626 458.283 -1.92574 432.869 12.4769 422.531C26.8795 412.194 58.6623 434.444 58.6623 434.444C58.6623 434.444 3.81911 377.253 14.4026 355.813C24.9861 334.374 72.1425 394.731 72.1425 394.731C72.1425 394.731 33.6438 317.691 41.3953 304.173C49.1469 290.655 75.0554 351.042 75.0554 351.042Z" fill="white"/>
<path d="M67.3686 353.933C88.5356 413.035 88.5356 454.858 88.5356 454.858C88.5356 454.858 63.5171 455.776 37.5277 437.594" stroke="#263238" stroke-linecap="round" stroke-linejoin="round"/>
<path d="M77.952 385.755C82.3086 368.086 88.0975 350.76 95.2675 333.931" stroke="#263238" stroke-linecap="round" stroke-linejoin="round"/>
<path d="M140.498 351.211L86.6098 426.676C86.6098 426.676 50.0369 397.621 37.5277 381.213" stroke="#263238" stroke-linecap="round" stroke-linejoin="round"/>
<path d="M87.5647 444.857C87.5647 444.857 144.334 419.397 167.442 404.854" stroke="#263238" stroke-linecap="round" stroke-linejoin="round"/>
<path d="M560.456 221.72C560.359 221.72 561.588 216.016 561.702 215.603C563.093 211.536 568.337 204.44 573.402 204.44C574.245 204.465 575.073 204.657 575.832 205.004C576.592 205.35 577.265 205.844 577.81 206.452C578.355 207.061 578.758 207.77 578.994 208.536C579.23 209.301 579.293 210.104 579.179 210.894C578.807 214.258 575.603 217.133 572.706 218.784C569.308 220.787 560.456 221.72 560.456 221.72Z" fill="#FFC727"/>
<path d="M550.633 183.307C555.407 184.928 557.785 193.278 557.624 197.559C557.624 197.926 556.717 203.676 556.636 203.676H556.539C556.912 204.991 557.316 206.398 557.721 207.958C558.433 210.832 559.21 214.074 559.808 217.683C560.503 221.549 560.956 225.45 561.168 229.366C561.426 233.754 561.269 238.155 560.698 242.517C560.692 242.568 560.692 242.619 560.698 242.67C561.329 241.401 563.207 237.899 563.368 237.639C565.861 234.061 572.884 228.464 577.787 229.794C578.592 230.026 579.337 230.416 579.972 230.938C580.606 231.46 581.118 232.103 581.472 232.825C581.826 233.546 582.016 234.33 582.028 235.125C582.04 235.921 581.874 236.709 581.542 237.44C580.247 240.605 576.363 242.563 573.11 243.45C569.437 244.428 561.249 243.266 560.601 243.174C559.907 247.596 558.902 251.969 557.591 256.264C556.836 258.772 556.016 261.275 555.131 263.772C555.698 262.687 556.232 261.723 556.313 261.601C558.805 258.023 565.844 252.426 570.732 253.756C571.537 253.988 572.281 254.378 572.916 254.9C573.551 255.423 574.062 256.065 574.416 256.787C574.771 257.508 574.96 258.292 574.972 259.088C574.984 259.883 574.818 260.672 574.486 261.402C573.191 264.552 569.307 266.525 566.055 267.397C562.802 268.268 555.746 267.397 553.902 267.183L552.882 270.042C551.264 274.63 549.5 279.217 548.027 283.713C547.493 285.242 547.024 286.894 546.555 288.484C547.072 287.521 547.509 286.71 547.59 286.603C550.082 283.009 557.106 277.428 561.993 278.758C562.798 278.991 563.542 279.381 564.178 279.903C564.813 280.424 565.325 281.067 565.68 281.788C566.036 282.509 566.227 283.292 566.241 284.088C566.256 284.883 566.093 285.672 565.763 286.404C564.469 289.554 560.569 291.527 557.316 292.399C554.063 293.27 547.704 292.506 545.503 292.215C545.066 293.851 544.645 295.503 544.305 297.108C544.095 298.209 543.82 299.249 543.674 300.381L543.189 303.653C542.962 305.748 542.703 307.904 542.541 309.954C542.412 311.391 542.315 312.752 542.218 314.113C542.736 312.584 543.836 309.418 543.917 309.174C545.714 305.812 548.387 302.939 551.685 300.824C551.868 300.438 552.09 300.069 552.348 299.723C552.806 299.055 553.408 298.486 554.115 298.053C554.822 297.62 555.618 297.333 556.45 297.21C557.283 297.087 558.133 297.132 558.946 297.341C559.759 297.55 560.516 297.919 561.168 298.424C565.019 301.558 564.048 310.152 562.284 314.098C562.187 314.327 560.747 316.743 559.824 318.242C560.52 317.431 561.168 316.713 561.896 315.826C563.304 314.189 564.76 312.599 566.314 310.886L568.693 308.455C569.469 307.629 570.408 306.849 571.266 306.024C573.288 304.173 575.441 302.384 577.658 300.641C576.153 299.463 570.845 295.243 569.324 292.368C567.803 289.493 566.718 285.472 568.304 282.428C568.653 281.702 569.159 281.054 569.79 280.525C570.422 279.996 571.164 279.599 571.969 279.36C572.773 279.12 573.622 279.044 574.46 279.135C575.298 279.226 576.107 279.484 576.832 279.89C581.121 282.428 581.558 291.068 580.441 295.182C580.441 295.442 579.211 298.347 578.548 299.922C579.891 298.867 581.218 297.827 582.61 296.864C586.623 293.943 590.782 291.099 594.909 288.239L598.679 285.594C598.145 285.181 591.737 280.288 590.021 277.061C588.516 274.201 587.416 270.164 589.002 267.137C589.349 266.409 589.854 265.759 590.485 265.229C591.115 264.699 591.857 264.3 592.662 264.059C593.467 263.818 594.316 263.74 595.155 263.83C595.994 263.921 596.803 264.177 597.53 264.583C601.835 267.137 602.256 275.761 601.139 279.875C601.058 280.181 599.391 284.34 598.922 285.38C601.673 283.438 604.408 281.48 607.013 279.447C610.555 276.707 613.906 273.754 617.046 270.608C616.804 270.424 610.088 265.332 608.34 262.045C606.819 259.185 605.735 255.148 607.321 252.105C607.668 251.38 608.172 250.732 608.802 250.203C609.431 249.674 610.172 249.276 610.974 249.035C611.777 248.794 612.625 248.716 613.462 248.805C614.299 248.894 615.107 249.148 615.833 249.551C620.137 252.105 620.574 260.745 619.458 264.843C619.377 265.118 618.115 268.299 617.483 269.782C617.558 269.842 617.639 269.893 617.726 269.935C620.796 266.687 623.552 263.187 625.963 259.476C627.323 257.457 628.488 255.438 629.588 253.466C628.229 252.64 622.095 248.878 620.17 246.003C618.244 243.129 616.788 239.413 618.001 236.232C618.263 235.475 618.691 234.779 619.256 234.188C619.821 233.598 620.512 233.127 621.283 232.805C622.054 232.483 622.887 232.319 623.73 232.322C624.573 232.324 625.405 232.495 626.174 232.822C630.753 234.902 632.177 243.526 631.546 247.686C631.546 247.915 630.899 250.224 630.43 251.891C630.899 251.004 631.417 250.071 631.854 249.199C633.472 245.942 634.847 242.853 635.98 240.116C636.628 238.587 637.162 237.058 637.599 235.773C636.708 234.321 633.245 228.372 632.906 225.069C632.566 221.766 633.116 217.744 635.754 215.451C636.354 214.892 637.073 214.459 637.862 214.18C638.651 213.901 639.494 213.783 640.335 213.832C641.176 213.881 641.996 214.096 642.743 214.465C643.49 214.833 644.147 215.346 644.67 215.97C647.713 219.809 644.816 228.02 642.194 231.507C641.968 231.813 637.841 236.094 637.793 236.094V236.003C637.34 237.302 636.854 238.679 636.272 240.193C635.203 242.96 633.957 246.08 632.355 249.368C630.662 252.953 628.755 256.446 626.643 259.827C624.286 263.615 621.579 267.197 618.551 270.531L618.438 270.638C619.7 269.904 623.293 267.962 623.6 267.84C627.776 266.143 636.87 265.195 640.204 268.803C640.74 269.418 641.134 270.132 641.359 270.899C641.585 271.667 641.636 272.47 641.511 273.258C641.386 274.045 641.087 274.799 640.633 275.47C640.179 276.141 639.581 276.715 638.877 277.153C635.948 279.11 631.562 278.682 628.326 277.764C624.685 276.679 618.616 271.434 618.066 271.021C614.901 274.344 611.506 277.465 607.903 280.364C605.816 282.061 603.647 283.713 601.43 285.349C602.547 284.753 603.55 284.218 603.696 284.156C607.855 282.459 616.949 281.511 620.283 285.12C620.822 285.733 621.218 286.447 621.445 287.215C621.671 287.982 621.724 288.787 621.598 289.575C621.473 290.364 621.173 291.118 620.718 291.789C620.262 292.46 619.662 293.033 618.956 293.469C616.043 295.426 611.641 294.998 608.421 294.081C605.201 293.163 599.812 288.729 598.42 287.551C597.562 288.178 596.802 288.805 595.88 289.417C591.818 292.368 587.788 295.289 583.823 298.271C582.448 299.326 581.137 300.396 579.81 301.482L581.784 300.442C585.943 298.76 595.038 297.797 598.372 301.421C598.911 302.034 599.306 302.748 599.533 303.516C599.76 304.284 599.812 305.088 599.687 305.876C599.562 306.665 599.261 307.419 598.806 308.09C598.351 308.761 597.751 309.334 597.045 309.77C594.116 311.727 589.73 311.299 586.51 310.366C583.289 309.434 578.418 305.443 576.8 304.066C575.489 305.198 574.162 306.345 572.949 307.507C572.123 308.317 571.33 309.036 570.521 309.908L568.191 312.4C566.783 314.021 565.31 315.688 563.967 317.309C563.029 318.441 562.155 319.526 561.281 320.612C562.624 319.557 565.343 317.554 565.586 317.385C569.421 315.107 578.273 312.874 582.14 315.963C582.767 316.495 583.268 317.146 583.612 317.873C583.955 318.6 584.132 319.388 584.132 320.184C584.132 320.98 583.955 321.767 583.612 322.494C583.268 323.221 582.767 323.872 582.14 324.404C579.551 326.759 575.149 327.004 571.816 326.515C568.126 325.979 561.459 321.927 560.634 321.361C559.177 323.166 557.785 324.939 556.491 326.622C552.008 332.478 548.513 337.525 546.118 341.072C546.118 341.21 545.956 341.317 545.875 341.439L542.768 340.017L543.253 339.314C545.762 335.781 549.419 330.766 554.08 324.939C555.552 323.089 557.154 321.162 558.821 319.175C557.086 317.391 555.465 315.512 553.966 313.547C550.39 314.862 542.978 314.908 542.007 314.908C541.862 317.187 541.732 319.389 541.635 321.468C541.311 328.701 541.344 334.726 541.425 338.931V339.421L538.01 337.892C538.01 333.702 538.188 328.044 538.641 321.346C538.787 319.052 538.997 316.59 539.24 314.067C538.285 313.853 530.566 311.972 527.653 309.77C525.015 307.782 522.232 304.54 522.329 301.161C522.32 300.364 522.489 299.574 522.826 298.843C523.163 298.112 523.659 297.456 524.282 296.919C524.906 296.382 525.642 295.976 526.443 295.726C527.245 295.477 528.093 295.39 528.932 295.472C533.965 296.084 538.188 303.745 539.013 307.966C539.013 308.21 539.272 311.024 539.37 312.691C539.483 311.666 539.564 310.672 539.693 309.632C539.904 307.537 540.195 305.458 540.502 303.21C540.68 302.14 540.875 301.038 541.053 299.937C541.231 298.836 541.538 297.705 541.781 296.589C542.396 293.974 543.14 291.359 543.965 288.744C542.023 288.56 535.146 287.796 532.184 286.19C529.223 284.585 525.986 281.801 525.549 278.437C525.414 277.651 525.456 276.847 525.672 276.077C525.888 275.307 526.274 274.589 526.804 273.97C527.334 273.351 527.996 272.844 528.748 272.484C529.499 272.123 530.323 271.916 531.165 271.877C536.23 271.755 541.635 278.728 543.124 282.78C543.221 283.025 543.949 286.037 544.305 287.704C544.823 286.175 545.309 284.569 545.924 282.994C547.542 278.407 549.37 273.926 551.151 269.385C551.701 267.993 552.219 266.601 552.769 265.21C552.073 265.21 543.868 264.415 540.567 262.61C537.638 261.081 534.369 258.222 533.916 254.857C533.783 254.072 533.827 253.268 534.044 252.499C534.261 251.731 534.647 251.014 535.177 250.395C535.706 249.776 536.368 249.27 537.118 248.908C537.868 248.547 538.69 248.339 539.531 248.297C544.613 248.175 550.018 255.163 551.507 259.2C551.62 259.506 552.656 263.788 552.866 264.965C554.031 261.907 555.18 258.849 556.102 255.79C557.469 251.661 558.55 247.452 559.339 243.19C559.015 243.19 550.455 242.425 547.072 240.59C544.127 238.985 540.858 236.186 540.421 232.822C540.286 232.036 540.328 231.232 540.544 230.462C540.76 229.692 541.146 228.974 541.676 228.355C542.206 227.735 542.868 227.229 543.62 226.868C544.371 226.508 545.195 226.301 546.037 226.262C551.102 226.139 556.507 233.128 557.996 237.165C558.093 237.425 558.902 240.743 559.242 242.318H559.517C560.185 238.011 560.445 233.656 560.294 229.305C560.294 226.919 560.051 224.626 559.808 222.408C558.19 222.408 550.843 222.408 547.606 221.093C544.37 219.778 540.923 217.362 540.082 214.074C539.857 213.304 539.807 212.498 539.935 211.708C540.063 210.919 540.367 210.164 540.825 209.492C541.283 208.821 541.886 208.249 542.595 207.813C543.303 207.377 544.101 207.088 544.936 206.964C549.969 206.321 556.151 212.698 558.109 216.552C558.206 216.766 559.048 219.014 559.614 220.665C559.501 219.656 559.388 218.631 559.242 217.607C558.74 214.013 558.028 210.756 557.381 207.866C556.992 206.23 556.62 204.807 556.248 203.385C554.63 202.621 548.286 199.486 546.118 196.932C543.949 194.379 542.007 190.724 542.881 187.436C543.066 186.664 543.421 185.936 543.922 185.301C544.422 184.666 545.058 184.137 545.788 183.748C546.519 183.359 547.327 183.119 548.161 183.043C548.995 182.967 549.837 183.057 550.633 183.307Z" fill="#FFC727"/>
<path d="M642.356 257.228C638.391 257.075 630.462 253.221 630.462 253.221C630.462 253.221 634.718 249.062 635.025 248.817C638.569 246.156 647.081 242.96 651.305 245.621C651.995 246.078 652.576 246.668 653.009 247.352C653.441 248.035 653.716 248.798 653.815 249.589C653.915 250.38 653.836 251.182 653.585 251.942C653.333 252.702 652.915 253.404 652.357 254.001C650.075 256.616 645.738 257.35 642.356 257.228Z" fill="#FFC727"/>
<g opacity="0.5">
<path d="M560.456 221.72C560.359 221.72 561.588 216.016 561.702 215.603C563.093 211.536 568.337 204.44 573.402 204.44C574.245 204.465 575.073 204.657 575.832 205.004C576.592 205.35 577.265 205.844 577.81 206.452C578.355 207.061 578.758 207.77 578.994 208.536C579.23 209.301 579.293 210.104 579.179 210.894C578.807 214.258 575.603 217.133 572.706 218.784C569.308 220.787 560.456 221.72 560.456 221.72Z" fill="white"/>
<path d="M550.633 183.307C555.407 184.928 557.785 193.278 557.624 197.559C557.624 197.926 556.717 203.676 556.636 203.676H556.539C556.912 204.991 557.316 206.398 557.721 207.958C558.433 210.832 559.21 214.074 559.808 217.683C560.503 221.549 560.956 225.45 561.168 229.366C561.426 233.754 561.269 238.155 560.698 242.517C560.692 242.568 560.692 242.619 560.698 242.67C561.329 241.401 563.207 237.899 563.368 237.639C565.861 234.061 572.884 228.464 577.787 229.794C578.592 230.026 579.337 230.416 579.972 230.938C580.606 231.46 581.118 232.103 581.472 232.825C581.826 233.546 582.016 234.33 582.028 235.125C582.04 235.921 581.874 236.709 581.542 237.44C580.247 240.605 576.363 242.563 573.11 243.45C569.437 244.428 561.249 243.266 560.601 243.174C559.907 247.596 558.902 251.969 557.591 256.264C556.836 258.772 556.016 261.275 555.131 263.772C555.698 262.687 556.232 261.723 556.313 261.601C558.805 258.023 565.844 252.426 570.732 253.756C571.537 253.988 572.281 254.378 572.916 254.9C573.551 255.423 574.062 256.065 574.416 256.787C574.771 257.508 574.96 258.292 574.972 259.088C574.984 259.883 574.818 260.672 574.486 261.402C573.191 264.552 569.307 266.525 566.055 267.397C562.802 268.268 555.746 267.397 553.902 267.183L552.882 270.042C551.264 274.63 549.5 279.217 548.027 283.713C547.493 285.242 547.024 286.894 546.555 288.484C547.072 287.521 547.509 286.71 547.59 286.603C550.082 283.009 557.106 277.428 561.993 278.758C562.798 278.991 563.542 279.381 564.178 279.903C564.813 280.424 565.325 281.067 565.68 281.788C566.036 282.509 566.227 283.292 566.241 284.088C566.256 284.883 566.093 285.672 565.763 286.404C564.469 289.554 560.569 291.527 557.316 292.399C554.063 293.27 547.704 292.506 545.503 292.215C545.066 293.851 544.645 295.503 544.305 297.108C544.095 298.209 543.82 299.249 543.674 300.381L543.189 303.653C542.962 305.748 542.703 307.904 542.541 309.954C542.412 311.391 542.315 312.752 542.218 314.113C542.736 312.584 543.836 309.418 543.917 309.174C545.714 305.812 548.387 302.939 551.685 300.824C551.868 300.438 552.09 300.069 552.348 299.723C552.806 299.055 553.408 298.486 554.115 298.053C554.822 297.62 555.618 297.333 556.45 297.21C557.283 297.087 558.133 297.132 558.946 297.341C559.759 297.55 560.516 297.919 561.168 298.424C565.019 301.558 564.048 310.152 562.284 314.098C562.187 314.327 560.747 316.743 559.824 318.242C560.52 317.431 561.168 316.713 561.896 315.826C563.304 314.189 564.76 312.599 566.314 310.886L568.693 308.455C569.469 307.629 570.408 306.849 571.266 306.024C573.288 304.173 575.441 302.384 577.658 300.641C576.153 299.463 570.845 295.243 569.324 292.368C567.803 289.493 566.718 285.472 568.304 282.428C568.653 281.702 569.159 281.054 569.79 280.525C570.422 279.996 571.164 279.599 571.969 279.36C572.773 279.12 573.622 279.044 574.46 279.135C575.298 279.226 576.107 279.484 576.832 279.89C581.121 282.428 581.558 291.068 580.441 295.182C580.441 295.442 579.211 298.347 578.548 299.922C579.891 298.867 581.218 297.827 582.61 296.864C586.623 293.943 590.782 291.099 594.909 288.239L598.679 285.594C598.145 285.181 591.737 280.288 590.021 277.061C588.516 274.201 587.416 270.164 589.002 267.137C589.349 266.409 589.854 265.759 590.485 265.229C591.115 264.699 591.857 264.3 592.662 264.059C593.467 263.818 594.316 263.74 595.155 263.83C595.994 263.921 596.803 264.177 597.53 264.583C601.835 267.137 602.256 275.761 601.139 279.875C601.058 280.181 599.391 284.34 598.922 285.38C601.673 283.438 604.408 281.48 607.013 279.447C610.555 276.707 613.906 273.754 617.046 270.608C616.804 270.424 610.088 265.332 608.34 262.045C606.819 259.185 605.735 255.148 607.321 252.105C607.668 251.38 608.172 250.732 608.802 250.203C609.431 249.674 610.172 249.276 610.974 249.035C611.777 248.794 612.625 248.716 613.462 248.805C614.299 248.894 615.107 249.148 615.833 249.551C620.137 252.105 620.574 260.745 619.458 264.843C619.377 265.118 618.115 268.299 617.483 269.782C617.558 269.842 617.639 269.893 617.726 269.935C620.796 266.687 623.552 263.187 625.963 259.476C627.323 257.457 628.488 255.438 629.588 253.466C628.229 252.64 622.095 248.878 620.17 246.003C618.244 243.129 616.788 239.413 618.001 236.232C618.263 235.475 618.691 234.779 619.256 234.188C619.821 233.598 620.512 233.127 621.283 232.805C622.054 232.483 622.887 232.319 623.73 232.322C624.573 232.324 625.405 232.495 626.174 232.822C630.753 234.902 632.177 243.526 631.546 247.686C631.546 247.915 630.899 250.224 630.43 251.891C630.899 251.004 631.417 250.071 631.854 249.199C633.472 245.942 634.847 242.853 635.98 240.116C636.628 238.587 637.162 237.058 637.599 235.773C636.708 234.321 633.245 228.372 632.906 225.069C632.566 221.766 633.116 217.744 635.754 215.451C636.354 214.892 637.073 214.459 637.862 214.18C638.651 213.901 639.494 213.783 640.335 213.832C641.176 213.881 641.996 214.096 642.743 214.465C643.49 214.833 644.147 215.346 644.67 215.97C647.713 219.809 644.816 228.02 642.194 231.507C641.968 231.813 637.841 236.094 637.793 236.094V236.003C637.34 237.302 636.854 238.679 636.272 240.193C635.203 242.96 633.957 246.08 632.355 249.368C630.662 252.953 628.755 256.446 626.643 259.827C624.286 263.615 621.579 267.197 618.551 270.531L618.438 270.638C619.7 269.904 623.293 267.962 623.6 267.84C627.776 266.143 636.87 265.195 640.204 268.803C640.74 269.418 641.134 270.132 641.359 270.899C641.585 271.667 641.636 272.47 641.511 273.258C641.386 274.045 641.087 274.799 640.633 275.47C640.179 276.141 639.581 276.715 638.877 277.153C635.948 279.11 631.562 278.682 628.326 277.764C624.685 276.679 618.616 271.434 618.066 271.021C614.901 274.344 611.506 277.465 607.903 280.364C605.816 282.061 603.647 283.713 601.43 285.349C602.547 284.753 603.55 284.218 603.696 284.156C607.855 282.459 616.949 281.511 620.283 285.12C620.822 285.733 621.218 286.447 621.445 287.215C621.671 287.982 621.724 288.787 621.598 289.575C621.473 290.364 621.173 291.118 620.718 291.789C620.262 292.46 619.662 293.033 618.956 293.469C616.043 295.426 611.641 294.998 608.421 294.081C605.201 293.163 599.812 288.729 598.42 287.551C597.562 288.178 596.802 288.805 595.88 289.417C591.818 292.368 587.788 295.289 583.823 298.271C582.448 299.326 581.137 300.396 579.81 301.482L581.784 300.442C585.943 298.76 595.038 297.797 598.372 301.421C598.911 302.034 599.306 302.748 599.533 303.516C599.76 304.284 599.812 305.088 599.687 305.876C599.562 306.665 599.261 307.419 598.806 308.09C598.351 308.761 597.751 309.334 597.045 309.77C594.116 311.727 589.73 311.299 586.51 310.366C583.289 309.434 578.418 305.443 576.8 304.066C575.489 305.198 574.162 306.345 572.949 307.507C572.123 308.317 571.33 309.036 570.521 309.908L568.191 312.4C566.783 314.021 565.31 315.688 563.967 317.309C563.029 318.441 562.155 319.526 561.281 320.612C562.624 319.557 565.343 317.554 565.586 317.385C569.421 315.107 578.273 312.874 582.14 315.963C582.767 316.495 583.268 317.146 583.612 317.873C583.955 318.6 584.132 319.388 584.132 320.184C584.132 320.98 583.955 321.767 583.612 322.494C583.268 323.221 582.767 323.872 582.14 324.404C579.551 326.759 575.149 327.004 571.816 326.515C568.126 325.979 561.459 321.927 560.634 321.361C559.177 323.166 557.785 324.939 556.491 326.622C552.008 332.478 548.513 337.525 546.118 341.072C546.118 341.21 545.956 341.317 545.875 341.439L542.768 340.017L543.253 339.314C545.762 335.781 549.419 330.766 554.08 324.939C555.552 323.089 557.154 321.162 558.821 319.175C557.086 317.391 555.465 315.512 553.966 313.547C550.39 314.862 542.978 314.908 542.007 314.908C541.862 317.187 541.732 319.389 541.635 321.468C541.311 328.701 541.344 334.726 541.425 338.931V339.421L538.01 337.892C538.01 333.702 538.188 328.044 538.641 321.346C538.787 319.052 538.997 316.59 539.24 314.067C538.285 313.853 530.566 311.972 527.653 309.77C525.015 307.782 522.232 304.54 522.329 301.161C522.32 300.364 522.489 299.574 522.826 298.843C523.163 298.112 523.659 297.456 524.282 296.919C524.906 296.382 525.642 295.976 526.443 295.726C527.245 295.477 528.093 295.39 528.932 295.472C533.965 296.084 538.188 303.745 539.013 307.966C539.013 308.21 539.272 311.024 539.37 312.691C539.483 311.666 539.564 310.672 539.693 309.632C539.904 307.537 540.195 305.458 540.502 303.21C540.68 302.14 540.875 301.038 541.053 299.937C541.231 298.836 541.538 297.705 541.781 296.589C542.396 293.974 543.14 291.359 543.965 288.744C542.023 288.56 535.146 287.796 532.184 286.19C529.223 284.585 525.986 281.801 525.549 278.437C525.414 277.651 525.456 276.847 525.672 276.077C525.888 275.307 526.274 274.589 526.804 273.97C527.334 273.351 527.996 272.844 528.748 272.484C529.499 272.123 530.323 271.916 531.165 271.877C536.23 271.755 541.635 278.728 543.124 282.78C543.221 283.025 543.949 286.037 544.305 287.704C544.823 286.175 545.309 284.569 545.924 282.994C547.542 278.407 549.37 273.926 551.151 269.385C551.701 267.993 552.219 266.601 552.769 265.21C552.073 265.21 543.868 264.415 540.567 262.61C537.638 261.081 534.369 258.222 533.916 254.857C533.783 254.072 533.827 253.268 534.044 252.499C534.261 251.731 534.647 251.014 535.177 250.395C535.706 249.776 536.368 249.27 537.118 248.908C537.868 248.547 538.69 248.339 539.531 248.297C544.613 248.175 550.018 255.163 551.507 259.2C551.62 259.506 552.656 263.788 552.866 264.965C554.031 261.907 555.18 258.849 556.102 255.79C557.469 251.661 558.55 247.452 559.339 243.19C559.015 243.19 550.455 242.425 547.072 240.59C544.127 238.985 540.858 236.186 540.421 232.822C540.286 232.036 540.328 231.232 540.544 230.462C540.76 229.692 541.146 228.974 541.676 228.355C542.206 227.735 542.868 227.229 543.62 226.868C544.371 226.508 545.195 226.301 546.037 226.262C551.102 226.139 556.507 233.128 557.996 237.165C558.093 237.425 558.902 240.743 559.242 242.318H559.517C560.185 238.011 560.445 233.656 560.294 229.305C560.294 226.919 560.051 224.626 559.808 222.408C558.19 222.408 550.843 222.408 547.606 221.093C544.37 219.778 540.923 217.362 540.082 214.074C539.857 213.304 539.807 212.498 539.935 211.708C540.063 210.919 540.367 210.164 540.825 209.492C541.283 208.821 541.886 208.249 542.595 207.813C543.303 207.377 544.101 207.088 544.936 206.964C549.969 206.321 556.151 212.698 558.109 216.552C558.206 216.766 559.048 219.014 559.614 220.665C559.501 219.656 559.388 218.631 559.242 217.607C558.74 214.013 558.028 210.756 557.381 207.866C556.992 206.23 556.62 204.807 556.248 203.385C554.63 202.621 548.286 199.486 546.118 196.932C543.949 194.379 542.007 190.724 542.881 187.436C543.066 186.664 543.421 185.936 543.922 185.301C544.422 184.666 545.058 184.137 545.788 183.748C546.519 183.359 547.327 183.119 548.161 183.043C548.995 182.967 549.837 183.057 550.633 183.307Z" fill="white"/>
<path d="M642.356 257.228C638.391 257.075 630.462 253.221 630.462 253.221C630.462 253.221 634.718 249.062 635.025 248.817C638.569 246.156 647.082 242.96 651.305 245.621C651.996 246.078 652.576 246.668 653.009 247.352C653.441 248.035 653.716 248.798 653.816 249.589C653.915 250.38 653.836 251.182 653.585 251.942C653.334 252.702 652.915 253.404 652.357 254.001C650.075 256.616 645.738 257.35 642.356 257.228Z" fill="white"/>
</g>
<path d="M596.057 351.042C596.057 351.042 571.994 296.237 558.53 298.622C545.066 301.008 581.623 385.999 581.623 385.999C581.623 385.999 539.289 310.535 510.419 310.535C481.549 310.535 521.002 393.936 557.575 421.736C557.575 421.736 499.835 362.955 466.159 375.677C432.483 388.4 533.56 447.962 533.56 447.962C533.56 447.962 474.865 430.483 481.597 443.986C488.329 457.488 506.616 459.874 506.616 459.874L440.267 463.055H671.113L619.15 458.283C619.15 458.283 673.039 432.869 658.604 422.531C644.169 412.194 612.418 434.444 612.418 434.444C612.418 434.444 667.261 377.253 656.678 355.813C646.094 334.374 598.938 394.731 598.938 394.731C598.938 394.731 637.437 317.691 629.685 304.173C621.934 290.655 596.057 351.042 596.057 351.042Z" fill="#FFC727"/>
<path opacity="0.4" d="M596.057 351.042C596.057 351.042 571.994 296.237 558.53 298.622C545.066 301.008 581.623 385.999 581.623 385.999C581.623 385.999 539.289 310.535 510.419 310.535C481.549 310.535 521.002 393.936 557.575 421.736C557.575 421.736 499.835 362.955 466.159 375.677C432.483 388.4 533.56 447.962 533.56 447.962C533.56 447.962 474.865 430.483 481.597 443.986C488.329 457.488 506.616 459.874 506.616 459.874L440.267 463.055H671.113L619.15 458.283C619.15 458.283 673.039 432.869 658.604 422.531C644.169 412.194 612.418 434.444 612.418 434.444C612.418 434.444 667.261 377.253 656.678 355.813C646.094 334.374 598.938 394.731 598.938 394.731C598.938 394.731 637.437 317.691 629.685 304.173C621.934 290.655 596.057 351.042 596.057 351.042Z" fill="white"/>
<path d="M603.761 353.933C582.594 413.035 582.594 454.858 582.594 454.858C582.594 454.858 607.612 455.776 633.585 437.594" stroke="#263238" stroke-linecap="round" stroke-linejoin="round"/>
<path d="M593.177 385.755C588.809 368.087 583.015 350.762 575.845 333.931" stroke="#263238" stroke-linecap="round" stroke-linejoin="round"/>
<path d="M530.631 351.211L584.503 426.676C584.503 426.676 621.076 397.621 633.585 381.213" stroke="#263238" stroke-linecap="round" stroke-linejoin="round"/>
<path d="M583.548 444.857C583.548 444.857 526.779 419.397 503.687 404.854" stroke="#263238" stroke-linecap="round" stroke-linejoin="round"/>
<path d="M223.985 76.8461L210.763 56.9057H94.3127V76.8461V84.018V415.757H573.644V76.8461H223.985Z" fill="#263238"/>
<path d="M570.489 85.9907H97.8728V408.524H570.489V85.9907Z" fill="white"/>
<path opacity="0.17" d="M572.803 83.2228H561.831V410.971H572.803V83.2228Z" fill="black"/>
<path opacity="0.17" d="M572.803 281.389H561.831V408.31H572.803V281.389Z" fill="black"/>
<path d="M571.104 81.6324H95.9956V99.1721H571.104V81.6324Z" fill="#FFC727" stroke="#263238" stroke-miterlimit="10"/>
<path d="M570.489 85.9907H97.8728V408.524H570.489V85.9907Z" stroke="#263238" stroke-linecap="round" stroke-linejoin="round"/>
<g opacity="0.17">
<path d="M344.109 116.085H311.048C310.665 116.085 310.286 116.014 309.933 115.875C309.58 115.737 309.258 115.534 308.988 115.279C308.717 115.023 308.503 114.72 308.357 114.386C308.21 114.052 308.135 113.694 308.135 113.332C308.133 112.97 308.206 112.61 308.352 112.274C308.497 111.939 308.712 111.633 308.982 111.376C309.253 111.119 309.575 110.915 309.929 110.775C310.284 110.636 310.664 110.565 311.048 110.565H344.109C344.493 110.565 344.873 110.636 345.227 110.775C345.582 110.915 345.904 111.119 346.174 111.376C346.445 111.633 346.659 111.939 346.805 112.274C346.95 112.61 347.024 112.97 347.022 113.332C347.022 113.694 346.947 114.052 346.8 114.386C346.654 114.72 346.439 115.023 346.169 115.279C345.898 115.534 345.577 115.737 345.224 115.875C344.87 116.014 344.491 116.085 344.109 116.085Z" fill="black"/>
<path d="M410.231 116.085H377.17C376.399 116.081 375.661 115.79 375.115 115.274C374.57 114.759 374.262 114.061 374.257 113.332C374.257 112.601 374.564 111.899 375.11 111.381C375.655 110.862 376.396 110.569 377.17 110.565H410.231C411.008 110.565 411.753 110.856 412.303 111.375C412.852 111.894 413.161 112.598 413.161 113.332C413.156 114.064 412.846 114.764 412.297 115.28C411.748 115.795 411.006 116.085 410.231 116.085Z" fill="black"/>
<path d="M476.37 116.085H443.309C442.535 116.085 441.792 115.795 441.243 115.28C440.695 114.764 440.384 114.064 440.38 113.332C440.38 112.598 440.688 111.894 441.238 111.375C441.787 110.856 442.532 110.565 443.309 110.565H476.37C477.144 110.569 477.885 110.862 478.431 111.381C478.977 111.899 479.283 112.601 479.283 113.332C479.279 114.061 478.971 114.759 478.425 115.274C477.88 115.79 477.141 116.081 476.37 116.085Z" fill="black"/>
<path d="M542.493 116.085H509.431C509.049 116.085 508.67 116.014 508.317 115.875C507.963 115.737 507.642 115.534 507.372 115.279C507.101 115.023 506.887 114.72 506.74 114.386C506.594 114.052 506.519 113.694 506.519 113.332C506.516 112.97 506.59 112.61 506.736 112.274C506.881 111.939 507.095 111.633 507.366 111.376C507.637 111.119 507.959 110.915 508.313 110.775C508.667 110.636 509.048 110.565 509.431 110.565H542.493C543.267 110.569 544.008 110.862 544.553 111.381C545.099 111.899 545.406 112.601 545.406 113.332C545.401 114.061 545.093 114.759 544.548 115.274C544.002 115.79 543.264 116.081 542.493 116.085Z" fill="black"/>
</g>
<path d="M142.537 247.731H192.493" stroke="#263238" stroke-width="3" stroke-linecap="round" stroke-linejoin="round"/>
<path d="M191.603 255.087H197.057" stroke="#263238" stroke-linecap="round" stroke-linejoin="round"/>
<path d="M160.322 255.087H188.302" stroke="#263238" stroke-linecap="round" stroke-linejoin="round"/>
<path d="M138.718 255.087H157.36" stroke="#263238" stroke-linecap="round" stroke-linejoin="round"/>
<path d="M174.142 262.442H197.057" stroke="#263238" stroke-linecap="round" stroke-linejoin="round"/>
<path d="M161.633 262.442H170.533" stroke="#263238" stroke-linecap="round" stroke-linejoin="round"/>
<path d="M138.718 262.442H157.684" stroke="#263238" stroke-linecap="round" stroke-linejoin="round"/>
<path d="M151.098 269.782H197.057" stroke="#263238" stroke-linecap="round" stroke-linejoin="round"/>
<path d="M138.718 269.782H146.826" stroke="#263238" stroke-linecap="round" stroke-linejoin="round"/>
<path d="M185.68 277.137H197.057" stroke="#263238" stroke-linecap="round" stroke-linejoin="round"/>
<path d="M163.947 277.137H181.716" stroke="#263238" stroke-linecap="round" stroke-linejoin="round"/>
<path d="M138.718 277.137H160.322" stroke="#263238" stroke-linecap="round" stroke-linejoin="round"/>
<path d="M157.684 284.493H197.057" stroke="#263238" stroke-linecap="round" stroke-linejoin="round"/>
<path d="M138.718 284.493H154.059" stroke="#263238" stroke-linecap="round" stroke-linejoin="round"/>
<path d="M256.463 247.731H306.419" stroke="#263238" stroke-width="3" stroke-linecap="round" stroke-linejoin="round"/>
<path d="M305.529 255.087H310.983" stroke="#263238" stroke-linecap="round" stroke-linejoin="round"/>
<path d="M274.248 255.087H302.228" stroke="#263238" stroke-linecap="round" stroke-linejoin="round"/>
<path d="M252.644 255.087H271.287" stroke="#263238" stroke-linecap="round" stroke-linejoin="round"/>
<path d="M288.068 262.442H310.983" stroke="#263238" stroke-linecap="round" stroke-linejoin="round"/>
<path d="M275.559 262.442H284.459" stroke="#263238" stroke-linecap="round" stroke-linejoin="round"/>
<path d="M252.644 262.442H271.61" stroke="#263238" stroke-linecap="round" stroke-linejoin="round"/>
<path d="M265.024 269.782H310.983" stroke="#263238" stroke-linecap="round" stroke-linejoin="round"/>
<path d="M252.644 269.782H260.752" stroke="#263238" stroke-linecap="round" stroke-linejoin="round"/>
<path d="M299.606 277.137H310.983" stroke="#263238" stroke-linecap="round" stroke-linejoin="round"/>
<path d="M277.873 277.137H295.642" stroke="#263238" stroke-linecap="round" stroke-linejoin="round"/>
<path d="M252.644 277.137H274.248" stroke="#263238" stroke-linecap="round" stroke-linejoin="round"/>
<path d="M271.61 284.493H310.983" stroke="#263238" stroke-linecap="round" stroke-linejoin="round"/>
<path d="M252.644 284.493H267.985" stroke="#263238" stroke-linecap="round" stroke-linejoin="round"/>
<path d="M370.39 247.731H420.346" stroke="#263238" stroke-width="3" stroke-linecap="round" stroke-linejoin="round"/>
<path d="M419.456 255.087H424.909" stroke="#263238" stroke-linecap="round" stroke-linejoin="round"/>
<path d="M388.174 255.087H416.154" stroke="#263238" stroke-linecap="round" stroke-linejoin="round"/>
<path d="M366.57 255.087H385.213" stroke="#263238" stroke-linecap="round" stroke-linejoin="round"/>
<path d="M401.994 262.442H424.909" stroke="#263238" stroke-linecap="round" stroke-linejoin="round"/>
<path d="M389.485 262.442H398.386" stroke="#263238" stroke-linecap="round" stroke-linejoin="round"/>
<path d="M366.57 262.442H385.536" stroke="#263238" stroke-linecap="round" stroke-linejoin="round"/>
<path d="M378.95 269.782H424.909" stroke="#263238" stroke-linecap="round" stroke-linejoin="round"/>
<path d="M366.57 269.782H374.678" stroke="#263238" stroke-linecap="round" stroke-linejoin="round"/>
<path d="M413.533 277.137H424.909" stroke="#263238" stroke-linecap="round" stroke-linejoin="round"/>
<path d="M391.799 277.137H409.568" stroke="#263238" stroke-linecap="round" stroke-linejoin="round"/>
<path d="M366.57 277.137H388.174" stroke="#263238" stroke-linecap="round" stroke-linejoin="round"/>
<path d="M385.537 284.493H424.909" stroke="#263238" stroke-linecap="round" stroke-linejoin="round"/>
<path d="M366.57 284.493H381.912" stroke="#263238" stroke-linecap="round" stroke-linejoin="round"/>
<path d="M484.316 247.731H534.272" stroke="#263238" stroke-width="3" stroke-linecap="round" stroke-linejoin="round"/>
<path d="M533.382 255.087H538.835" stroke="#263238" stroke-linecap="round" stroke-linejoin="round"/>
<path d="M502.101 255.087H530.08" stroke="#263238" stroke-linecap="round" stroke-linejoin="round"/>
<path d="M480.497 255.087H499.139" stroke="#263238" stroke-linecap="round" stroke-linejoin="round"/>
<path d="M515.92 262.442H538.835" stroke="#263238" stroke-linecap="round" stroke-linejoin="round"/>
<path d="M503.412 262.442H512.312" stroke="#263238" stroke-linecap="round" stroke-linejoin="round"/>
<path d="M480.497 262.442H499.463" stroke="#263238" stroke-linecap="round" stroke-linejoin="round"/>
<path d="M492.876 269.782H538.835" stroke="#263238" stroke-linecap="round" stroke-linejoin="round"/>
<path d="M480.497 269.782H488.604" stroke="#263238" stroke-linecap="round" stroke-linejoin="round"/>
<path d="M527.459 277.137H538.835" stroke="#263238" stroke-linecap="round" stroke-linejoin="round"/>
<path d="M505.726 277.137H523.494" stroke="#263238" stroke-linecap="round" stroke-linejoin="round"/>
<path d="M480.497 277.137H502.1" stroke="#263238" stroke-linecap="round" stroke-linejoin="round"/>
<path d="M499.463 284.493H538.835" stroke="#263238" stroke-linecap="round" stroke-linejoin="round"/>
<path d="M480.497 284.493H495.838" stroke="#263238" stroke-linecap="round" stroke-linejoin="round"/>
<path d="M554.225 224.045H114.056V138.243H554.225V224.045Z" fill="#FFC727"/>
<path opacity="0.7" d="M554.225 224.045H114.056V138.243H554.225V224.045Z" fill="white"/>
<path d="M442.839 224.045H225.522V138.243H442.839V224.045Z" fill="#FFC727"/>
<path opacity="0.92" d="M442.839 224.045H225.522V138.243H442.839V224.045Z" fill="white"/>
<path d="M398.434 163.107H413.241" stroke="#263238" stroke-linecap="round" stroke-linejoin="round"/>
<path d="M313.669 163.107H389.517" stroke="#263238" stroke-linecap="round" stroke-linejoin="round"/>
<path d="M255.12 163.107H305.627" stroke="#263238" stroke-linecap="round" stroke-linejoin="round"/>
<path d="M351.148 170.462H413.241" stroke="#263238" stroke-linecap="round" stroke-linejoin="round"/>
<path d="M317.229 170.462H341.325" stroke="#263238" stroke-linecap="round" stroke-linejoin="round"/>
<path d="M255.12 170.462H306.533" stroke="#263238" stroke-linecap="round" stroke-linejoin="round"/>
<path d="M288.683 177.818H413.241" stroke="#263238" stroke-linecap="round" stroke-linejoin="round"/>
<path d="M255.12 177.818H277.08" stroke="#263238" stroke-linecap="round" stroke-linejoin="round"/>
<path d="M382.381 185.173H413.241" stroke="#263238" stroke-linecap="round" stroke-linejoin="round"/>
<path d="M323.476 185.173H371.668" stroke="#263238" stroke-linecap="round" stroke-linejoin="round"/>
<path d="M255.12 185.173H313.669" stroke="#263238" stroke-linecap="round" stroke-linejoin="round"/>
<path d="M306.533 192.513H413.241" stroke="#263238" stroke-linecap="round" stroke-linejoin="round"/>
<path d="M255.12 192.513H296.71" stroke="#263238" stroke-linecap="round" stroke-linejoin="round"/>
<path d="M554.225 407.454H114.056V321.652H554.225V407.454Z" fill="#FFC727"/>
<path opacity="0.7" d="M554.225 407.454H114.056V321.652H554.225V407.454Z" fill="white"/>
<path d="M502.133 354.3C502.133 354.3 476.354 364.087 472.308 365.295C468.263 366.503 468.02 368.154 468.02 373.399C468.02 378.644 468.78 402.301 468.78 404.212C468.78 406.123 468.521 409.702 468.521 409.702H552.979C552.979 409.702 547.412 388.293 544.127 378.185C540.842 368.078 542.363 367.191 536.554 363.857C530.744 360.524 515.516 355.737 512.279 355.018C508.923 354.521 505.53 354.28 502.133 354.3Z" fill="#263238" stroke="#263238" stroke-linecap="round" stroke-linejoin="round"/>
<path d="M503.395 351.67C503.395 351.67 497.327 351.196 494.802 355.982C492.278 360.768 486.209 371.916 486.209 371.916L493.54 376.213L485.012 380.326C486.436 386.226 488.208 392.046 490.32 397.759C491.788 401.508 493.474 405.179 495.369 408.754C495.369 408.754 507.667 395.618 512.522 391.55C515.723 388.656 518.373 385.263 520.355 381.519L514.043 376.029L524.918 374.837C524.918 374.837 522.135 361.472 518.591 355.982C515.047 350.492 503.395 351.67 503.395 351.67Z" fill="#263238" stroke="#263238" stroke-linecap="round" stroke-linejoin="round"/>
<path d="M490.983 397.912C491.436 399.104 491.921 400.236 492.391 401.23" stroke="white" stroke-width="0.5" stroke-linecap="round" stroke-linejoin="round"/>
<path d="M491.906 361.93L486.209 371.916L493.54 376.213L485.691 380.418C485.691 380.418 487.52 387.957 489.818 394.716" stroke="white" stroke-width="0.5" stroke-linecap="round" stroke-linejoin="round"/>
<path d="M520.614 357.404L524.87 374.837L513.995 376.029L520.306 381.519C520.306 381.519 508.169 394.96 503.136 400.389" stroke="white" stroke-width="0.5" stroke-linecap="round" stroke-linejoin="round"/>
<path d="M536.505 384.149L531.958 410.665" stroke="white" stroke-width="0.5" stroke-linecap="round" stroke-linejoin="round"/>
<path d="M474.088 379.378C474.088 379.378 473.587 395.373 473.83 400.389C474.03 403.569 474.711 406.705 475.852 409.702" stroke="white" stroke-width="0.5" stroke-linecap="round" stroke-linejoin="round"/>
<path d="M520.84 390.602L525.129 385.113L528.673 390.602H520.84Z" fill="white" stroke="#263238" stroke-miterlimit="10"/>
<path d="M525.889 338.06C525.889 338.06 530.178 337.586 531.197 343.565C532.217 349.544 529.174 357.175 519.06 357.175C508.946 357.175 509.723 350.003 509.965 344.758C510.208 339.513 525.889 338.06 525.889 338.06Z" fill="#263238" stroke="#263238" stroke-miterlimit="10"/>
<path d="M500.871 347.862C500.871 347.862 500.612 354.774 500.11 362.664C499.609 370.555 495.563 381.29 495.563 390.358C495.529 395.383 495.782 400.406 496.323 405.405C496.323 405.405 504.658 390.113 508.444 381.29C512.231 372.466 516.536 346.899 516.536 346.899L500.871 347.862Z" fill="white" stroke="#263238" stroke-miterlimit="10"/>
<path d="M525.63 332.157C527.512 328.675 528.551 324.841 528.673 320.933C528.673 314.969 527.41 306.849 520.08 303.256C512.749 299.662 498.589 302.063 495.061 308.99C492.679 313.418 491.564 318.358 491.824 323.319C492.08 326.001 492.672 328.644 493.588 331.194C493.588 331.194 494.608 326.606 501.421 324.282C508.234 321.958 515.581 319.496 519.109 321.224C522.636 322.952 525.63 332.157 525.63 332.157Z" fill="#263238" stroke="#263238" stroke-linecap="round" stroke-linejoin="round"/>
<path d="M493.799 329.711C493.799 329.711 490.756 325.414 489.494 328.518C488.232 331.622 490.012 336.164 492.018 337.112C494.025 338.06 495.061 337.586 495.061 337.586L493.799 329.711Z" fill="white" stroke="#263238" stroke-linecap="round" stroke-linejoin="round"/>
<path d="M525.63 330.429C525.63 330.429 529.174 327.08 529.174 330.185C528.996 333.065 527.864 335.82 525.938 338.06C524.417 339.971 523.656 339.023 523.656 339.023L525.63 330.429Z" fill="white" stroke="#263238" stroke-linecap="round" stroke-linejoin="round"/>
<path d="M519.627 316.682L522.135 310C522.234 309.738 522.219 309.45 522.093 309.199C521.967 308.948 521.74 308.755 521.463 308.661C521.187 308.568 520.882 308.583 520.616 308.702C520.351 308.821 520.146 309.034 520.048 309.296L517.944 314.878C515.73 314.383 513.433 314.32 511.193 314.694C508.953 315.067 506.818 315.869 504.917 317.049C498.346 321.117 493.039 324.695 493.039 324.695C493.039 324.695 493.297 338.305 496.065 343.32C498.832 348.336 503.654 354.3 507.7 354.3C511.746 354.3 518.818 345.95 521.601 343.32C524.384 340.69 526.148 330.429 526.148 327.08C526.148 324.68 521.973 319.45 519.627 316.682Z" fill="white" stroke="#263238" stroke-miterlimit="10"/>
<path d="M509.674 378.033C505.569 378.384 501.433 377.861 497.57 376.503C496.412 381.083 495.74 385.76 495.563 390.465C495.529 395.49 495.782 400.513 496.323 405.512C496.323 405.512 504.658 390.22 508.444 381.397C508.849 380.357 509.286 379.21 509.674 378.033Z" fill="#FFC727" stroke="#263238" stroke-miterlimit="10"/>
<path d="M390.229 341.623C383.783 342.314 377.382 343.335 371.053 344.681C363.657 346.486 360.097 347.266 360.097 350.63C360.097 353.994 359.272 368.491 356.861 374.974C354.45 381.458 351.65 390.771 351.65 394.135C351.65 397.499 356.861 411.736 356.861 411.736H366.441C366.441 411.736 362.881 395.159 362.881 393.615C362.881 392.07 367.816 378.323 367.816 378.323L368.092 412.24H418.258L417.724 379.868C417.724 379.868 422.093 393.08 422.093 395.404C422.093 397.728 420.475 413.02 420.475 413.02H429.99C429.99 413.02 434.651 396.199 434.376 390.235C434.101 384.272 429.521 365.371 428.906 359.652C428.291 353.933 431.916 350.844 425.346 346.96C418.776 343.076 403.693 340.751 400.408 340.491C396.985 340.555 393.575 340.934 390.229 341.623Z" fill="#FFC727" stroke="#263238" stroke-miterlimit="10"/>
<path d="M367.768 378.4L368.593 365.447L365.567 355.615" stroke="#263238" stroke-linecap="round" stroke-linejoin="round"/>
<path d="M417.643 363.383V379.944" stroke="#263238" stroke-linecap="round" stroke-linejoin="round"/>
<path d="M417.902 368.047L422.288 361.823" stroke="#263238" stroke-linecap="round" stroke-linejoin="round"/>
<path d="M394.89 359.239L393.256 411.797" stroke="#263238" stroke-linecap="round" stroke-linejoin="round"/>
<path d="M394.065 335.414C391.627 335.541 389.308 336.453 387.495 337.999C384.485 340.598 383.384 350.691 383.384 350.691C383.384 350.691 392.981 348.107 394.615 347.633C396.25 347.158 410.798 350.217 410.798 350.217C410.798 350.217 409.438 341.164 405.603 337.28C401.768 333.396 394.065 335.414 394.065 335.414Z" fill="#263238" stroke="#263238" stroke-linecap="round" stroke-linejoin="round"/>
<path d="M390.229 327.126C390.229 327.126 392.43 330.185 392.43 339.36C392.43 348.535 393.515 358 394.89 359.239C396.266 360.478 402.01 347.006 402.01 340.889C402.12 336.844 403.152 332.87 405.037 329.237C405.037 329.237 398.175 324.833 394.615 324.313C393.643 324.169 392.649 324.38 391.835 324.903C391.021 325.425 390.447 326.22 390.229 327.126Z" fill="white" stroke="#263238" stroke-linecap="round" stroke-linejoin="round"/>
<path d="M392.867 349.452C393.304 354.483 394.049 358.444 394.89 359.239C395.732 360.034 398.369 354.988 400.182 349.575C397.752 349.899 395.283 349.858 392.867 349.452Z" fill="#263238" stroke="#263238" stroke-linecap="round" stroke-linejoin="round"/>
<path d="M406.946 302.277C406.946 302.277 408.564 302.797 411.607 300.198C414.649 297.598 413.225 292.689 411.882 293.729C411.024 294.391 410.282 295.175 409.681 296.053C409.15 294.538 408.171 293.198 406.861 292.19C405.551 291.182 403.964 290.549 402.285 290.365C396.541 289.845 389.679 297.353 389.679 297.353C389.679 297.353 377.089 306.161 378.448 313.15C379.808 320.138 386.944 326.346 390.229 327.126C393.514 327.906 399.551 322.218 398.45 317.294C397.35 312.37 396.541 305.06 398.45 304.342C401.239 303.503 404.075 302.814 406.946 302.277Z" fill="#263238" stroke="#263238" stroke-linecap="round" stroke-linejoin="round"/>
<path d="M389.679 322.982C389.679 322.982 385.035 319.924 383.934 322.218C382.834 324.511 385.31 328.686 388.32 329.971C391.33 331.255 394.065 327.126 394.065 327.126C394.065 327.126 403.661 334.375 410.248 334.635C416.834 334.894 417.109 329.971 416.009 320.658C414.908 311.345 411.623 304.082 409.163 301.497C406.704 298.913 397.107 301.237 394.081 303.562C391.055 305.886 389.226 307.966 392.171 308.486C395.117 309.006 397.916 310.015 395.181 312.89C392.447 315.764 391.071 314.694 391.945 316.774C392.819 318.853 396.33 320.918 393.045 321.958L389.679 322.982Z" fill="white" stroke="#263238" stroke-linecap="round" stroke-linejoin="round"/>
<path d="M269.264 336.745C269.264 336.745 234.73 340.629 233.662 343.473C232.594 346.317 219.971 374.057 221.881 376.61C223.79 379.164 227.642 379.669 230.652 379.669C232.784 379.489 234.801 378.675 236.413 377.344L227.642 412.515H291.208L293.133 387.911C293.133 387.911 300.529 390.969 305.465 390.511C310.4 390.052 309.3 386.366 308.199 379.378C307.099 372.39 306.581 354.514 304.639 351.15C302.697 347.785 279.427 338.457 279.427 338.457L269.264 336.745Z" fill="#263238" stroke="#263238" stroke-linecap="round" stroke-linejoin="round"/>
<path d="M293.651 378.919V362.863L295.011 359.759" stroke="white" stroke-linecap="round" stroke-linejoin="round"/>
<path d="M238.29 365.447L241.041 354.575L240.491 352.251" stroke="white" stroke-linecap="round" stroke-linejoin="round"/>
<path d="M245.508 413.616C245.508 413.616 250.702 392.376 253.178 379.179C255.654 365.983 265.963 336.745 265.963 336.745L281.87 340.889C281.87 340.889 271.173 370.402 268.438 383.094C265.704 395.786 263.406 413.769 263.406 413.769L245.508 413.616Z" fill="#FFC727" stroke="#263238" stroke-miterlimit="10"/>
<path d="M268.163 333.686C268.163 333.686 263.503 333.686 261.852 336.745C260.202 339.803 258.017 351.761 258.017 351.761C258.017 351.761 267.888 347.617 268.714 347.617C269.539 347.617 273.374 347.877 275.284 349.942C277.193 352.006 281.32 356.93 281.32 356.93C281.32 356.93 287.615 347.357 285.981 341.149C285.42 339.102 284.191 337.275 282.468 335.927C280.745 334.579 278.616 333.779 276.384 333.641L268.163 333.686Z" fill="#FFC727" stroke="#263238" stroke-miterlimit="10"/>
<path d="M266.545 326.866C266.545 326.866 265.995 345.002 266.545 350.171C267.096 355.339 267.921 356.639 267.921 356.639C267.921 356.639 272.581 349.391 273.941 346.807C275.3 344.222 279.427 341.363 281.352 339.038C283.278 336.714 284.589 327.906 284.589 327.906C284.589 327.906 277.469 333.09 273.633 331.79C270.92 330.656 268.501 328.975 266.545 326.866Z" fill="white" stroke="#263238" stroke-linecap="round" stroke-linejoin="round"/>
<path d="M277.873 294.096C273.212 294.738 268.665 296.94 267.354 301.237C266.254 304.861 265.736 316.774 265.445 322.722C265.153 328.671 268.455 336.194 271.19 336.974C273.473 337.74 275.93 337.919 278.31 337.494C279.686 336.974 285.997 328.946 287.631 327.386C289.266 325.826 294.201 311.33 294.201 306.161C294.322 303.612 293.559 301.094 292.029 298.992C290.499 296.889 288.284 295.315 285.722 294.509C283.165 293.853 280.491 293.712 277.873 294.096Z" fill="white" stroke="#263238" stroke-linecap="round" stroke-linejoin="round"/>
<path d="M291.45 318.395C291.45 318.395 295.836 314.755 294.687 319.419C294.334 320.813 293.661 322.116 292.716 323.236C291.771 324.357 290.576 325.267 289.217 325.903L291.45 318.395Z" fill="white" stroke="#263238" stroke-linecap="round" stroke-linejoin="round"/>
<path d="M265.963 313.409C265.963 313.409 262.726 310.565 262.726 314.449C262.851 316.993 263.813 319.435 265.477 321.438L265.963 313.409Z" fill="white" stroke="#263238" stroke-linecap="round" stroke-linejoin="round"/>
<path d="M291.451 318.395C292.872 314.434 293.79 310.327 294.185 306.161C294.306 303.612 293.543 301.094 292.013 298.992C290.483 296.889 288.268 295.315 285.706 294.509C283.149 293.853 280.475 293.712 277.857 294.096C273.196 294.738 268.649 296.94 267.338 301.237C266.495 305.523 266.003 309.863 265.866 314.22C267.257 313.195 270.154 310.688 269.539 307.706C268.714 303.822 267.063 302.017 270.073 300.197C273.083 298.378 276.66 300.977 281.595 302.537C286.531 304.097 291.451 302.017 292.826 303.302C294.202 304.586 288.441 310.045 289.266 312.11C290.091 314.174 292.001 316.514 291.451 318.333V318.395Z" fill="#263238" stroke="#263238" stroke-linecap="round" stroke-linejoin="round"/>
<path d="M251.981 368.047C251.981 368.047 247.871 362.603 245.136 362.343C242.401 362.083 235.814 368.047 235.814 368.047H251.981Z" fill="white" stroke="#263238" stroke-linecap="round" stroke-linejoin="round"/>
<path d="M278.019 368.552H281.87L282.679 375.815L278.569 374.775L278.019 368.552Z" fill="white" stroke="#263238" stroke-linecap="round" stroke-linejoin="round"/>
<path d="M281.87 368.552L288.715 371.411L290.35 379.439L282.679 375.815L281.87 368.552Z" fill="white" stroke="#263238" stroke-linecap="round" stroke-linejoin="round"/>
<path d="M303.765 382.62L264.587 368.123C262.329 369.172 260.21 370.471 258.276 371.992C257.133 373.078 256.288 374.411 255.816 375.876C255.816 375.876 274.442 388.568 283.488 392.453C292.534 396.337 305.691 397.636 307.876 395.511C310.06 393.385 309.494 385.418 308.151 384.119C307.425 383.411 306.597 382.803 305.691 382.314" fill="#263238"/>
<path d="M303.765 382.62L264.587 368.123C262.329 369.172 260.21 370.471 258.276 371.992C257.133 373.078 256.288 374.411 255.816 375.876C255.816 375.876 274.442 388.568 283.488 392.453C292.534 396.337 305.691 397.636 307.876 395.511C310.06 393.385 309.494 385.418 308.151 384.119C307.425 383.411 306.597 382.803 305.691 382.314" stroke="#263238" stroke-linecap="round" stroke-linejoin="round"/>
<path d="M278.019 367.328L278.569 374.836C278.569 374.836 249.796 381.045 239.116 382.865C228.435 384.684 222.674 383.369 221.039 378.721C219.405 374.072 224.875 368.353 227.335 367.068C229.794 365.784 278.019 367.328 278.019 367.328Z" fill="#263238" stroke="#263238" stroke-linecap="round" stroke-linejoin="round"/>
<path d="M172.184 349.575C172.184 349.575 183.156 352.159 187.541 353.459C191.927 354.758 193.286 356.303 193.286 359.407C193.286 362.511 190.826 376.228 190.826 378.308V392.3C190.826 396.184 194.937 410.42 194.937 410.42H141.534C141.534 410.42 135.514 388.676 131.403 376.779C127.293 364.882 126.743 360.722 130.853 358.903C140.624 355.519 150.593 352.67 160.71 350.37C164.51 349.852 168.344 349.586 172.184 349.575Z" fill="#FFC727" stroke="#263238" stroke-miterlimit="10"/>
<path d="M188.092 366.655C188.092 366.655 191.328 380.907 190.276 386.076C189.224 391.245 181.78 410.94 181.78 410.94" stroke="#263238" stroke-linecap="round" stroke-linejoin="round"/>
<path d="M130.821 358.887C130.821 358.887 125.966 359.667 127.261 365.631C128.555 371.595 122.325 410.145 122.325 410.145H134.381C134.381 410.145 142.602 389.685 143.961 384.776C145.321 379.867 146.437 375.968 143.961 371.824" fill="#FFC727"/>
<path d="M130.821 358.887C130.821 358.887 125.966 359.667 127.261 365.631C128.555 371.595 122.325 410.145 122.325 410.145H134.381C134.381 410.145 142.602 389.685 143.961 384.776C145.321 379.867 146.437 375.968 143.961 371.824" stroke="#263238" stroke-miterlimit="10"/>
<path d="M181.877 324.358L183.673 377.1H167.475V328.9L181.877 324.358Z" fill="#263238" stroke="#263238" stroke-linecap="round" stroke-linejoin="round"/>
<path d="M160.953 362.267C160.953 362.267 165.614 382.146 167.54 388.156C169.465 394.165 169.724 408.035 169.158 409.9C168.591 411.766 176.003 409.9 176.003 409.9C176.003 409.9 177.929 396.138 179.029 388.156C180.13 380.173 176.828 365.111 176.828 365.111L173.268 351.899L159.837 354.239L160.953 362.267Z" fill="white" stroke="#263238" stroke-linecap="round" stroke-linejoin="round"/>
<path d="M172.686 340.506C171.922 344.628 172.015 348.851 172.961 352.939C174.579 358.643 178.997 368.995 175.162 371.839C171.326 374.684 166.115 373.139 163.381 367.955C160.646 362.771 158.17 349.834 158.17 339.222C158.17 328.61 159.27 326.79 163.105 326.79C166.941 326.79 172.686 340.506 172.686 340.506Z" fill="white" stroke="#263238" stroke-linecap="round" stroke-linejoin="round"/>
<path d="M164.788 335.598C162.324 337.622 159.426 339.119 156.292 339.987C152.182 340.766 149.997 330.414 149.447 320.107C148.897 309.801 151.648 304.051 157.393 301.467C163.138 298.882 177.12 300.167 182.605 302.231C188.091 304.296 194.662 307.675 194.662 313.104C194.662 318.532 187.25 322.982 185.065 324.206C182.881 325.429 177.67 327.264 174.385 330.414C171.546 332.679 168.294 334.436 164.788 335.598Z" fill="#263238" stroke="#263238" stroke-linecap="round" stroke-linejoin="round"/>
<path d="M164.788 335.598C164.788 335.598 168.025 343.366 174.11 343.611C180.194 343.855 187.056 330.674 187.266 324.97C187.476 319.266 181.23 309.434 181.23 309.434C181.23 309.434 170.549 332.478 164.788 335.598Z" fill="white" stroke="#263238" stroke-linecap="round" stroke-linejoin="round"/>
<path d="M163.154 323.946L163.688 379.868H145.337L149.447 314.878" fill="#263238"/>
<path d="M163.154 323.946L163.688 379.868H145.337L149.447 314.878" stroke="#263238" stroke-linecap="round" stroke-linejoin="round"/>
</svg>
