<svg width="1926" height="725" viewBox="0 0 1926 725" fill="none" xmlns="http://www.w3.org/2000/svg">
<g filter="url(#filter0_d_761_331)">
<rect x="3" y="2" width="1920" height="719" fill="#263238"/>
</g>
<g clip-path="url(#clip0_761_331)">
<path d="M904.36 587.192H901.904C903.95 585.55 906.406 584.113 909.272 582.882C912.137 581.65 916.026 581.034 920.939 581.034C929.126 581.034 936.187 583.908 942.123 589.655C948.058 595.402 951.026 603.612 951.026 614.286C951.026 624.548 947.751 633.066 941.202 639.84C934.652 646.613 926.056 650 915.412 650C904.769 650 895.456 645.792 887.474 637.377C879.491 628.961 875.5 617.159 875.5 601.97C875.5 582.677 881.845 565.743 894.535 551.17C907.225 536.597 922.985 527.874 941.816 525V547.783C931.173 549.836 922.269 554.454 915.105 561.638C907.942 568.822 904.36 577.34 904.36 587.192ZM1003.83 587.192H1000.76C1002.81 585.55 1005.37 584.113 1008.44 582.882C1011.51 581.65 1015.5 581.034 1020.41 581.034C1028.6 581.034 1035.66 583.908 1041.6 589.655C1047.53 595.402 1050.5 603.612 1050.5 614.286C1050.5 624.548 1047.12 633.066 1040.37 639.84C1033.61 646.613 1024.92 650 1014.27 650C1003.63 650 994.316 645.792 986.333 637.377C978.351 628.961 974.36 617.159 974.36 601.97C974.36 582.677 980.705 565.743 993.395 551.17C1006.08 536.597 1022.05 527.874 1041.29 525V547.783C1030.65 549.836 1021.74 554.454 1014.58 561.638C1007.42 568.822 1003.83 577.34 1003.83 587.192Z" fill="#E0E0E0" fill-opacity="0.15"/>
</g>
<circle opacity="0.15" cx="1676.5" cy="207.5" r="59.5" fill="#E0E0E0"/>
<circle opacity="0.15" cx="154.5" cy="475.5" r="52.5" fill="#E0E0E0"/>
<circle opacity="0.05" cx="1754" cy="650" r="37" fill="#E0E0E0"/>
<defs>
<filter id="filter0_d_761_331" x="0" y="0" width="1926" height="725" filterUnits="userSpaceOnUse" color-interpolation-filters="sRGB">
<feFlood flood-opacity="0" result="BackgroundImageFix"/>
<feColorMatrix in="SourceAlpha" type="matrix" values="0 0 0 0 0 0 0 0 0 0 0 0 0 0 0 0 0 0 127 0" result="hardAlpha"/>
<feOffset dy="1"/>
<feGaussianBlur stdDeviation="1.5"/>
<feComposite in2="hardAlpha" operator="out"/>
<feColorMatrix type="matrix" values="0 0 0 0 0 0 0 0 0 0 0 0 0 0 0 0 0 0 0.25 0"/>
<feBlend mode="normal" in2="BackgroundImageFix" result="effect1_dropShadow_761_331"/>
<feBlend mode="normal" in="SourceGraphic" in2="effect1_dropShadow_761_331" result="shape"/>
</filter>
<clipPath id="clip0_761_331">
<rect width="175" height="125" fill="white" transform="translate(875.5 525)"/>
</clipPath>
</defs>
</svg>
