<svg width="625" height="552" viewBox="0 0 625 552" fill="none" xmlns="http://www.w3.org/2000/svg">
<path d="M296.849 1.11097C296.277 1.02408 295.711 0.899267 295.155 0.737338C293.629 0.43487 292.063 0.394258 290.524 0.617242C288.252 0.927346 286.107 1.8499 284.319 3.28603C282.144 5.07208 280.608 7.51669 279.942 10.2516V10.3316L279.676 11.3591L279.275 10.385C278.213 7.78809 276.39 5.57368 274.044 4.03329C272.129 2.77556 269.925 2.02696 267.639 1.85823C265.513 1.74538 263.384 2.01659 261.354 2.65886C261.844 2.33747 262.386 2.10276 262.956 1.96498C264.477 1.48281 266.073 1.27939 267.666 1.3645C270.038 1.48432 272.337 2.22017 274.338 3.49953C276.829 5.09771 278.764 7.42861 279.876 10.1715H279.209V10.0914C279.903 7.21022 281.537 4.64215 283.852 2.7923C285.422 1.54513 287.261 0.682075 289.224 0.271997C291.186 -0.138081 293.217 -0.083828 295.155 0.430428C295.753 0.564009 296.325 0.793847 296.849 1.11097Z" fill="#E0E0E0"/>
<path d="M186.762 6.80859C186.3 7.44123 185.786 8.03482 185.227 8.58334C183.837 10.1875 182.579 11.9011 181.464 13.7074C177.765 19.6765 175.822 26.5674 175.86 33.5899V33.8434H175.166C174.095 26.956 170.894 20.577 166.012 15.6022C163.962 13.5884 161.728 11.7702 159.34 10.1713C159.533 10.2311 159.717 10.3163 159.887 10.4248C160.234 10.625 160.768 10.8785 161.395 11.2922C163.191 12.4463 164.86 13.7882 166.372 15.2953C171.455 20.2655 174.789 26.7505 175.873 33.7767H175.179V33.5098C175.124 26.3618 177.17 19.355 181.064 13.3605C182.234 11.5593 183.575 9.87466 185.067 8.3298C185.587 7.76936 186.041 7.38238 186.401 7.1155C186.512 7.00219 186.632 6.89944 186.762 6.80859Z" fill="#E0E0E0"/>
<path d="M20.3895 525.648L48.3317 521.725L47.1308 501.055L90.5386 510.903L97.304 486.884L132.198 495.277L171.683 477.209L180.303 482.947L229.916 475.355L247.463 444.49L281.197 427.904L305.363 451.416L306.604 432.827L339.163 427.29L347.703 434.295L353.521 424.394L399.878 424.274L410.606 408.261L547.208 369.457L583.584 343.023L623.269 357.167L594.019 228.505L539.415 139.928L482.223 184.87L410.873 38.6875L317.626 90.3552L189.911 252.978L79.5966 192.743L9.08722 322.673L0 551.322L20.3895 525.648Z" fill="#EBEBEB"/>
<path d="M79.5966 192.743L208.272 306.193L189.911 252.978L79.5966 192.743Z" fill="#E0E0E0"/>
<path d="M410.873 38.6875L488.041 264.747L482.223 184.87L410.873 38.6875Z" fill="#E0E0E0"/>
<path d="M539.415 139.928L606.896 285.163L597.008 226.77L539.415 139.928Z" fill="#E0E0E0"/>
<path d="M624.176 357.194C624.176 357.194 623.269 356.9 621.507 356.287L613.674 353.538L583.517 342.863H583.664L515.276 388.859H515.196H515.089L460.219 380.679H460.446L400.118 424.261H400.038H399.931L353.574 424.381L353.868 424.221L348.05 434.135L347.85 434.469L347.543 434.215L339.003 427.21L339.27 427.29L306.724 432.827L307.004 432.507C306.617 438.392 306.19 444.73 305.763 451.095V451.843L305.229 451.322C302.761 448.92 300.105 446.331 297.423 443.743L280.943 427.837H281.344L247.61 444.41L247.757 444.277L230.21 475.141L230.116 475.288H229.956L180.343 482.961H180.223L180.116 482.894L171.51 477.209H171.817L132.305 495.237H132.212H132.118L97.224 486.83L97.5442 486.644L90.7788 510.663V510.903H90.5386L47.0908 500.962L47.3443 500.735C47.7847 508.354 48.1583 515.106 48.5186 521.418V521.591H48.3585L20.3362 525.461H20.4296L5.29759 544.463C3.51839 546.616 2.20624 548.252 1.36113 549.373C0.467083 550.468 0.0267334 551.015 0.0267334 551.015C0.0267334 551.015 0.453739 550.441 1.36113 549.32L5.25756 544.369L20.2161 525.248L48.1583 521.244L47.9982 521.444C47.6245 515.133 47.2242 508.381 46.7839 500.761V500.481L47.0641 500.548L90.4719 510.342L90.1784 510.529C92.3312 502.861 94.5552 494.854 96.8503 486.51L96.917 486.257L97.1706 486.323L132.305 494.677H132.118L171.59 476.596L171.75 476.529L171.897 476.622L180.53 482.347H180.303L229.903 474.754L229.663 474.914L247.21 444.036V443.943H247.317L281.037 427.37L281.264 427.25L281.437 427.423L297.77 443.276L305.563 450.868L304.976 451.095C305.403 444.717 305.83 438.378 306.23 432.507V432.24H306.497L339.056 426.703H339.203L339.323 426.809L347.863 433.815L347.356 433.908C349.371 430.492 351.359 427.09 353.174 423.994L353.267 423.834H353.468L399.824 423.727L399.624 423.794L459.992 380.279L460.086 380.199H460.206L515.063 388.445H514.889L583.437 342.596H583.504H583.57L613.674 353.404L621.48 356.233C623.362 356.847 624.176 357.194 624.176 357.194Z" fill="#263238"/>
<path d="M453.654 498.346L453.814 498.079L454.334 497.292L456.403 494.276L464.262 483.001H464.356L532.41 472.499L561.5 468.082H561.686L561.806 468.229L568.131 475.675L567.998 475.581L588.014 483.001H588.107V483.094L597.061 500.708C598.089 502.776 598.903 504.378 599.476 505.525C599.73 506.046 599.93 506.459 600.077 506.779C600.155 506.919 600.217 507.067 600.264 507.22C600.169 507.093 600.084 506.959 600.01 506.819C599.85 506.499 599.623 506.099 599.343 505.592L596.821 500.841L587.654 483.321L587.8 483.441L567.785 476.142H567.704V476.075L561.353 468.656L561.66 468.763L532.57 473.206L464.516 483.441L464.649 483.361L456.643 494.516L454.481 497.465L453.921 498.213C453.734 498.279 453.667 498.359 453.654 498.346Z" fill="#263238"/>
<path d="M522.326 245.342L109.774 372.812L131.782 444.042L544.335 316.572L522.326 245.342Z" fill="#FFC727"/>
<g opacity="0.6">
<path d="M522.326 245.342L109.774 372.812L131.782 444.042L544.335 316.572L522.326 245.342Z" fill="black"/>
</g>
<path d="M72.4022 320.444L52.5633 326.57C47.5356 328.122 44.7184 333.457 46.2709 338.484L71.6134 420.556C73.1659 425.583 78.5002 428.401 83.5279 426.848L103.367 420.722C108.394 419.17 111.212 413.835 109.659 408.808L84.3166 326.736C82.7642 321.709 77.4299 318.891 72.4022 320.444Z" fill="#455A64"/>
<path d="M78.7824 426.969C78.6335 426.428 78.6152 425.859 78.7289 425.309C78.8425 424.759 79.085 424.244 79.4363 423.806C79.9433 423.006 80.2102 422.472 79.97 421.738C79.7298 421.004 79.2361 420.697 78.3688 420.31C77.8232 420.161 77.3242 419.876 76.9184 419.483C76.5126 419.089 76.2131 418.598 76.0479 418.058C75.8827 417.517 75.8571 416.943 75.9736 416.389C76.0901 415.836 76.3449 415.321 76.7141 414.893C77.2078 414.092 77.4881 413.558 77.2345 412.824C76.981 412.09 76.5006 411.783 75.6466 411.396C75.101 411.247 74.6021 410.963 74.1962 410.569C73.7904 410.175 73.4909 409.685 73.3257 409.144C73.1605 408.603 73.135 408.029 73.2515 407.476C73.368 406.922 73.6227 406.407 73.9919 405.979C74.4857 405.192 74.7526 404.644 74.5124 403.91C74.2722 403.177 73.7784 402.87 72.9244 402.496C72.3883 402.327 71.8992 402.035 71.496 401.644C71.0928 401.252 70.7869 400.772 70.6026 400.241C70.4555 399.699 70.4393 399.129 70.5553 398.579C70.6713 398.03 70.9162 397.515 71.2698 397.078C71.7635 396.278 72.0304 395.744 71.7902 395.01C71.55 394.276 71.0563 393.969 70.2023 393.582C69.6567 393.433 69.1577 393.149 68.7519 392.755C68.3461 392.361 68.0466 391.871 67.8814 391.33C67.7162 390.789 67.6907 390.215 67.8072 389.661C67.9237 389.108 68.1784 388.593 68.5476 388.165C69.0413 387.377 69.3082 386.83 69.068 386.096C68.8278 385.362 68.3341 385.056 67.4801 384.682C66.9482 384.517 66.4618 384.231 66.0589 383.847C65.6561 383.463 65.3478 382.99 65.1583 382.467C65.0112 381.924 64.995 381.355 65.111 380.805C65.227 380.255 65.4719 379.741 65.8255 379.304C66.3192 378.504 66.5861 377.97 66.3459 377.236C66.1057 376.502 65.6119 376.182 64.7579 375.808C64.2135 375.658 63.7157 375.373 63.3105 374.979C62.9053 374.586 62.6057 374.096 62.4395 373.556C62.2733 373.016 62.2458 372.443 62.3595 371.89C62.4731 371.337 62.7244 370.821 63.0899 370.391C63.597 369.59 63.8639 369.056 63.6237 368.322C63.3835 367.588 62.8764 367.268 62.0224 366.894C61.4767 366.743 60.9779 366.457 60.5724 366.062C60.1669 365.667 59.8678 365.175 59.7027 364.634C59.5377 364.092 59.5121 363.517 59.6284 362.963C59.7446 362.409 59.999 361.893 60.3678 361.463C60.8615 360.676 61.1284 360.129 60.8882 359.395C60.648 358.661 60.1543 358.354 59.3003 357.967C58.7547 357.818 58.2557 357.534 57.8499 357.14C57.4441 356.746 57.1446 356.256 56.9794 355.715C56.8142 355.174 56.7887 354.6 56.9052 354.046C57.0217 353.493 57.2764 352.978 57.6456 352.55C58.1393 351.762 58.4062 351.215 58.166 350.481C57.9258 349.747 57.4321 349.441 56.5781 349.054C56.0385 348.892 55.5458 348.602 55.1417 348.21C54.7375 347.817 54.4338 347.333 54.2563 346.798C54.1074 346.257 54.089 345.688 54.2027 345.139C54.3164 344.589 54.5588 344.074 54.9101 343.636C55.4172 342.835 55.6841 342.302 55.4439 341.554C55.2037 340.807 54.6966 340.513 53.8426 340.14C53.294 339.985 52.7937 339.694 52.3887 339.293C51.9837 338.892 51.6872 338.395 51.5271 337.848C51.367 337.301 51.3486 336.722 51.4735 336.166C51.5984 335.61 51.8626 335.095 52.2413 334.669C52.7351 333.868 53.0019 333.334 52.7617 332.587C52.5215 331.84 52.0278 331.546 51.1605 331.159C50.6254 330.989 50.1371 330.696 49.7342 330.305C49.3313 329.914 49.0248 329.434 48.8386 328.904L50.173 328.504C50.4132 329.305 50.9069 329.558 51.7609 329.945C52.3 330.111 52.7923 330.402 53.198 330.794C53.6038 331.185 53.9114 331.667 54.0961 332.2C54.239 332.745 54.253 333.316 54.1372 333.867C54.0214 334.418 53.7789 334.935 53.4289 335.376C52.9352 336.177 52.6683 336.71 52.9085 337.444C53.1487 338.178 53.6424 338.498 54.4964 338.872C55.0422 339.023 55.5409 339.31 55.9465 339.705C56.352 340.1 56.6511 340.591 56.8162 341.133C56.9812 341.675 57.0068 342.249 56.8905 342.803C56.7742 343.358 56.5199 343.873 56.1511 344.303C55.6574 345.09 55.3905 345.638 55.6307 346.371C55.8709 347.105 56.3646 347.412 57.232 347.799C57.7775 347.948 58.2765 348.233 58.6823 348.627C59.0881 349.021 59.3876 349.511 59.5528 350.052C59.718 350.593 59.7436 351.167 59.6271 351.72C59.5106 352.274 59.2558 352.788 58.8866 353.217C58.3929 354.017 58.1127 354.551 58.3662 355.285C58.6197 356.019 59.1001 356.326 59.9541 356.713C60.4997 356.862 60.9987 357.147 61.4045 357.541C61.8103 357.935 62.1098 358.425 62.275 358.966C62.4402 359.507 62.4657 360.08 62.3492 360.634C62.2327 361.187 61.978 361.702 61.6088 362.131C61.115 362.931 60.8482 363.465 61.0884 364.212C61.3285 364.96 61.8223 365.253 62.6763 365.627C63.2155 365.788 63.7057 366.081 64.102 366.48C64.4984 366.88 64.7882 367.372 64.9449 367.913C65.1015 368.453 65.1201 369.024 64.9989 369.574C64.8776 370.123 64.6204 370.633 64.2509 371.058C63.7571 371.845 63.4903 372.392 63.7305 373.126C63.9706 373.86 64.4644 374.167 65.3317 374.54C65.872 374.7 66.3636 374.992 66.7615 375.391C67.1594 375.789 67.4507 376.282 67.6088 376.822C67.7668 377.363 67.7866 377.935 67.6662 378.485C67.5458 379.035 67.2891 379.546 66.9197 379.971C66.4259 380.759 66.1457 381.306 66.3859 382.04C66.6261 382.774 67.1332 383.081 67.9872 383.454C68.5327 383.603 69.0317 383.888 69.4375 384.282C69.8434 384.676 70.1428 385.166 70.308 385.707C70.4732 386.248 70.4988 386.822 70.3823 387.375C70.2658 387.929 70.011 388.443 69.6418 388.872C69.1481 389.672 68.8812 390.206 69.1214 390.94C69.3616 391.674 69.8553 391.981 70.7093 392.368C71.2549 392.517 71.7539 392.802 72.1597 393.196C72.5655 393.59 72.865 394.08 73.0302 394.621C73.1954 395.162 73.2209 395.735 73.1044 396.289C72.9879 396.842 72.7332 397.357 72.364 397.786C71.8703 398.586 71.6034 399.12 71.8436 399.854C72.0838 400.588 72.5775 400.895 73.4315 401.268C73.9676 401.437 74.4568 401.729 74.8599 402.121C75.2631 402.512 75.569 402.993 75.7533 403.524C75.9004 404.066 75.9166 404.635 75.8006 405.185C75.6846 405.735 75.4397 406.249 75.0861 406.686C74.5924 407.487 74.3255 408.02 74.5657 408.754C74.8059 409.488 75.2996 409.795 76.1537 410.182C76.6992 410.331 77.1982 410.616 77.604 411.01C78.0098 411.404 78.3093 411.894 78.4745 412.435C78.6397 412.976 78.6653 413.55 78.5488 414.103C78.4323 414.656 78.1775 415.171 77.8083 415.6C77.3146 416.4 77.0477 416.934 77.2879 417.668C77.5281 418.402 78.0218 418.709 78.8758 419.096C79.4214 419.245 79.9204 419.53 80.3262 419.924C80.732 420.317 81.0315 420.808 81.1967 421.349C81.3619 421.889 81.3874 422.463 81.2709 423.017C81.1544 423.57 80.8997 424.085 80.5305 424.514C80.0367 425.301 79.7699 425.848 80.0101 426.582L78.7824 426.969Z" fill="#263238"/>
<path d="M85.4812 426.235C85.3302 425.686 85.3095 425.11 85.4207 424.552C85.5319 423.993 85.7719 423.469 86.1217 423.019C86.3669 422.728 86.5405 422.383 86.6285 422.012C86.7166 421.641 86.7166 421.255 86.6287 420.884C86.3619 420.03 85.7614 419.764 85.0008 419.417C84.4507 419.258 83.9487 418.966 83.5402 418.565C83.1318 418.163 82.8298 417.667 82.6615 417.12C82.4933 416.573 82.4641 415.992 82.5767 415.431C82.6892 414.87 82.9399 414.346 83.3061 413.906C83.5541 413.616 83.7295 413.271 83.8177 412.899C83.9059 412.528 83.9043 412.141 83.8132 411.771C83.5463 410.916 82.9458 410.65 82.1852 410.303C81.6351 410.144 81.1331 409.852 80.7247 409.451C80.3162 409.05 80.0142 408.553 79.846 408.006C79.6777 407.459 79.6486 406.878 79.7611 406.317C79.8736 405.756 80.1243 405.232 80.4905 404.792C80.7384 404.504 80.9138 404.162 81.002 403.792C81.0903 403.423 81.0887 403.038 80.9976 402.67C80.7307 401.816 80.1302 401.536 79.383 401.189C78.8318 401.032 78.3284 400.741 77.9184 400.34C77.5084 399.94 77.2048 399.444 77.0352 398.896C76.8656 398.349 76.8352 397.768 76.947 397.206C77.0587 396.644 77.3089 396.119 77.675 395.678C77.9228 395.39 78.0982 395.048 78.1865 394.679C78.2747 394.309 78.2732 393.924 78.182 393.556C77.9152 392.702 77.3147 392.422 76.5674 392.075C76.0255 391.903 75.5311 391.608 75.1234 391.212C74.7157 390.815 74.406 390.33 74.2189 389.793C74.071 389.244 74.0519 388.668 74.163 388.11C74.2741 387.552 74.5124 387.028 74.8594 386.577C75.1074 386.287 75.2828 385.942 75.371 385.571C75.4592 385.2 75.4576 384.813 75.3665 384.442C75.0996 383.601 74.5124 383.321 73.7518 382.974C73.2027 382.815 72.7018 382.522 72.2939 382.121C71.886 381.72 71.5838 381.225 71.4146 380.679C71.2453 380.132 71.2142 379.553 71.324 378.992C71.4338 378.43 71.6811 377.905 72.0438 377.463C72.2947 377.178 72.472 376.835 72.5603 376.465C72.6487 376.096 72.6455 375.71 72.5509 375.342C72.2974 374.488 71.6969 374.207 70.9363 373.86C70.3954 373.686 69.9028 373.387 69.4974 372.989C69.092 372.59 68.7851 372.103 68.6011 371.565C68.4514 371.017 68.4301 370.442 68.5389 369.884C68.6476 369.326 68.8835 368.801 69.2283 368.349C69.4791 368.064 69.6564 367.721 69.7448 367.351C69.8331 366.982 69.8299 366.596 69.7353 366.228C69.4818 365.374 68.8813 365.093 68.1207 364.746C67.5716 364.587 67.0706 364.294 66.6627 363.893C66.2548 363.492 65.9527 362.997 65.7834 362.451C65.6142 361.905 65.583 361.325 65.6929 360.764C65.8027 360.203 66.05 359.677 66.4127 359.235C66.6625 358.949 66.8392 358.607 66.9275 358.237C67.0158 357.868 67.0132 357.482 66.9197 357.114C66.6529 356.26 66.0657 355.993 65.3051 355.646C64.756 355.486 64.2551 355.193 63.8472 354.793C63.4393 354.392 63.1371 353.896 62.9679 353.35C62.7986 352.804 62.7675 352.224 62.8773 351.663C62.9871 351.102 63.2344 350.577 63.5971 350.135C63.8481 349.847 64.0253 349.502 64.1137 349.13C64.202 348.758 64.1987 348.37 64.1042 348C63.8506 347.146 63.2502 346.879 62.4896 346.532C61.9405 346.373 61.4395 346.079 61.0316 345.679C60.6237 345.278 60.3216 344.782 60.1523 344.236C59.983 343.69 59.9519 343.11 60.0617 342.549C60.1715 341.988 60.4189 341.463 60.7815 341.021C61.0325 340.733 61.2098 340.388 61.2981 340.016C61.3864 339.644 61.3831 339.256 61.2886 338.886C61.0217 338.032 60.4346 337.752 59.674 337.405C59.1249 337.245 58.6239 336.952 58.216 336.551C57.8081 336.151 57.506 335.655 57.3367 335.109C57.1675 334.563 57.1363 333.983 57.2462 333.422C57.356 332.861 57.6033 332.336 57.966 331.894C58.214 331.604 58.3894 331.259 58.4776 330.888C58.5658 330.516 58.5642 330.129 58.473 329.759C58.2062 328.891 57.6057 328.624 56.8451 328.278C56.3038 328.1 55.8112 327.799 55.406 327.398C55.0008 326.997 54.694 326.508 54.5099 325.969L55.8443 325.582C56.0978 326.436 56.6983 326.716 57.4589 327.063C58.008 327.223 58.5089 327.516 58.9169 327.917C59.3248 328.317 59.6269 328.813 59.7962 329.359C59.9654 329.905 59.9966 330.485 59.8867 331.046C59.7769 331.607 59.5296 332.132 59.1669 332.574C58.9187 332.867 58.7433 333.214 58.6552 333.587C58.5671 333.961 58.5687 334.35 58.6599 334.723C58.9267 335.577 59.5272 335.844 60.2745 336.19C60.8257 336.347 61.3291 336.639 61.7391 337.039C62.149 337.439 62.4526 337.936 62.6222 338.483C62.7919 339.03 62.8222 339.611 62.7105 340.173C62.5988 340.735 62.3485 341.261 61.9825 341.702C61.7344 341.992 61.5591 342.336 61.4709 342.708C61.3827 343.079 61.3843 343.466 61.4754 343.837C61.7423 344.691 62.3428 344.971 63.1034 345.318C63.6535 345.476 64.1555 345.769 64.5639 346.17C64.9724 346.571 65.2744 347.067 65.4426 347.614C65.6109 348.162 65.64 348.742 65.5275 349.303C65.4149 349.865 65.1642 350.389 64.7981 350.829C64.5502 351.116 64.3748 351.459 64.2866 351.828C64.1983 352.197 64.1998 352.582 64.291 352.95C64.5579 353.804 65.1583 354.085 65.919 354.432C66.4691 354.59 66.9711 354.883 67.3795 355.284C67.7879 355.685 68.0899 356.181 68.2582 356.728C68.4264 357.276 68.4556 357.856 68.3431 358.417C68.2305 358.978 67.9798 359.503 67.6136 359.943C67.3656 360.233 67.1902 360.578 67.102 360.949C67.0138 361.32 67.0154 361.707 67.1066 362.078C67.3734 362.932 67.9739 363.199 68.7345 363.546C69.2846 363.704 69.7866 363.997 70.1951 364.398C70.6035 364.799 70.9055 365.295 71.0738 365.842C71.242 366.389 71.2712 366.97 71.1586 367.531C71.0461 368.092 70.7954 368.617 70.4292 369.057C70.184 369.348 70.0104 369.693 69.9223 370.064C69.8343 370.435 69.8342 370.821 69.9221 371.192C70.189 372.046 70.7895 372.312 71.5501 372.659C72.1002 372.818 72.6022 373.11 73.0106 373.512C73.4191 373.913 73.7211 374.409 73.8893 374.956C74.0576 375.503 74.0867 376.084 73.9742 376.645C73.8617 377.206 73.6109 377.731 73.2448 378.17C72.9969 378.458 72.8215 378.801 72.7333 379.17C72.645 379.539 72.6466 379.924 72.7377 380.292C73.0046 381.146 73.6051 381.426 74.3657 381.773C74.9158 381.932 75.4178 382.224 75.8262 382.625C76.2346 383.026 76.5367 383.523 76.7049 384.07C76.8731 384.617 76.9023 385.198 76.7898 385.759C76.6772 386.32 76.4265 386.844 76.0603 387.284C75.8125 387.572 75.637 387.914 75.5488 388.284C75.4606 388.653 75.4621 389.038 75.5533 389.406C75.8202 390.26 76.4206 390.54 77.1679 390.887C77.7189 391.042 78.2225 391.332 78.6327 391.731C79.043 392.13 79.3468 392.625 79.5166 393.172C79.6864 393.718 79.7167 394.299 79.6048 394.86C79.4929 395.421 79.2423 395.945 78.8759 396.385C78.6279 396.675 78.4525 397.02 78.3643 397.391C78.2761 397.762 78.2777 398.149 78.3688 398.52C78.6357 399.374 79.2229 399.641 79.9835 399.988C80.5226 400.159 81.0114 400.46 81.4069 400.865C81.8025 401.269 82.0927 401.765 82.2521 402.308C82.4115 402.85 82.4352 403.424 82.3212 403.978C82.2072 404.532 81.9589 405.05 81.5981 405.486C81.3471 405.774 81.1699 406.119 81.0815 406.491C80.9932 406.862 80.9965 407.25 81.091 407.621C81.3579 408.461 81.945 408.741 82.7056 409.088C83.2547 409.248 83.7557 409.541 84.1636 409.942C84.5715 410.342 84.8736 410.838 85.0429 411.384C85.2122 411.93 85.2433 412.51 85.1335 413.071C85.0236 413.632 84.7763 414.157 84.4136 414.599C84.1628 414.885 83.9855 415.228 83.8971 415.597C83.8088 415.967 83.812 416.353 83.9066 416.721C84.1601 417.575 84.7606 417.855 85.5212 418.202C86.069 418.361 86.5686 418.654 86.9753 419.054C87.3819 419.454 87.6828 419.949 87.8508 420.494C88.0189 421.039 88.0488 421.618 87.938 422.177C87.8271 422.737 87.579 423.26 87.2159 423.7C86.9701 423.991 86.7972 424.337 86.7113 424.708C86.6255 425.079 86.6292 425.466 86.7221 425.835L85.4812 426.235Z" fill="#263238"/>
<path d="M91.8195 424.274C91.6667 423.726 91.6438 423.15 91.7527 422.591C91.8616 422.033 92.0992 421.508 92.4467 421.058C92.6975 420.772 92.8748 420.429 92.9632 420.06C93.0516 419.69 93.0483 419.304 92.9538 418.936C92.7002 418.082 92.0997 417.802 91.3391 417.455C90.7857 417.302 90.2794 417.012 89.8664 416.613C89.4533 416.214 89.1466 415.718 88.9742 415.171C88.8018 414.623 88.7692 414.041 88.8792 413.477C88.9893 412.914 89.2386 412.386 89.6044 411.944C89.851 411.656 90.0246 411.313 90.1105 410.943C90.1964 410.574 90.1922 410.189 90.0981 409.822C89.8446 408.968 89.2441 408.688 88.4835 408.341C87.9357 408.182 87.4361 407.889 87.0294 407.489C86.6228 407.089 86.3219 406.594 86.1539 406.049C85.9859 405.504 85.9559 404.926 86.0667 404.366C86.1776 403.806 86.4257 403.283 86.7888 402.843C87.0341 402.552 87.2077 402.207 87.2957 401.836C87.3838 401.465 87.3838 401.079 87.2959 400.708C87.029 399.854 86.4286 399.574 85.668 399.227C85.1202 399.068 84.6205 398.775 84.2139 398.375C83.8072 397.975 83.5064 397.48 83.3383 396.935C83.1703 396.39 83.1403 395.812 83.2512 395.252C83.362 394.692 83.6101 394.169 83.9733 393.729C84.2185 393.438 84.3921 393.093 84.4801 392.722C84.5682 392.351 84.5683 391.965 84.4804 391.594C84.2135 390.74 83.613 390.473 82.8524 390.126C82.3023 389.968 81.8003 389.675 81.3918 389.274C80.9834 388.873 80.6814 388.377 80.5131 387.83C80.3449 387.283 80.3157 386.702 80.4283 386.141C80.5408 385.58 80.7915 385.055 81.1577 384.615C81.4056 384.328 81.581 383.985 81.6692 383.616C81.7574 383.247 81.7559 382.862 81.6648 382.494C81.3979 381.64 80.7974 381.359 80.0502 381.013C79.4991 380.858 78.9956 380.568 78.5853 380.169C78.1751 379.77 77.8712 379.275 77.7014 378.728C77.5316 378.182 77.5013 377.601 77.6132 377.04C77.7251 376.479 77.9757 375.954 78.3421 375.515C78.5902 375.225 78.7656 374.88 78.8538 374.509C78.9419 374.137 78.9404 373.75 78.8492 373.38C78.5823 372.526 77.9819 372.259 77.2346 371.899C76.6961 371.736 76.206 371.443 75.8075 371.045C75.409 370.648 75.1144 370.159 74.9496 369.621C74.7848 369.083 74.7548 368.513 74.8624 367.961C74.97 367.408 75.2119 366.891 75.5666 366.454C75.8147 366.164 75.99 365.819 76.0782 365.448C76.1664 365.077 76.1648 364.69 76.0737 364.319C75.8068 363.465 75.2063 363.185 74.4591 362.851C73.9078 362.695 73.4044 362.403 72.9944 362.003C72.5845 361.603 72.2809 361.106 72.1113 360.559C71.9416 360.012 71.9113 359.431 72.023 358.869C72.1347 358.306 72.385 357.781 72.751 357.34C72.9991 357.05 73.1745 356.705 73.2626 356.334C73.3508 355.963 73.3493 355.576 73.2581 355.205C72.9912 354.351 72.3907 354.071 71.6435 353.724C71.0923 353.568 70.5889 353.276 70.1789 352.876C69.7689 352.475 69.4653 351.979 69.2957 351.432C69.1261 350.884 69.0957 350.303 69.2075 349.741C69.3192 349.179 69.5694 348.654 69.9355 348.213C70.1833 347.926 70.3587 347.583 70.447 347.214C70.5352 346.845 70.5337 346.46 70.4425 346.091C70.1756 345.237 69.5752 344.957 68.8279 344.61C68.2767 344.454 67.7733 344.162 67.3633 343.762C66.9533 343.361 66.6498 342.865 66.4801 342.318C66.3105 341.77 66.2802 341.189 66.3919 340.627C66.5036 340.065 66.7538 339.54 67.1199 339.099C67.3679 338.809 67.5433 338.464 67.6315 338.093C67.7197 337.722 67.7181 337.335 67.627 336.964C67.3601 336.11 66.7596 335.843 65.999 335.496C65.4349 335.347 64.9179 335.057 64.4962 334.653C64.0745 334.25 63.7618 333.746 63.5873 333.189C63.4128 332.632 63.3821 332.04 63.4981 331.469C63.6142 330.897 63.8732 330.363 64.2509 329.919C64.4962 329.627 64.6698 329.282 64.7578 328.911C64.8459 328.541 64.8459 328.154 64.758 327.784C64.4911 326.93 63.8907 326.649 63.1301 326.302C62.5892 326.128 62.0965 325.829 61.6912 325.431C61.2858 325.032 60.9789 324.545 60.7949 324.007L62.0625 323.607C62.3294 324.461 62.9299 324.741 63.6905 325.088C64.2398 325.25 64.7406 325.544 65.1483 325.946C65.556 326.348 65.8578 326.845 66.0269 327.392C66.196 327.939 66.2272 328.519 66.1175 329.081C66.0079 329.643 65.7609 330.169 65.3985 330.613C65.1476 330.901 64.9703 331.246 64.882 331.618C64.7937 331.989 64.7969 332.377 64.8915 332.747C65.1583 333.602 65.7455 333.882 66.5061 334.229C67.0631 334.381 67.573 334.671 67.9891 335.072C68.4053 335.472 68.7144 335.971 68.8883 336.521C69.0621 337.072 69.0952 337.658 68.9844 338.225C68.8736 338.792 68.6226 339.322 68.2541 339.766C68.0051 340.056 67.8291 340.401 67.7409 340.772C67.6527 341.144 67.6548 341.531 67.7471 341.901C68.0139 342.755 68.6144 343.022 69.3617 343.369C69.9129 343.526 70.4163 343.818 70.8263 344.218C71.2362 344.618 71.5398 345.115 71.7094 345.662C71.8791 346.209 71.9094 346.79 71.7977 347.352C71.686 347.914 71.4357 348.439 71.0697 348.88C70.8216 349.17 70.6463 349.515 70.5581 349.887C70.4699 350.258 70.4715 350.645 70.5626 351.015C70.8295 351.869 71.4166 352.136 72.1772 352.483C72.7285 352.64 73.2319 352.931 73.6418 353.332C74.0518 353.732 74.3554 354.228 74.525 354.776C74.6946 355.323 74.725 355.904 74.6133 356.466C74.5015 357.028 74.2513 357.553 73.8853 357.994C73.6372 358.284 73.4618 358.629 73.3737 359C73.2855 359.372 73.287 359.759 73.3782 360.129C73.6451 360.983 74.2456 361.264 74.9928 361.61C75.5438 361.765 76.0474 362.055 76.4577 362.454C76.8679 362.853 77.1717 363.348 77.3415 363.895C77.5113 364.441 77.5417 365.022 77.4297 365.583C77.3178 366.144 77.0673 366.669 76.7008 367.108C76.4528 367.398 76.2774 367.743 76.1892 368.114C76.101 368.486 76.1026 368.873 76.1938 369.243C76.4606 370.097 77.0611 370.377 77.8084 370.724C78.3573 370.882 78.8584 371.173 79.2665 371.573C79.6747 371.972 79.9771 372.467 80.1465 373.012C80.3159 373.557 80.3471 374.136 80.2371 374.697C80.1271 375.257 79.8794 375.781 79.5164 376.222C79.2684 376.512 79.093 376.857 79.0048 377.228C78.9166 377.6 78.9182 377.987 79.0093 378.357C79.2762 379.211 79.8633 379.478 80.6239 379.825C81.173 379.984 81.674 380.278 82.0819 380.678C82.4898 381.079 82.792 381.575 82.9612 382.121C83.1305 382.667 83.1616 383.247 83.0518 383.808C82.942 384.369 82.6946 384.894 82.332 385.336C82.0811 385.622 81.9038 385.964 81.8155 386.334C81.7271 386.704 81.7303 387.089 81.8249 387.458C82.0784 388.312 82.6789 388.592 83.4395 388.939C83.9954 389.093 84.5035 389.385 84.9172 389.788C85.3308 390.19 85.6367 390.69 85.8068 391.241C85.9768 391.792 86.0056 392.378 85.8904 392.943C85.7752 393.508 85.5198 394.036 85.1475 394.477C84.9023 394.768 84.7287 395.113 84.6407 395.484C84.5526 395.855 84.5526 396.241 84.6405 396.612C84.9074 397.466 85.5078 397.733 86.2684 398.079C86.8185 398.238 87.3205 398.53 87.729 398.931C88.1374 399.333 88.4394 399.829 88.6077 400.376C88.7759 400.923 88.8051 401.504 88.6925 402.065C88.58 402.626 88.3293 403.151 87.9631 403.59C87.7179 403.882 87.5443 404.227 87.4562 404.598C87.3682 404.969 87.3681 405.355 87.456 405.725C87.7229 406.58 88.3234 406.846 89.084 407.193C89.6341 407.352 90.1361 407.644 90.5445 408.045C90.953 408.446 91.255 408.943 91.4232 409.49C91.5915 410.037 91.6207 410.618 91.5081 411.179C91.3956 411.74 91.1449 412.264 90.7787 412.704C90.5334 412.996 90.3599 413.341 90.2718 413.712C90.1838 414.082 90.1837 414.469 90.2716 414.839C90.5385 415.693 91.139 415.96 91.8996 416.307C92.4393 416.468 92.9313 416.759 93.3324 417.155C93.7334 417.55 94.0313 418.038 94.1999 418.576C94.3685 419.113 94.4027 419.684 94.2994 420.237C94.1962 420.791 93.9586 421.311 93.6076 421.752C93.3626 422.041 93.189 422.383 93.1009 422.752C93.0128 423.121 93.0127 423.505 93.1005 423.873L91.8195 424.274Z" fill="#263238"/>
<path d="M98.1446 422.312C97.9937 421.765 97.973 421.191 98.0842 420.635C98.1955 420.078 98.4355 419.556 98.7851 419.109C99.0331 418.819 99.2085 418.475 99.2967 418.103C99.3849 417.732 99.3833 417.345 99.2921 416.974C99.0253 416.12 98.4248 415.84 97.6775 415.493C97.1286 415.336 96.6275 415.044 96.2194 414.645C95.8112 414.245 95.5088 413.751 95.3394 413.206C95.1699 412.66 95.1388 412.081 95.2488 411.521C95.3588 410.961 95.6065 410.436 95.9695 409.996C96.2175 409.706 96.3929 409.361 96.4811 408.989C96.5693 408.618 96.5677 408.231 96.4766 407.861C96.2097 407.007 95.6226 406.74 94.8619 406.393C94.3129 406.233 93.8119 405.94 93.404 405.539C92.9961 405.139 92.6939 404.643 92.5247 404.097C92.3554 403.551 92.3243 402.971 92.4341 402.41C92.5439 401.849 92.7913 401.324 93.1539 400.882C93.4049 400.593 93.5821 400.249 93.6705 399.877C93.7588 399.505 93.7555 399.117 93.661 398.747C93.3941 397.893 92.807 397.626 92.0464 397.279C91.5041 397.117 91.01 396.824 90.6074 396.426C90.2048 396.028 89.9061 395.538 89.7374 394.998C89.5688 394.457 89.5353 393.884 89.6401 393.328C89.7449 392.772 89.9847 392.25 90.3384 391.808C90.5892 391.522 90.7665 391.18 90.8549 390.81C90.9432 390.44 90.94 390.054 90.8454 389.686C90.5919 388.832 89.9914 388.552 89.2308 388.205C88.683 388.046 88.1833 387.753 87.7767 387.353C87.3701 386.953 87.0692 386.458 86.9012 385.913C86.7331 385.368 86.7032 384.79 86.814 384.23C86.9249 383.67 87.173 383.147 87.5361 382.707C87.7814 382.416 87.9549 382.071 88.043 381.7C88.131 381.329 88.1311 380.943 88.0432 380.572C87.7763 379.718 87.1758 379.451 86.4152 379.104C85.8651 378.946 85.3631 378.653 84.9547 378.252C84.5462 377.851 84.2442 377.355 84.076 376.808C83.9078 376.26 83.8786 375.68 83.9911 375.119C84.1037 374.558 84.3544 374.033 84.7205 373.593C84.9658 373.302 85.1394 372.957 85.2274 372.586C85.3155 372.215 85.3155 371.829 85.2276 371.458C84.9607 370.604 84.3603 370.337 83.5997 369.99C83.0495 369.832 82.5476 369.539 82.1391 369.138C81.7307 368.737 81.4287 368.241 81.2604 367.694C81.0922 367.147 81.063 366.566 81.1756 366.005C81.2881 365.444 81.5388 364.919 81.905 364.479C82.1502 364.188 82.3238 363.843 82.4118 363.472C82.4999 363.101 82.5 362.715 82.4121 362.344C82.1452 361.49 81.5447 361.223 80.7841 360.877C80.234 360.718 79.732 360.426 79.3235 360.024C78.9151 359.623 78.6131 359.127 78.4449 358.58C78.2766 358.033 78.2474 357.452 78.36 356.891C78.4725 356.33 78.7232 355.805 79.0894 355.366C79.3347 355.074 79.5082 354.729 79.5963 354.358C79.6843 353.987 79.6844 353.601 79.5965 353.23C79.3296 352.376 78.7291 352.11 77.9685 351.763C77.4282 351.583 76.9365 351.281 76.5316 350.881C76.1266 350.48 75.8193 349.992 75.6333 349.454C75.4835 348.907 75.4634 348.333 75.5746 347.777C75.6858 347.221 75.9252 346.699 76.2738 346.252C76.5191 345.96 76.6927 345.615 76.7807 345.244C76.8688 344.874 76.8688 344.487 76.7809 344.117C76.514 343.263 75.9136 342.996 75.1529 342.649C74.6126 342.469 74.121 342.167 73.716 341.767C73.3111 341.367 73.0037 340.878 72.8178 340.34C72.6669 339.793 72.6462 339.219 72.7574 338.663C72.8687 338.107 73.1087 337.584 73.4583 337.138C73.7035 336.846 73.8771 336.501 73.9651 336.13C74.0532 335.76 74.0533 335.373 73.9653 335.003C73.6985 334.149 73.098 333.868 72.3374 333.521C71.7965 333.347 71.3039 333.048 70.8985 332.65C70.4931 332.251 70.1862 331.764 70.0022 331.226C69.8525 330.678 69.8312 330.103 69.94 329.545C70.0488 328.987 70.2847 328.462 70.6294 328.01C70.8803 327.722 71.0576 327.377 71.1459 327.005C71.2342 326.633 71.231 326.246 71.1364 325.875C70.8696 325.008 70.2691 324.741 69.5218 324.381C68.978 324.209 68.4822 323.912 68.0743 323.513C67.6663 323.114 67.3577 322.625 67.1733 322.086L68.5077 321.699C68.7746 322.553 69.375 322.82 70.1223 323.18C70.6735 323.336 71.1769 323.628 71.5869 324.029C71.9969 324.429 72.3004 324.925 72.4701 325.472C72.6397 326.02 72.67 326.601 72.5583 327.163C72.4466 327.725 72.1964 328.25 71.8303 328.691C71.5851 328.983 71.4115 329.328 71.3234 329.698C71.2354 330.069 71.2353 330.455 71.3232 330.826C71.5901 331.68 72.1906 331.96 72.9512 332.307C73.5013 332.465 74.0033 332.758 74.4117 333.159C74.8202 333.56 75.1222 334.057 75.2904 334.604C75.4587 335.151 75.4878 335.731 75.3753 336.293C75.2628 336.854 75.0121 337.378 74.6459 337.818C74.4001 338.109 74.2272 338.455 74.1414 338.826C74.0555 339.197 74.0592 339.584 74.1522 339.953C74.4057 340.807 75.0062 341.087 75.7668 341.434C76.3146 341.594 76.8142 341.886 77.2209 342.286C77.6275 342.686 77.9284 343.181 78.0964 343.726C78.2644 344.271 78.2944 344.85 78.1835 345.409C78.0727 345.969 77.8246 346.492 77.4615 346.932C77.2157 347.223 77.0428 347.569 76.9569 347.94C76.8711 348.311 76.8748 348.698 76.9677 349.067C77.2213 349.921 77.8217 350.201 78.5823 350.548C79.1244 350.711 79.6181 351.005 80.0196 351.403C80.4212 351.802 80.7182 352.294 80.8845 352.835C81.0507 353.376 81.081 353.949 80.9728 354.505C80.8645 355.06 80.6209 355.58 80.2637 356.019C80.0171 356.307 79.8435 356.651 79.7576 357.02C79.6717 357.389 79.6759 357.774 79.7699 358.141C80.0235 358.995 80.624 359.275 81.3846 359.622C81.9291 359.786 82.4245 360.082 82.8266 360.485C83.2286 360.887 83.5248 361.382 83.6887 361.927C83.8526 362.471 83.8791 363.048 83.7657 363.605C83.6524 364.162 83.4028 364.683 83.0392 365.12C82.7927 365.408 82.6191 365.751 82.5331 366.12C82.4472 366.49 82.4514 366.874 82.5455 367.242C82.799 368.096 83.3995 368.376 84.1601 368.723C84.7102 368.881 85.2122 369.174 85.6206 369.575C86.0291 369.976 86.3311 370.472 86.4993 371.02C86.6676 371.567 86.6968 372.147 86.5842 372.708C86.4717 373.27 86.221 373.794 85.8548 374.234C85.6082 374.522 85.4346 374.865 85.3487 375.234C85.2628 375.604 85.267 375.988 85.3611 376.356C85.6146 377.21 86.2151 377.49 86.9757 377.837C87.5235 377.996 88.0231 378.289 88.4298 378.689C88.8364 379.089 89.1373 379.584 89.3053 380.129C89.4733 380.674 89.5033 381.252 89.3925 381.812C89.2816 382.371 89.0335 382.894 88.6704 383.334C88.4251 383.626 88.2515 383.971 88.1635 384.342C88.0754 384.712 88.0754 385.099 88.1633 385.469C88.4302 386.323 89.0306 386.59 89.7912 386.937C90.3414 387.095 90.8433 387.388 91.2518 387.789C91.6602 388.19 91.9622 388.687 92.1305 389.234C92.2987 389.781 92.3279 390.362 92.2154 390.923C92.1028 391.484 91.8521 392.008 91.4859 392.448C91.238 392.736 91.0626 393.078 90.9744 393.447C90.8862 393.817 90.8877 394.202 90.9789 394.57C91.2457 395.424 91.8462 395.704 92.5935 396.051C93.1447 396.208 93.6481 396.499 94.0581 396.9C94.468 397.3 94.7716 397.796 94.9412 398.344C95.1109 398.891 95.1412 399.472 95.0295 400.034C94.9178 400.596 94.6675 401.121 94.3015 401.562C94.0536 401.85 93.8782 402.192 93.79 402.561C93.7018 402.931 93.7033 403.315 93.7944 403.684C94.0613 404.538 94.6618 404.818 95.409 405.165C95.9601 405.32 96.4636 405.61 96.8739 406.009C97.2841 406.408 97.588 406.903 97.7578 407.45C97.9276 407.996 97.9579 408.576 97.846 409.138C97.7341 409.699 97.4835 410.223 97.1171 410.663C96.869 410.953 96.6936 411.298 96.6055 411.669C96.5173 412.04 96.5188 412.427 96.61 412.798C96.8769 413.652 97.4774 413.932 98.2246 414.279C98.7851 414.43 99.2982 414.72 99.7159 415.123C100.134 415.526 100.442 416.028 100.613 416.582C100.783 417.137 100.811 417.726 100.692 418.294C100.573 418.862 100.312 419.391 99.9326 419.83C99.6846 420.12 99.5092 420.465 99.421 420.836C99.3328 421.208 99.3344 421.595 99.4256 421.965L98.1446 422.312Z" fill="#263238"/>
<path d="M104.483 420.364C104.332 419.815 104.311 419.238 104.422 418.68C104.534 418.122 104.774 417.597 105.123 417.148C105.369 416.856 105.542 416.511 105.63 416.141C105.718 415.77 105.718 415.384 105.631 415.013C105.364 414.159 104.763 413.892 104.003 413.545C103.452 413.387 102.95 413.094 102.542 412.693C102.134 412.292 101.832 411.795 101.663 411.248C101.495 410.701 101.466 410.121 101.578 409.559C101.691 408.998 101.942 408.474 102.308 408.034C102.556 407.747 102.731 407.404 102.819 407.035C102.908 406.666 102.906 406.281 102.815 405.912C102.548 405.058 101.948 404.778 101.187 404.431C100.637 404.273 100.135 403.98 99.7264 403.579C99.318 403.178 99.016 402.681 98.8478 402.134C98.6795 401.587 98.6503 401.007 98.7629 400.446C98.8754 399.884 99.1261 399.36 99.4923 398.92C99.7402 398.633 99.9156 398.29 100.004 397.921C100.092 397.552 100.091 397.167 99.9994 396.798C99.7325 395.944 99.132 395.664 98.3848 395.317C97.8337 395.163 97.3302 394.873 96.9199 394.474C96.5097 394.075 96.2058 393.579 96.036 393.033C95.8662 392.486 95.8359 391.906 95.9478 391.345C96.0597 390.783 96.3103 390.259 96.6767 389.819C96.9248 389.529 97.1002 389.185 97.1883 388.813C97.2765 388.442 97.275 388.055 97.1838 387.684C96.9169 386.83 96.3165 386.564 95.5692 386.217C95.018 386.06 94.5146 385.768 94.1046 385.368C93.6946 384.968 93.3911 384.471 93.2214 383.924C93.0518 383.377 93.0215 382.796 93.1332 382.234C93.2449 381.672 93.4951 381.146 93.8612 380.706C94.112 380.42 94.2893 380.077 94.3777 379.708C94.466 379.338 94.4628 378.952 94.3682 378.584C94.1014 377.73 93.5142 377.45 92.7536 377.103C92.2045 376.943 91.7036 376.65 91.2957 376.249C90.8878 375.849 90.5856 375.353 90.4164 374.807C90.2471 374.261 90.216 373.681 90.3258 373.12C90.4356 372.559 90.6829 372.034 91.0456 371.592C91.2964 371.306 91.4737 370.963 91.5621 370.594C91.6505 370.224 91.6472 369.838 91.5527 369.47C91.2991 368.616 90.6987 368.336 89.9381 367.989C89.3972 367.814 88.9045 367.516 88.4992 367.117C88.0938 366.719 87.7869 366.231 87.6029 365.694C87.4554 365.138 87.4389 364.556 87.5547 363.994C87.6705 363.431 87.9154 362.903 88.2701 362.451C88.5209 362.165 88.6982 361.823 88.7866 361.453C88.8749 361.083 88.8717 360.698 88.7771 360.329C88.5236 359.475 87.9231 359.195 87.1625 358.848C86.6217 358.673 86.129 358.375 85.7236 357.977C85.3183 357.578 85.0114 357.091 84.8273 356.553C84.6776 356.005 84.6563 355.43 84.7651 354.872C84.8739 354.314 85.1098 353.789 85.4545 353.337C85.7053 353.052 85.8826 352.709 85.971 352.339C86.0594 351.969 86.0561 351.584 85.9616 351.215C85.708 350.348 85.1075 350.081 84.3469 349.734C83.7978 349.575 83.2969 349.282 82.889 348.881C82.4811 348.48 82.1789 347.985 82.0097 347.438C81.8404 346.892 81.8093 346.313 81.9191 345.752C82.0289 345.19 82.2762 344.665 82.6389 344.223C82.8899 343.935 83.0671 343.59 83.1555 343.218C83.2438 342.846 83.2405 342.459 83.146 342.088C82.8925 341.234 82.292 340.967 81.5314 340.62C80.9823 340.461 80.4813 340.168 80.0734 339.767C79.6655 339.366 79.3634 338.871 79.1941 338.325C79.0248 337.778 78.9937 337.199 79.1035 336.638C79.2134 336.077 79.4607 335.551 79.8233 335.109C80.0743 334.821 80.2516 334.476 80.3399 334.104C80.4282 333.732 80.425 333.345 80.3304 332.974C80.0635 332.12 79.4764 331.84 78.7158 331.493C78.1667 331.334 77.6658 331.04 77.2578 330.64C76.8499 330.239 76.5478 329.743 76.3785 329.197C76.2093 328.651 76.1781 328.072 76.288 327.51C76.3978 326.949 76.6451 326.424 77.0078 325.982C77.2558 325.692 77.4312 325.347 77.5194 324.976C77.6076 324.605 77.606 324.218 77.5148 323.847C77.248 322.993 76.6475 322.713 75.8869 322.366C75.347 322.189 74.8553 321.89 74.4502 321.492C74.0451 321.094 73.7376 320.607 73.5517 320.071L74.8861 319.67C75.1396 320.524 75.7401 320.805 76.5007 321.152C77.0425 321.324 77.5362 321.622 77.9418 322.021C78.3474 322.42 78.6537 322.908 78.8359 323.447C78.9888 323.997 79.0117 324.575 78.9029 325.135C78.794 325.696 78.5564 326.223 78.2087 326.676C77.9607 326.966 77.7853 327.311 77.6971 327.682C77.6089 328.053 77.6105 328.44 77.7017 328.811C77.9685 329.665 78.569 329.932 79.3296 330.292C79.8797 330.45 80.3817 330.743 80.7902 331.144C81.1986 331.545 81.5006 332.042 81.6689 332.589C81.8371 333.136 81.8663 333.716 81.7537 334.278C81.6412 334.839 81.3905 335.363 81.0243 335.803C80.7764 336.091 80.601 336.433 80.5128 336.802C80.4246 337.172 80.4261 337.556 80.5172 337.925C80.7841 338.779 81.3846 339.059 82.1452 339.406C82.6953 339.564 83.1973 339.857 83.6057 340.258C84.0142 340.659 84.3162 341.156 84.4844 341.703C84.6527 342.25 84.6818 342.83 84.5693 343.392C84.4567 343.953 84.2061 344.477 83.8399 344.917C83.592 345.205 83.4166 345.547 83.3284 345.916C83.2401 346.285 83.2417 346.67 83.3328 347.039C83.5997 347.893 84.2002 348.173 84.9608 348.52C85.5109 348.678 86.0129 348.971 86.4213 349.372C86.8298 349.773 87.1318 350.27 87.3 350.817C87.4682 351.364 87.4974 351.944 87.3849 352.506C87.2723 353.067 87.0216 353.591 86.6554 354.031C86.4102 354.323 86.2366 354.668 86.1486 355.038C86.0605 355.409 86.0605 355.795 86.1484 356.166C86.4153 357.02 87.0157 357.287 87.7763 357.634C88.3264 357.792 88.8284 358.085 89.2369 358.486C89.6453 358.887 89.9473 359.384 90.1156 359.931C90.2838 360.478 90.313 361.058 90.2004 361.619C90.0879 362.181 89.8372 362.705 89.471 363.145C89.2258 363.437 89.0522 363.782 88.9641 364.152C88.8761 364.523 88.876 364.909 88.9639 365.28C89.2308 366.134 89.8313 366.401 90.5919 366.748C91.142 366.906 91.644 367.199 92.0524 367.6C92.4609 368.001 92.7629 368.497 92.9311 369.045C93.0994 369.592 93.1285 370.172 93.016 370.733C92.9035 371.295 92.6528 371.819 92.2866 372.259C92.0385 372.549 91.8631 372.894 91.775 373.265C91.6868 373.636 91.6883 374.023 91.7795 374.394C92.0464 375.248 92.6469 375.515 93.4075 375.862C93.9576 376.02 94.4596 376.313 94.868 376.714C95.2765 377.115 95.5785 377.611 95.7467 378.158C95.915 378.706 95.9441 379.286 95.8316 379.847C95.719 380.408 95.4683 380.933 95.1022 381.373C94.8543 381.66 94.6789 382.003 94.5906 382.372C94.5024 382.741 94.5039 383.126 94.5951 383.494C94.862 384.348 95.4624 384.629 96.2097 384.976C96.7531 385.142 97.2467 385.44 97.6463 385.844C98.0458 386.247 98.3388 386.744 98.4989 387.289C98.659 387.834 98.6812 388.411 98.5634 388.966C98.4457 389.522 98.1917 390.04 97.8243 390.473C97.5763 390.763 97.4009 391.108 97.3127 391.48C97.2245 391.851 97.2261 392.238 97.3172 392.608C97.5841 393.462 98.1713 393.729 98.9319 394.076C99.481 394.236 99.9819 394.529 100.39 394.93C100.798 395.33 101.1 395.826 101.269 396.372C101.438 396.918 101.47 397.498 101.36 398.059C101.25 398.62 101.003 399.145 100.64 399.587C100.389 399.876 100.212 400.22 100.123 400.592C100.035 400.964 100.038 401.352 100.133 401.722C100.4 402.576 100.987 402.843 101.747 403.19C102.297 403.35 102.797 403.643 103.205 404.043C103.613 404.444 103.915 404.94 104.085 405.486C104.254 406.032 104.285 406.612 104.175 407.173C104.065 407.734 103.818 408.259 103.455 408.701C103.205 408.987 103.027 409.329 102.939 409.699C102.851 410.069 102.854 410.455 102.948 410.823C103.202 411.677 103.802 411.957 104.563 412.304C105.113 412.462 105.615 412.755 106.024 413.156C106.432 413.557 106.734 414.054 106.902 414.601C107.07 415.148 107.1 415.728 106.987 416.29C106.875 416.851 106.624 417.375 106.258 417.815C106.011 418.103 105.838 418.446 105.752 418.816C105.666 419.185 105.67 419.569 105.764 419.937L104.483 420.364Z" fill="#263238"/>
<path d="M371.362 277.304L116.079 356.166L117.707 269.217L309.406 210.01L371.362 277.304Z" fill="#455A64"/>
<path d="M288.656 237.245L265.397 285.35L288.656 237.245Z" fill="#263238"/>
<path d="M265.397 285.35C265.224 285.27 270.295 274.435 276.713 261.144C283.132 247.854 288.482 237.125 288.656 237.245C288.829 237.365 283.759 248.16 277.34 261.451C270.922 274.742 265.571 285.443 265.397 285.35Z" fill="#FAFAFA"/>
<path d="M269.748 254.473L254.349 284.336L269.748 254.473Z" fill="#263238"/>
<path d="M254.389 284.336C254.229 284.256 257.524 277.491 261.781 269.244C266.038 260.998 269.614 254.392 269.788 254.472C269.961 254.552 266.652 261.318 262.395 269.564C258.138 277.811 254.562 284.43 254.389 284.336Z" fill="#FAFAFA"/>
<path d="M199.091 267.91C189.564 285.355 180.041 302.795 170.522 320.231L199.091 267.91Z" fill="#263238"/>
<path d="M170.522 320.231C170.349 320.138 176.607 308.342 184.493 293.904C192.379 279.466 198.918 267.816 199.091 267.91C199.265 268.003 192.993 279.786 185.107 294.237C177.221 308.689 170.682 320.311 170.522 320.231Z" fill="#FAFAFA"/>
<path d="M172.003 295.332C166.207 306.863 159.811 318.083 152.841 328.945L172.003 295.332Z" fill="#263238"/>
<path d="M152.841 328.945C153.016 328.473 153.249 328.024 153.535 327.61L155.657 324.048C157.445 321.045 159.914 316.882 162.556 312.251C165.198 307.621 167.52 303.364 169.228 300.242L171.216 296.599C171.429 296.121 171.702 295.673 172.03 295.265C171.89 295.76 171.698 296.238 171.456 296.692C171.056 297.587 170.442 298.854 169.655 300.429C168.093 303.565 165.838 307.848 163.183 312.438C160.527 317.029 158.005 321.219 156.097 324.154C155.15 325.635 154.363 326.823 153.789 327.61C153.526 328.091 153.208 328.538 152.841 328.945Z" fill="#FAFAFA"/>
<path d="M93.741 359.876L107.966 272.233C108.389 269.599 109.541 267.136 111.291 265.123C113.04 263.109 115.318 261.625 117.867 260.837L295.341 206.02C295.341 206.02 309.913 200.883 318.253 212.692L304.202 217.002L216.372 244.104L240.698 317.656L229.836 321.085L206.604 247.186L137.869 268.417C132.963 269.933 128.694 273.024 125.722 277.212C122.75 281.4 121.242 286.45 121.43 291.582L123.685 353.871L93.741 359.876Z" fill="#263238"/>
<path d="M111.702 418.029L93.741 359.876L346.822 281.694L348.93 260.677L304.202 217.002L318.253 212.666L367.879 257.555L480.929 238.019C480.929 238.019 507.697 232.334 516.103 249.281L522.495 264.12L452.226 279.946L420.654 352.176L260.287 401.696L212.249 357.661L132.478 382.294L127.581 417.762L111.702 418.029Z" fill="#FFC727"/>
<path d="M142.593 199.402L127.915 203.939L143.14 253.245L175.526 243.237L166.279 213.306C165.951 212.25 165.419 211.269 164.711 210.419C164.003 209.57 163.135 208.868 162.155 208.356L145.475 199.655C144.586 199.193 143.55 199.102 142.593 199.402ZM132.652 212.239L130.57 205.567L141.979 202.044C142.458 201.894 142.961 201.841 143.461 201.887C143.96 201.933 144.445 202.077 144.888 202.311L152.308 206.22L132.652 212.239Z" fill="#FFC727"/>
<g opacity="0.4">
<path d="M142.593 199.402L127.915 203.939L143.14 253.245L175.526 243.237L166.279 213.306C165.951 212.25 165.419 211.269 164.711 210.419C164.003 209.57 163.135 208.868 162.155 208.356L145.475 199.655C144.586 199.193 143.55 199.102 142.593 199.402ZM132.652 212.239L130.57 205.567L141.979 202.044C142.458 201.894 142.961 201.841 143.461 201.887C143.96 201.933 144.445 202.077 144.888 202.311L152.308 206.22L132.652 212.239Z" fill="black"/>
</g>
<path d="M134.066 202.044L123.191 205.393C122.221 205.697 121.41 206.374 120.938 207.274C120.465 208.175 120.368 209.226 120.669 210.197L134.76 255.833L167.146 245.825L158.045 216.389C157.669 215.172 157.056 214.042 156.241 213.064C155.425 212.086 154.424 211.28 153.295 210.691L137.282 202.324C136.791 202.068 136.254 201.911 135.702 201.863C135.15 201.815 134.594 201.876 134.066 202.044ZM124.299 214.827L123.351 211.758C123.201 211.277 123.147 210.771 123.194 210.27C123.24 209.768 123.385 209.28 123.621 208.835C123.857 208.389 124.178 207.995 124.567 207.675C124.956 207.354 125.404 207.114 125.887 206.968L133.466 204.619C133.995 204.455 134.551 204.396 135.103 204.446C135.655 204.496 136.191 204.655 136.682 204.913L143.941 208.756L124.299 214.827Z" fill="#FFC727"/>
<path d="M153.936 205.7L155.27 203.218C155.405 202.957 155.604 202.735 155.85 202.574C156.095 202.413 156.378 202.318 156.671 202.298C157.847 202.117 159.05 202.346 160.077 202.946C161.105 203.546 161.895 204.48 162.316 205.594C162.462 205.971 162.462 206.39 162.316 206.768L161.355 209.21C161.115 209.802 160.687 210.3 160.138 210.628C159.589 210.955 158.948 211.095 158.312 211.025C156.811 210.852 155.425 210.135 154.416 209.01C154.002 208.576 153.733 208.025 153.647 207.432C153.561 206.839 153.662 206.233 153.936 205.7Z" fill="#FFC727"/>
<path d="M153.655 240.235C153.445 239.743 153.262 239.239 153.108 238.727C152.761 237.686 152.308 236.325 151.774 234.644C150.626 231.161 149.105 226.277 147.25 220.566L147.664 220.779L136.388 224.289C136.388 224.382 136.829 223.461 136.615 223.848V223.928V224.115L136.722 224.462L136.949 225.169C137.082 225.636 137.229 226.09 137.376 226.504L138.216 229.239L139.804 234.443C140.805 237.766 141.726 240.822 142.473 243.491L142.139 243.317L150.346 240.929L152.641 240.288C152.922 240.205 153.207 240.138 153.495 240.088C153.266 240.206 153.024 240.3 152.775 240.368L150.573 241.129L142.3 243.797L142.046 243.891L141.966 243.624L139.11 234.603C138.59 232.935 138.056 231.201 137.496 229.413C137.216 228.519 136.935 227.598 136.642 226.677C136.508 226.223 136.362 225.756 136.215 225.343L136.001 224.636L135.895 224.289V224.115V224.022C135.694 224.409 136.175 223.488 136.135 223.581L147.41 220.125L147.731 220.019L147.824 220.339C149.612 226.197 151.08 231.201 152.094 234.71C152.574 236.378 152.961 237.739 153.268 238.713C153.442 239.208 153.572 239.717 153.655 240.235Z" fill="#263238"/>
<path d="M136.562 223.941C134.79 223.429 133.087 222.703 131.491 221.779C129.791 221.062 128.19 220.129 126.727 219.004C128.502 219.507 130.206 220.233 131.798 221.166C133.494 221.891 135.094 222.824 136.562 223.941Z" fill="#263238"/>
<path d="M152.121 211.665C151.667 213.307 150.989 214.878 150.106 216.335C149.413 217.897 148.515 219.36 147.437 220.686C147.894 219.045 148.572 217.473 149.452 216.015C150.149 214.456 151.046 212.993 152.121 211.665Z" fill="#263238"/>
<path d="M142.553 243.116C141.869 244.842 141.015 246.496 140.004 248.053C139.197 249.719 138.241 251.309 137.149 252.804C137.632 250.998 138.393 249.279 139.404 247.707C140.216 246.026 141.278 244.479 142.553 243.116Z" fill="#263238"/>
<path d="M163.57 245.025C161.658 244.65 159.814 243.988 158.099 243.063C156.286 242.342 154.594 241.348 153.082 240.114C154.926 240.729 156.712 241.506 158.419 242.436C160.209 243.145 161.933 244.011 163.57 245.025Z" fill="#263238"/>
<path d="M162.035 205.927C162.035 205.994 161.702 206.368 160.914 206.541C159.888 206.766 158.818 206.692 157.832 206.327C157.33 206.137 156.876 205.839 156.503 205.454C156.129 205.069 155.845 204.606 155.67 204.099C155.43 203.285 155.67 202.765 155.67 202.765C155.67 202.765 155.764 203.245 156.071 203.872C156.484 204.685 157.182 205.317 158.032 205.647C158.915 205.952 159.85 206.074 160.781 206.007C161.568 206.021 161.982 205.834 162.035 205.927Z" fill="#263238"/>
<path d="M274.447 176.324L189.002 202.725L199.161 235.605L284.606 209.204L274.447 176.324Z" fill="#FFC727"/>
<g opacity="0.4">
<path d="M274.453 176.338L246.43 184.997L256.589 217.877L284.612 209.218L274.453 176.338Z" fill="black"/>
</g>
<path d="M276.726 183.803C276.726 183.976 257.631 190.061 234.026 197.373C210.42 204.686 191.018 210.464 191.018 210.33C191.018 210.197 210.1 204.072 233.786 196.76C257.471 189.447 276.673 183.642 276.726 183.803Z" fill="#263238"/>
<path d="M200.6 203.857L195.117 205.551L197.965 214.769L203.448 213.075L200.6 203.857Z" fill="#FAFAFA"/>
<path d="M230.721 194.538L225.239 196.231L228.087 205.449L233.569 203.755L230.721 194.538Z" fill="#FAFAFA"/>
<path d="M231.814 153.488L169.037 172.885C167.256 173.436 166.258 175.326 166.808 177.107L174.974 203.537C175.525 205.318 177.415 206.316 179.196 205.765L241.974 186.369C243.755 185.818 244.753 183.928 244.203 182.147L236.037 155.717C235.486 153.936 233.596 152.938 231.814 153.488Z" fill="#455A64"/>
<path d="M207.645 169.204C207.645 169.378 200.306 171.873 191.112 174.675C181.918 177.477 174.432 179.666 174.378 179.479C174.325 179.292 181.718 176.81 190.912 174.008C200.106 171.206 207.592 168.964 207.645 169.204Z" fill="#263238"/>
<path d="M209.126 173.968C209.126 174.155 201.774 176.637 192.593 179.439C183.412 182.241 175.9 184.43 175.846 184.256C175.793 184.083 183.199 181.588 192.379 178.785C201.56 175.983 209.059 173.795 209.126 173.968Z" fill="#263238"/>
<path d="M210.594 178.746C210.594 178.932 203.255 181.414 194.061 184.217C184.867 187.019 177.381 189.207 177.327 189.02C177.274 188.834 184.667 186.352 193.861 183.549C203.055 180.747 210.54 178.559 210.594 178.746Z" fill="#263238"/>
<path d="M212.075 183.522C212.075 183.709 204.723 186.191 195.542 188.993C186.361 191.796 178.849 193.984 178.795 193.797C178.742 193.61 186.148 191.128 195.328 188.326C204.509 185.524 212.008 183.336 212.075 183.522Z" fill="#263238"/>
<path d="M213.543 188.3C213.543 188.473 206.204 190.968 197.01 193.771C187.816 196.573 180.33 198.761 180.276 198.575C180.223 198.388 187.616 195.906 196.81 193.104C206.004 190.301 213.489 188.113 213.543 188.3Z" fill="#263238"/>
<path d="M210.346 473.18C235.441 464.593 248.823 437.289 240.236 412.194C231.649 387.099 204.344 373.717 179.25 382.304C154.155 390.891 140.772 418.195 149.359 443.29C157.946 468.385 185.251 481.767 210.346 473.18Z" fill="#455A64"/>
<path d="M148.665 441.18V441.301C152.504 453.216 160.843 463.163 171.906 469.021C182.97 474.88 195.883 476.189 207.897 472.668C219.911 469.148 230.076 461.077 236.227 450.173C242.378 439.27 244.03 426.396 240.831 414.292V414.172L148.665 441.18Z" fill="#455A64"/>
<path d="M162.436 437.244C164.313 443.644 168.046 449.343 173.163 453.622C178.279 457.9 184.55 460.564 191.181 461.279C197.812 461.993 204.506 460.725 210.417 457.634C216.327 454.544 221.188 449.77 224.385 443.917C227.583 438.064 228.972 431.394 228.379 424.751C227.785 418.108 225.235 411.79 221.05 406.597C216.866 401.403 211.235 397.567 204.871 395.574C198.506 393.58 191.693 393.519 185.294 395.398C176.714 397.916 169.486 403.74 165.199 411.588C160.913 419.435 159.919 428.664 162.436 437.244Z" fill="#FAFAFA"/>
<path d="M185.294 395.397C176.714 397.916 169.486 403.74 165.199 411.587C160.913 419.435 159.919 428.664 162.436 437.244L227.14 418.269C224.621 409.689 218.798 402.46 210.952 398.171C203.105 393.882 193.876 392.885 185.294 395.397Z" fill="#E0E0E0"/>
<path d="M175.072 433.534C176.215 437.432 178.488 440.903 181.604 443.508C184.719 446.114 188.538 447.737 192.576 448.173C196.614 448.609 200.69 447.837 204.29 445.956C207.89 444.075 210.851 441.169 212.799 437.605C214.747 434.041 215.594 429.979 215.234 425.934C214.874 421.888 213.322 418.041 210.775 414.877C208.228 411.713 204.8 409.376 200.925 408.16C197.05 406.945 192.901 406.905 189.003 408.048C186.415 408.806 184.001 410.067 181.9 411.758C179.799 413.45 178.052 415.539 176.759 417.905C175.465 420.272 174.65 422.871 174.361 425.552C174.071 428.234 174.313 430.946 175.072 433.534Z" fill="#263238"/>
<path d="M146.356 431.279C146.356 431.279 146.957 435.656 146.116 436.203L142.406 438.645L143.621 442.582C143.621 442.582 147.37 442.155 148.465 444.263C149.559 446.371 150.586 448.266 150.586 448.266L154.883 441.327L146.356 431.279Z" fill="#455A64"/>
<path d="M152.481 405.953C151.231 407.296 149.819 408.48 148.278 409.475C146.847 409.869 145.388 410.154 143.914 410.329L143.554 414.453C143.554 414.453 147.197 415.454 147.41 417.829C147.624 420.204 147.891 422.286 147.891 422.286L154.483 417.482L152.481 405.953Z" fill="#455A64"/>
<path d="M160.047 394.877C158.461 395.802 156.767 396.528 155.003 397.039C153.522 397.004 152.045 396.857 150.586 396.599L149.052 400.429C149.052 400.429 152.241 402.457 151.72 404.779C151.2 407.101 150.987 409.155 150.987 409.155L158.699 406.487L160.047 394.877Z" fill="#455A64"/>
<path d="M171.002 388.392C169.197 388.707 167.359 388.797 165.531 388.659C164.15 388.105 162.812 387.45 161.528 386.697L158.753 389.766C158.753 389.766 161.035 392.769 159.767 394.784C158.499 396.799 157.445 398.627 157.445 398.627L165.625 398.787L171.002 388.392Z" fill="#455A64"/>
<path d="M181.758 382.053C179.927 382.167 178.089 382.05 176.287 381.706C174.979 381.005 173.725 380.207 172.537 379.318L169.441 381.987C169.441 381.987 171.376 385.229 169.882 387.097C168.387 388.966 167.213 390.647 167.213 390.647L175.313 391.728L181.758 382.053Z" fill="#455A64"/>
<path d="M193.474 381.773C191.731 381.204 190.064 380.425 188.51 379.451C187.533 378.322 186.641 377.122 185.841 375.862L181.958 377.263C181.958 377.263 182.572 380.999 180.517 382.174C178.462 383.348 176.674 384.495 176.674 384.495L183.813 388.499L193.474 381.773Z" fill="#455A64"/>
<path d="M205.697 381.413C204.076 380.553 202.566 379.5 201.2 378.277C200.447 376.994 199.791 375.655 199.238 374.274L195.235 374.995C195.235 374.995 195.235 378.771 192.98 379.598C190.725 380.426 188.79 381.213 188.79 381.213L195.155 386.337L205.697 381.413Z" fill="#455A64"/>
<path d="M217.8 384.882C216.368 383.735 215.086 382.413 213.983 380.946C213.475 379.552 213.078 378.119 212.796 376.663H208.672C208.672 376.663 207.925 380.372 205.59 380.746C203.255 381.119 201.173 381.546 201.173 381.546L206.511 387.778L217.8 384.882Z" fill="#455A64"/>
<path d="M227.621 392.849C226.655 391.29 225.884 389.619 225.326 387.872C225.32 386.389 225.427 384.908 225.646 383.442L221.776 382C221.776 382 219.841 385.256 217.493 384.829C215.144 384.402 213.062 384.109 213.062 384.109L215.971 391.808L227.621 392.849Z" fill="#455A64"/>
<path d="M234.573 404.125C234.441 402.296 234.539 400.458 234.866 398.654C235.545 397.336 236.326 396.073 237.202 394.877L234.439 391.808C234.439 391.808 231.224 393.783 229.342 392.315C227.461 390.847 225.753 389.646 225.753 389.646L224.778 397.76L234.573 404.125Z" fill="#455A64"/>
<path d="M239.817 414.613C239.953 412.797 240.311 411.004 240.885 409.275C241.753 408.07 242.712 406.933 243.754 405.873L241.458 402.443C241.458 402.443 237.976 403.938 236.334 402.216C234.693 400.495 233.172 399.041 233.172 399.041L231.05 406.887L239.817 414.613Z" fill="#455A64"/>
<path d="M147.41 417.829C147.41 417.829 146.636 422.539 145.702 422.899L141.646 424.541L142.019 428.651C142.019 428.651 145.796 428.984 146.423 431.319C147.05 433.655 147.757 435.629 147.757 435.629L153.388 429.705L147.41 417.829Z" fill="#455A64"/>
<path d="M243.527 425.248C243.527 425.248 242.926 420.885 243.767 420.338L247.476 417.896L246.249 413.892C246.249 413.892 242.499 414.333 241.418 412.211C240.337 410.09 239.297 408.208 239.297 408.208L235.053 415.267L243.527 425.248Z" fill="#455A64"/>
<path d="M237.402 450.521C238.649 449.179 240.062 447.999 241.605 447.011C243.03 446.608 244.485 446.318 245.955 446.144L246.316 442.034C246.316 442.034 242.673 441.02 242.473 438.645C242.272 436.27 241.992 434.188 241.992 434.188L235.387 439.005L237.402 450.521Z" fill="#455A64"/>
<path d="M229.836 461.65C231.415 460.725 233.106 460.003 234.866 459.502C236.352 459.533 237.833 459.676 239.297 459.929L240.831 456.099C240.831 456.099 237.629 454.084 238.162 451.749C238.696 449.414 238.99 447.345 238.99 447.345L231.277 450.014L229.836 461.65Z" fill="#455A64"/>
<path d="M218.921 468.135C220.721 467.817 222.555 467.727 224.378 467.868C225.761 468.413 227.1 469.064 228.381 469.816L231.157 466.761C231.157 466.761 228.862 463.745 230.129 461.743C231.397 459.742 232.451 457.9 232.451 457.9L224.285 457.74L218.921 468.135Z" fill="#455A64"/>
<path d="M208.125 474.541C209.957 474.433 211.795 474.554 213.596 474.901C214.904 475.597 216.158 476.391 217.346 477.276L220.442 474.607C220.442 474.607 218.507 471.365 219.988 469.51C221.469 467.655 222.657 465.947 222.657 465.947L214.557 464.866L208.125 474.541Z" fill="#455A64"/>
<path d="M196.356 474.754C198.102 475.321 199.77 476.105 201.32 477.089C202.303 478.213 203.195 479.414 203.989 480.679L207.872 479.264C207.872 479.264 207.245 475.541 209.313 474.354C211.381 473.166 213.156 472.045 213.156 472.045L206.004 468.042L196.356 474.754Z" fill="#455A64"/>
<path d="M184.173 475.114C185.798 475.971 187.308 477.029 188.67 478.263C189.425 479.545 190.081 480.883 190.631 482.266L194.635 481.545C194.635 481.545 194.635 477.769 196.89 476.955C199.145 476.141 201.08 475.327 201.08 475.327L194.715 470.203L184.173 475.114Z" fill="#455A64"/>
<path d="M172.07 471.645C173.503 472.794 174.79 474.117 175.9 475.581C176.398 476.977 176.791 478.409 177.074 479.865H181.211C181.211 479.865 181.944 476.168 184.293 475.781C186.642 475.394 188.71 474.981 188.71 474.981L183.372 468.749L172.07 471.645Z" fill="#455A64"/>
<path d="M162.262 463.679C163.23 465.239 163.997 466.916 164.544 468.669C164.552 470.152 164.449 471.633 164.237 473.1L168.107 474.527C168.107 474.527 170.042 471.271 172.377 471.698C174.712 472.125 176.807 472.419 176.807 472.419L173.898 464.773L162.262 463.679Z" fill="#455A64"/>
<path d="M155.297 452.403C155.428 454.236 155.334 456.077 155.016 457.887C154.329 459.203 153.544 460.465 152.668 461.664L155.443 464.733C155.443 464.733 158.659 462.744 160.527 464.212C162.396 465.68 164.117 466.881 164.117 466.881L165.104 458.768L155.297 452.403Z" fill="#455A64"/>
<path d="M150.052 441.915C149.918 443.731 149.56 445.524 148.985 447.252C148.12 448.456 147.165 449.594 146.129 450.655L148.424 454.098C148.424 454.098 151.894 452.603 153.535 454.311C155.177 456.019 156.711 457.5 156.711 457.5L158.833 449.614L150.052 441.915Z" fill="#455A64"/>
<path d="M242.473 438.699C242.473 438.699 243.233 433.988 244.167 433.628L248.304 431.987L247.917 427.877C247.917 427.877 244.154 427.543 243.527 425.208C242.9 422.873 242.192 420.911 242.192 420.911L236.575 426.822L242.473 438.699Z" fill="#455A64"/>
<path d="M517.303 378.347C542.397 369.76 555.78 342.455 547.193 317.361C538.606 292.266 511.301 278.883 486.206 287.47C461.111 296.057 447.729 323.362 456.316 348.457C464.903 373.552 492.208 386.934 517.303 378.347Z" fill="#455A64"/>
<path d="M455.629 346.332C455.629 346.332 455.629 346.412 455.629 346.452C457.277 352.647 460.148 358.449 464.073 363.516C467.999 368.584 472.899 372.815 478.484 375.959C484.07 379.104 490.228 381.099 496.597 381.827C502.965 382.555 509.415 382.001 515.566 380.197C521.718 378.394 527.446 375.378 532.413 371.326C537.38 367.275 541.487 362.271 544.49 356.608C547.494 350.945 549.333 344.738 549.901 338.353C550.469 331.968 549.753 325.535 547.795 319.431C547.801 319.391 547.801 319.35 547.795 319.311L455.629 346.332Z" fill="#455A64"/>
<path d="M469.386 342.435C471.262 348.832 474.992 354.529 480.106 358.806C485.219 363.082 491.486 365.747 498.113 366.463C504.741 367.178 511.432 365.912 517.34 362.825C523.248 359.738 528.108 354.969 531.306 349.12C534.504 343.271 535.896 336.605 535.305 329.965C534.715 323.326 532.169 317.01 527.99 311.817C523.81 306.624 518.185 302.787 511.824 300.79C505.464 298.794 498.655 298.729 492.258 300.602C483.678 303.118 476.45 308.939 472.161 316.783C467.872 324.628 466.874 333.855 469.386 342.435Z" fill="#FAFAFA"/>
<path d="M492.258 300.589C488.008 301.835 484.046 303.905 480.596 306.683C477.147 309.46 474.279 312.889 472.155 316.775C470.031 320.661 468.693 324.927 468.218 329.33C467.743 333.733 468.14 338.186 469.386 342.436L534.091 323.474C532.848 319.224 530.78 315.26 528.004 311.809C525.229 308.359 521.801 305.489 517.916 303.364C514.031 301.238 509.766 299.899 505.363 299.423C500.96 298.947 496.507 299.343 492.258 300.589Z" fill="#E0E0E0"/>
<path d="M482.036 338.712C483.179 342.61 485.452 346.08 488.568 348.686C491.683 351.292 495.502 352.915 499.54 353.351C503.578 353.786 507.654 353.015 511.254 351.134C514.854 349.253 517.815 346.346 519.763 342.783C521.711 339.219 522.558 335.157 522.198 331.112C521.838 327.066 520.286 323.218 517.739 320.055C515.192 316.891 511.764 314.553 507.889 313.338C504.014 312.122 499.865 312.083 495.967 313.225C493.378 313.982 490.963 315.242 488.861 316.933C486.759 318.624 485.012 320.713 483.718 323.08C482.424 325.448 481.609 328.047 481.321 330.729C481.032 333.411 481.275 336.124 482.036 338.712Z" fill="#263238"/>
<path d="M453.32 336.458C453.32 336.458 453.921 340.834 453.08 341.381L449.357 343.77L450.585 347.773C450.585 347.773 454.334 347.333 455.415 349.455C456.496 351.576 457.55 353.458 457.55 353.458L461.9 346.439L453.32 336.458Z" fill="#455A64"/>
<path d="M459.445 311.13C458.199 312.478 456.786 313.662 455.242 314.653C453.812 315.056 452.353 315.346 450.878 315.52L450.518 319.63C450.518 319.63 454.161 320.645 454.374 323.006C454.588 325.368 454.841 327.477 454.841 327.477L461.513 322.66L459.445 311.13Z" fill="#455A64"/>
<path d="M467.011 300.068C465.426 300.993 463.732 301.715 461.967 302.217C460.482 302.185 459.001 302.042 457.537 301.79L456.002 305.619C456.002 305.619 459.205 307.634 458.671 309.97C458.137 312.305 457.897 314.413 457.897 314.413L465.61 311.744L467.011 300.068Z" fill="#455A64"/>
<path d="M477.913 293.583C476.107 293.892 474.269 293.977 472.442 293.837C471.058 293.294 469.72 292.643 468.439 291.889L465.663 294.944C465.663 294.944 467.958 297.96 466.691 299.962C465.423 301.963 464.369 303.805 464.369 303.805L472.535 303.965L477.913 293.583Z" fill="#455A64"/>
<path d="M488.722 287.245C486.89 287.352 485.052 287.231 483.251 286.885C481.94 286.188 480.686 285.39 479.501 284.496L476.392 287.232C476.392 287.232 478.327 290.474 476.845 292.329C475.364 294.184 474.11 295.892 474.11 295.892L482.21 296.959L488.722 287.245Z" fill="#455A64"/>
<path d="M500.438 286.965C498.692 286.396 497.025 285.611 495.474 284.63C494.491 283.505 493.598 282.305 492.805 281.04L488.935 282.454C488.935 282.454 489.549 286.177 487.494 287.365C485.439 288.553 483.638 289.674 483.638 289.674L490.79 293.677L500.438 286.965Z" fill="#455A64"/>
<path d="M512.607 286.605C510.983 285.747 509.472 284.689 508.11 283.455C507.355 282.173 506.699 280.835 506.149 279.452L502.079 280.186C502.079 280.186 502.079 283.962 499.824 284.776C497.569 285.59 495.634 286.404 495.634 286.404L501.999 291.515L512.607 286.605Z" fill="#455A64"/>
<path d="M524.764 290.074C523.33 288.924 522.044 287.602 520.934 286.138C520.437 284.741 520.044 283.309 519.76 281.854L515.623 281.788C515.623 281.788 514.889 285.497 512.54 285.884C510.192 286.271 508.124 286.685 508.124 286.685L513.461 292.916L524.764 290.074Z" fill="#455A64"/>
<path d="M534.585 298.04C533.617 296.478 532.846 294.801 532.29 293.049C532.285 291.567 532.392 290.086 532.61 288.619L528.727 287.191C528.727 287.191 526.792 290.434 524.457 290.02C522.121 289.607 520.026 289.3 520.026 289.3L522.935 296.932L534.585 298.04Z" fill="#455A64"/>
<path d="M541.537 309.316C541.405 307.482 541.503 305.64 541.83 303.831C542.509 302.513 543.29 301.251 544.166 300.055L541.403 296.986C541.403 296.986 538.174 298.961 536.306 297.506C534.438 296.052 532.717 294.837 532.717 294.837L531.729 302.951L541.537 309.316Z" fill="#455A64"/>
<path d="M546.781 319.751C546.916 317.934 547.275 316.142 547.849 314.413C548.717 313.211 549.671 312.074 550.704 311.01L548.409 307.581C548.409 307.581 544.94 309.075 543.298 307.367C541.657 305.659 540.136 304.178 540.136 304.178L538.001 312.064L546.781 319.751Z" fill="#455A64"/>
<path d="M454.374 323.007C454.374 323.007 453.6 327.731 452.666 328.091L448.53 329.719L448.917 333.829C448.917 333.829 452.68 334.176 453.32 336.498C453.961 338.819 454.588 340.808 454.588 340.808L460.219 334.883L454.374 323.007Z" fill="#455A64"/>
<path d="M550.477 330.426C550.477 330.426 549.877 326.049 550.717 325.502L554.44 323.06L553.213 319.057C553.213 319.057 549.463 319.497 548.369 317.389C547.275 315.281 546.247 313.386 546.247 313.386L541.964 320.445L550.477 330.426Z" fill="#455A64"/>
<path d="M544.352 355.779C545.602 354.435 547.014 353.252 548.556 352.256C549.987 351.86 551.445 351.57 552.919 351.389L553.28 347.279C553.28 347.279 549.637 346.265 549.423 343.903C549.21 341.541 548.956 339.446 548.956 339.446L542.351 344.25L544.352 355.779Z" fill="#455A64"/>
<path d="M536.786 366.841C538.373 365.917 540.067 365.191 541.83 364.68C543.316 364.715 544.797 364.862 546.261 365.12L547.782 361.277C547.782 361.277 544.593 359.262 545.113 356.94C545.633 354.618 545.954 352.523 545.954 352.523L538.241 355.192L536.786 366.841Z" fill="#455A64"/>
<path d="M525.951 373.326C527.757 373.011 529.595 372.922 531.422 373.059C532.802 373.611 534.14 374.262 535.425 375.007L538.201 371.952C538.201 371.952 535.906 368.949 537.173 366.934C538.441 364.919 539.495 363.091 539.495 363.091L531.329 362.931L525.951 373.326Z" fill="#455A64"/>
<path d="M515.076 379.652C516.907 379.545 518.745 379.666 520.547 380.012C521.855 380.713 523.108 381.512 524.297 382.401L527.406 379.732C527.406 379.732 525.457 376.476 526.952 374.621C528.446 372.766 529.687 371.072 529.687 371.072L521.588 369.991L515.076 379.652Z" fill="#455A64"/>
<path d="M503.36 379.945C505.105 380.508 506.773 381.288 508.324 382.267C509.305 383.393 510.197 384.593 510.993 385.856L514.876 384.455C514.876 384.455 514.262 380.719 516.317 379.531C518.372 378.344 520.173 377.223 520.173 377.223L513.021 373.22L503.36 379.945Z" fill="#455A64"/>
<path d="M491.137 380.306C492.762 381.157 494.273 382.211 495.634 383.442C496.387 384.725 497.042 386.063 497.595 387.445L501.665 386.724C501.665 386.724 501.665 382.934 503.92 382.121C506.175 381.307 508.11 380.506 508.11 380.506L501.745 375.382L491.137 380.306Z" fill="#455A64"/>
<path d="M479.034 376.836C480.47 378.004 481.752 379.349 482.85 380.839C483.358 382.233 483.755 383.666 484.038 385.122H488.161C488.161 385.122 488.908 381.413 491.257 381.026C493.605 380.639 495.674 380.225 495.674 380.225L490.336 373.994L479.034 376.836Z" fill="#455A64"/>
<path d="M469.213 368.87C470.182 370.427 470.952 372.099 471.508 373.847C471.513 375.33 471.406 376.811 471.188 378.277L475.071 379.705C475.071 379.705 476.992 376.462 479.341 376.889C481.689 377.316 483.771 377.597 483.771 377.597L480.862 369.964L469.213 368.87Z" fill="#455A64"/>
<path d="M462.261 357.594C462.393 359.423 462.294 361.261 461.967 363.065C461.288 364.383 460.508 365.646 459.632 366.842L462.394 369.911C462.394 369.911 465.623 367.936 467.491 369.39C469.359 370.845 471.081 372.059 471.081 372.059L472.068 363.959L462.261 357.594Z" fill="#455A64"/>
<path d="M457.016 347.106C456.881 348.922 456.522 350.715 455.949 352.444C455.084 353.648 454.129 354.785 453.093 355.846L455.388 359.276C455.388 359.276 458.858 357.781 460.499 359.502C462.14 361.224 463.662 362.678 463.662 362.678L465.797 354.792L457.016 347.106Z" fill="#455A64"/>
<path d="M549.423 343.89C549.423 343.89 550.197 339.179 551.131 338.806L555.268 337.178L554.881 333.068C554.881 333.068 551.118 332.734 550.477 330.399C549.837 328.064 549.21 326.089 549.21 326.089L543.578 332.014L549.423 343.89Z" fill="#455A64"/>
<path d="M95.5421 370.73L96.817 370.336L105.743 399.226L104.468 399.619C102.133 400.337 99.6083 400.099 97.4486 398.957C95.2888 397.815 93.6706 395.862 92.9494 393.528L89.4632 382.245C88.746 379.912 88.9832 377.389 90.1227 375.231C91.2622 373.072 93.2111 371.454 95.5421 370.73Z" fill="#FFC727"/>
<g opacity="0.3">
<path d="M95.5422 370.729L96.8171 370.335L105.743 399.225L104.468 399.619C102.133 400.337 99.6084 400.099 97.4486 398.956C95.2889 397.814 93.6707 395.862 92.9495 393.527L89.4633 382.244C88.7461 379.911 88.9832 377.389 90.1227 375.23C91.2623 373.072 93.2111 371.453 95.5422 370.729Z" fill="white"/>
</g>
<path d="M107.966 272.233C107.966 272.233 111.395 274.128 112.623 280.399C113.49 284.75 112.543 314.733 111.875 332.681C111.735 336.668 110.406 340.522 108.059 343.749C105.712 346.975 102.455 349.427 98.705 350.789L94.7952 352.203L107.966 272.233Z" fill="#455A64"/>
<path d="M297.249 205.433C297.089 205.606 294.581 203.712 290.204 200.095L282.197 193.517L277.274 189.367C275.608 187.85 273.625 186.724 271.469 186.071C269.129 185.375 266.651 185.278 264.263 185.791C263.089 186.044 261.701 186.525 260.327 186.938L256.15 188.273L237.989 193.797L196.356 206.247L154.589 218.443L136.375 223.674L132.158 224.875L131.131 225.169L130.21 225.462C127.293 226.499 124.783 228.439 123.044 231C121.798 232.87 120.982 234.994 120.656 237.218C120.242 239.46 119.868 241.568 119.508 243.543C118.761 247.546 118.174 250.882 117.6 253.671C116.506 259.222 115.785 262.278 115.545 262.238C115.305 262.198 115.545 259.076 116.266 253.458C116.626 250.642 117.066 247.213 117.6 243.236C117.885 241.244 118.178 239.122 118.481 236.871C118.775 234.157 119.722 231.554 121.242 229.286C122.762 227.018 124.809 225.152 127.208 223.848C127.872 223.489 128.558 223.173 129.263 222.9L130.357 222.527L131.384 222.206L135.574 220.872L153.722 215.348L195.408 202.898L237.162 190.701L255.403 185.484L259.62 184.283C260.954 183.909 262.288 183.482 263.823 183.189C266.65 182.653 269.567 182.851 272.296 183.762C274.74 184.59 276.966 185.958 278.808 187.766L283.559 192.102L291.098 199.121C295.208 203.018 297.396 205.246 297.249 205.433Z" fill="#263238"/>
<path d="M285.533 195.145L285.106 195.318L283.839 195.746L278.942 197.32L260.887 203.018L201.226 221.526L141.499 239.847L123.378 245.332L118.441 246.786L117.106 247.146L116.653 247.253C116.787 247.177 116.93 247.119 117.08 247.08L118.414 246.653L123.311 245.065L141.366 239.38L201.04 220.859L260.754 202.538L278.875 197.067L283.812 195.612L285.146 195.252L285.533 195.145Z" fill="#263238"/>
<path d="M152.094 251.416C151.907 251.416 149.425 244.851 146.663 236.618C143.901 228.385 141.713 221.66 141.886 221.593C142.059 221.526 144.555 228.158 147.317 236.391C150.079 244.624 152.321 251.35 152.094 251.416Z" fill="#263238"/>
<path d="M209.446 235.377C209.273 235.377 206.684 228.558 203.682 220.005C200.679 211.451 198.344 204.459 198.558 204.406C198.771 204.352 201.32 211.224 204.336 219.778C207.351 228.331 209.7 235.323 209.446 235.377Z" fill="#263238"/>
<path d="M266.612 215.348C266.438 215.428 263.569 209.089 260.193 201.217C256.817 193.344 254.242 186.872 254.415 186.792C254.589 186.712 257.471 193.05 260.834 200.936C264.196 208.823 266.785 215.268 266.612 215.348Z" fill="#263238"/>
<path d="M520.694 226.53C519.844 226.793 519.057 227.226 518.379 227.801C517.701 228.377 517.147 229.083 516.749 229.879C516.351 230.674 516.119 231.541 516.065 232.429C516.011 233.317 516.138 234.206 516.437 235.043C520.827 247.24 530.074 273.447 534.505 285.524C535.204 287.422 536.629 288.964 538.466 289.812C540.302 290.661 542.4 290.745 544.299 290.047L564.542 284.056C564.72 284.009 564.887 283.926 565.032 283.811C565.177 283.697 565.296 283.553 565.383 283.39C565.469 283.227 565.521 283.048 565.535 282.864C565.549 282.68 565.524 282.495 565.463 282.321L561.393 269.111C561.344 268.933 561.26 268.768 561.145 268.624C561.03 268.481 560.886 268.363 560.723 268.278C560.561 268.193 560.382 268.142 560.199 268.129C560.015 268.116 559.831 268.142 559.658 268.203L545.273 272.687L528.9 230.76C528.341 229.133 527.176 227.785 525.647 226.996C524.118 226.208 522.343 226.041 520.694 226.53Z" fill="#263238"/>
<path d="M557.123 240.488C556.522 241.062 537.787 247.934 541.47 257.955C545.153 267.976 565.076 261.344 565.076 261.344L557.123 240.488Z" fill="#263238"/>
<path d="M314.623 213.773L360.139 257.982L367.892 257.541L318.253 212.652L314.623 213.773Z" fill="#455A64"/>
<path d="M346.822 281.694L365.917 275.796L348.93 260.677L342.539 258.462L338.883 267.389L347.116 272.78L346.822 281.694Z" fill="#263238"/>
<path d="M325.405 282.388L345.007 276.93C347.556 276.103 348.17 270.925 346.342 265.374C344.727 260.397 341.685 256.727 339.189 256.701L318.626 260.53L325.405 282.388Z" fill="#FFC727"/>
<path d="M365.917 275.796C365.917 275.796 366.011 276.009 366.158 276.41C366.304 276.81 366.531 277.437 366.811 278.211C367.385 279.826 368.146 282.214 369.253 285.15L378.127 310.717L381.049 319.204C382.248 322.251 382.908 325.484 382.998 328.758C383.108 332.384 382.481 335.994 381.155 339.37C379.829 342.746 377.832 345.818 375.285 348.4C372.508 351.184 369.137 353.301 365.424 354.592C361.647 355.846 357.791 356.98 353.868 358.221L329.555 365.734L286.454 379.078H286.267L286.134 378.945L247.437 340.114C245.021 332.107 243.1 325.849 241.792 321.512C241.152 319.364 240.658 317.723 240.324 316.562L239.951 315.227C239.871 314.934 239.844 314.787 239.844 314.787C239.915 314.919 239.973 315.057 240.017 315.201C240.111 315.521 240.257 315.934 240.431 316.468L242.006 321.379L247.837 339.927V339.833L286.694 378.531L286.374 378.451L329.448 365.107L353.774 357.608C357.684 356.38 361.581 355.246 365.303 354.005C368.93 352.756 372.225 350.698 374.938 347.987C377.431 345.467 379.388 342.47 380.693 339.175C381.998 335.879 382.623 332.354 382.531 328.811C382.447 325.591 381.811 322.409 380.649 319.404L377.767 310.917C374.124 300.109 371.161 291.355 369.107 285.27C368.106 282.268 367.332 279.933 366.785 278.291C366.531 277.517 366.344 276.957 366.198 276.476C366.051 275.996 365.917 275.796 365.917 275.796Z" fill="#263238"/>
<path d="M516.103 249.268C515.971 249.325 515.832 249.365 515.69 249.388L514.489 249.668L509.858 250.669L492.765 254.205C478.313 257.114 458.351 261.064 436.213 265.08C425.151 267.082 414.596 268.91 404.962 270.418C402.56 270.805 400.198 271.125 397.916 271.459C395.634 271.792 393.406 272.113 391.244 272.339C387.234 272.934 383.152 272.853 379.168 272.099C375.903 271.33 372.84 269.869 370.187 267.816C368.193 266.286 366.331 264.589 364.623 262.745C363.209 261.237 362.168 260.076 361.46 259.196L360.673 258.248C360.5 258.035 360.42 257.915 360.433 257.901C360.446 257.888 360.54 257.995 360.727 258.195L361.567 259.102C362.301 259.903 363.382 261.09 364.81 262.558C366.541 264.357 368.416 266.013 370.414 267.509C373.045 269.491 376.064 270.896 379.275 271.632C383.213 272.329 387.238 272.374 391.191 271.766C393.326 271.525 395.541 271.192 397.863 270.845C400.185 270.498 402.493 270.178 404.895 269.777C414.516 268.269 425.071 266.428 436.133 264.44C458.257 260.437 478.247 256.567 492.711 253.765L509.805 250.362L514.462 249.481L515.676 249.268C515.818 249.25 515.962 249.25 516.103 249.268Z" fill="#263238"/>
<path d="M420.868 267.443C419.608 264.485 418.551 261.444 417.705 258.342C416.656 255.291 415.822 252.17 415.21 249.001C416.486 251.953 417.543 254.995 418.372 258.102C419.429 261.151 420.263 264.273 420.868 267.443Z" fill="#263238"/>
<path d="M271.696 315.027C271.852 314.934 272.017 314.857 272.19 314.8C272.696 314.621 273.219 314.491 273.751 314.413C274.171 314.322 274.605 314.32 275.026 314.407C275.446 314.495 275.844 314.669 276.193 314.92C276.663 315.262 277.035 315.722 277.27 316.254C277.504 316.786 277.593 317.371 277.527 317.949C277.424 318.634 277.176 319.289 276.802 319.87C276.427 320.452 275.933 320.948 275.352 321.325C274.04 322.128 272.607 322.714 271.109 323.06L261.154 325.929C260.255 326.225 259.312 326.369 258.365 326.356C257.881 326.343 257.405 326.229 256.968 326.019C256.531 325.81 256.143 325.511 255.83 325.142C255.558 324.76 255.379 324.319 255.308 323.856C255.236 323.393 255.273 322.919 255.416 322.473C255.674 321.631 256.187 320.889 256.884 320.351C258.156 319.478 259.562 318.82 261.047 318.403C262.382 317.936 263.649 317.536 264.797 317.175L270.255 315.521C270.913 315.281 271.586 315.084 272.27 314.933C272.117 315.035 271.95 315.116 271.776 315.174C271.456 315.32 270.962 315.521 270.335 315.747C269 316.228 267.212 316.842 264.93 317.602C263.796 317.976 262.542 318.403 261.221 318.937C259.799 319.37 258.449 320.013 257.218 320.845C256.619 321.317 256.184 321.966 255.977 322.7C255.852 323.056 255.815 323.437 255.869 323.811C255.922 324.185 256.064 324.541 256.284 324.848C256.545 325.148 256.867 325.39 257.228 325.558C257.588 325.725 257.981 325.815 258.379 325.822C259.253 325.829 260.123 325.694 260.954 325.422L270.922 322.593C272.366 322.273 273.752 321.733 275.032 320.992C275.56 320.66 276.013 320.221 276.363 319.704C276.712 319.187 276.949 318.603 277.06 317.989C277.124 317.486 277.055 316.976 276.861 316.508C276.667 316.04 276.354 315.63 275.952 315.32C275.646 315.083 275.292 314.911 274.916 314.817C274.539 314.723 274.147 314.708 273.764 314.773C272.416 314.8 271.709 315.094 271.696 315.027Z" fill="#263238"/>
<path d="M545.404 254.48L542.089 255.503L548.388 275.903L551.703 274.88L545.404 254.48Z" fill="#263238"/>
<path d="M561.313 262.372C559.594 259.193 558.079 255.908 556.776 252.537C555.268 249.255 553.967 245.881 552.879 242.436C554.611 245.609 556.126 248.894 557.416 252.271C558.935 255.548 560.237 258.923 561.313 262.372Z" fill="#455A64"/>
<g opacity="0.3">
<path d="M327.34 384.909C328.674 378.984 323.057 372.579 316.998 373.18C313.609 373.513 310.326 375.635 307.031 375.021C302.654 374.234 300.465 369.417 299.024 365.227C297.583 361.037 295.301 356.233 290.924 355.499C286.307 354.725 282.544 358.995 279.942 362.891C277.34 366.788 274.004 371.231 269.334 371.071C264.263 370.898 260.5 365.173 255.443 365.48C253.918 365.66 252.484 366.301 251.333 367.316C250.182 368.332 249.367 369.674 248.998 371.165C248.21 374.114 250.185 376.943 250.466 379.998C250.692 382.427 272.963 401.349 272.963 401.349L327.34 384.909Z" fill="black"/>
</g>
<path d="M95.409 423.033L100.747 440.26C101.802 443.682 104.173 446.545 107.338 448.219C110.504 449.893 114.204 450.241 117.627 449.187L136.428 443.382C136.428 443.382 142.807 440.113 140.845 433.761C138.884 427.41 135.614 405.552 136.842 399.868C138.07 394.183 137.909 386.444 148.211 383.255L199.358 367.469C202.442 366.717 205.667 366.764 208.727 367.605C211.788 368.445 214.584 370.052 216.852 372.273L252.2 403.284C254.609 405.641 257.601 407.315 260.87 408.133C264.139 408.951 267.567 408.885 270.802 407.941L421.948 361.237C424.919 360.321 427.638 358.731 429.895 356.593C432.151 354.455 433.884 351.825 434.959 348.907L453.187 299.388C454.521 295.761 456.675 292.49 459.48 289.831C462.285 287.172 465.666 285.195 469.359 284.056L506.656 272.527C506.656 272.527 526.765 269.858 534.825 286.097L543.298 274.381C543.298 274.381 528.18 246.226 496.341 255.807C472.829 262.879 458.231 267.576 458.231 267.576C458.231 267.576 442.071 270.472 433.865 290.261C427.006 306.807 409.032 355.726 409.032 355.726L272.243 397.946L226.38 359.115C222.589 354.743 217.584 351.595 212.002 350.069C206.419 348.544 200.509 348.711 195.021 350.549L145.782 365.774C138.902 367.843 132.725 371.768 127.928 377.116C121.911 384.027 118.553 392.854 118.454 402.016L118.321 415.987L95.409 423.033Z" fill="#263238"/>
<g opacity="0.3">
<path d="M329.862 308.916C323.817 310.25 322.496 317.99 324.845 323.728C326.179 326.93 329.075 329.799 328.594 333.228C328.207 335.897 325.926 337.765 324.751 340.167C323.874 342.199 323.763 344.479 324.437 346.586C325.112 348.694 326.527 350.485 328.421 351.63C330.378 352.658 332.622 353.003 334.797 352.612C336.972 352.22 338.955 351.114 340.43 349.468C342.192 347.453 343.099 344.771 344.954 342.796C347.009 340.634 349.971 339.62 352.347 337.805C354.722 335.991 356.483 332.588 354.869 330.093C353.427 327.891 350.318 327.717 347.983 326.503C345.194 325.062 343.566 322.1 342.339 319.204C341.111 316.308 340.083 313.226 337.935 310.931C335.787 308.636 332.104 307.395 329.462 309.103" fill="black"/>
</g>
<g opacity="0.3">
<path d="M373.083 292.609C371.63 293.464 370.493 294.767 369.843 296.323C369.193 297.879 369.065 299.603 369.479 301.238C369.893 302.872 370.825 304.328 372.136 305.388C373.448 306.448 375.068 307.053 376.753 307.114C380.756 307.274 384.759 304.312 388.629 305.553C393.593 307.154 395.074 314.76 400.238 315.481C403.801 315.974 406.79 312.719 408.244 309.423C409.699 306.127 410.433 302.39 412.901 299.762C414.943 297.587 417.945 296.466 419.813 294.144C420.76 292.966 421.358 291.545 421.537 290.045C421.717 288.544 421.472 287.023 420.829 285.654C420.187 284.286 419.173 283.126 417.904 282.305C416.634 281.485 415.16 281.037 413.648 281.013C408.017 280.933 403.32 286.618 397.729 285.951C394.3 285.537 391.671 282.868 388.909 280.827C386.147 278.785 382.157 277.304 379.381 279.345C375.191 282.388 377.22 290.688 372.416 292.569" fill="black"/>
</g>
<g opacity="0.3">
<path d="M391.564 328.411C390.856 328.253 390.123 328.246 389.412 328.393C388.702 328.539 388.03 328.834 387.443 329.259C386.855 329.685 386.364 330.23 386.003 330.859C385.641 331.488 385.417 332.186 385.346 332.908C385.354 333.633 385.509 334.35 385.803 335.013C386.096 335.677 386.522 336.273 387.054 336.767C387.586 337.26 388.213 337.639 388.897 337.882C389.581 338.125 390.307 338.226 391.031 338.179C391.749 338.058 392.436 337.796 393.053 337.408C393.669 337.019 394.202 336.513 394.622 335.917C395.041 335.322 395.338 334.649 395.496 333.937C395.654 333.226 395.669 332.491 395.541 331.774C395.157 330.349 394.237 329.129 392.973 328.368C391.71 327.607 390.201 327.364 388.762 327.691" fill="black"/>
</g>
<g opacity="0.3">
<path d="M364.636 368.896C363.302 366.347 364.956 363.038 367.438 361.57C369.92 360.102 372.963 359.996 375.845 359.889C378.727 359.782 381.77 359.649 384.225 358.114C385.973 357.02 387.334 355.272 389.296 354.578C390.313 354.287 391.382 354.223 392.427 354.391C393.472 354.559 394.466 354.956 395.341 355.552C397.075 356.76 398.618 358.222 399.918 359.889" fill="black"/>
</g>
<g opacity="0.3">
<path d="M492.271 237.112C492.271 241.329 490.31 246.639 487.12 249.388C485.51 250.758 483.626 251.77 481.595 252.356C479.563 252.943 477.431 253.091 475.338 252.791C470.974 252.137 466.677 249.548 462.421 250.723C459.525 251.537 457.363 253.965 454.655 255.3C452.856 256.155 450.862 256.515 448.878 256.344C446.894 256.173 444.991 255.476 443.366 254.325C441.849 253.391 440.648 252.022 439.918 250.398C439.187 248.773 438.961 246.966 439.269 245.212C439.269 245.212 484.185 237.472 486.36 237.272C488.028 237.125 492.271 237.112 492.271 237.112Z" fill="black"/>
</g>
<g opacity="0.3">
<path d="M406.39 250.883C406.986 251.622 407.367 252.512 407.489 253.454C407.612 254.396 407.471 255.353 407.083 256.22C406.651 257.044 405.997 257.73 405.195 258.202C404.394 258.673 403.476 258.911 402.546 258.889C399.878 258.782 397.462 256.594 394.927 257.315C392.752 257.928 391.738 260.37 390.017 261.852C389.028 262.664 387.822 263.165 386.549 263.293C385.277 263.422 383.995 263.171 382.864 262.572C381.713 261.823 380.789 260.773 380.194 259.535C379.598 258.298 379.354 256.92 379.488 255.553L406.39 250.883Z" fill="black"/>
</g>
<g opacity="0.3">
<path d="M280.663 301.39C281.198 302.435 281.511 303.58 281.581 304.753C281.651 305.925 281.478 307.1 281.072 308.202C280.665 309.304 280.035 310.31 279.221 311.156C278.406 312.002 277.425 312.671 276.34 313.119C273.591 314.093 270.575 313.546 267.666 313.493C264.757 313.439 261.434 314.16 259.98 316.695C258.205 319.791 260.167 323.581 261.808 326.756C263.449 329.932 264.477 334.389 261.741 336.604C259.646 338.272 256.537 337.565 254.149 336.351C251.76 335.136 249.438 333.468 246.756 333.375C242.539 333.228 239.337 336.925 235.6 338.873C233.274 340.09 230.656 340.641 228.036 340.465C225.416 340.288 222.895 339.391 220.753 337.872C218.61 336.354 216.929 334.273 215.895 331.859C214.86 329.446 214.513 326.793 214.891 324.194V322.42L280.663 301.39Z" fill="black"/>
</g>
<g opacity="0.3">
<path d="M103.482 356.967C101.707 361.064 103.362 367.816 106.631 370.858C108.301 372.356 110.382 373.317 112.604 373.617C114.827 373.917 117.088 373.541 119.095 372.539C121.897 371.085 124.018 368.429 126.981 367.349C130.37 366.094 134.12 367.135 137.736 367.148C141.352 367.162 145.662 365.24 145.849 361.637C145.983 358.728 143.381 355.526 145.155 353.231C146.556 351.416 149.412 352.03 151.587 351.309C152.545 350.991 153.388 350.397 154.011 349.602C154.633 348.807 155.008 347.846 155.088 346.84C155.167 345.833 154.949 344.826 154.459 343.943C153.969 343.06 153.23 342.34 152.334 341.875L103.482 356.967Z" fill="black"/>
</g>
<path d="M295.248 189.5C296.132 192.014 297.86 194.142 300.137 195.524C302.414 196.906 305.1 197.456 307.738 197.08L330.676 193.837L316.878 161.625L298.717 176.81C296.912 178.318 295.612 180.343 294.992 182.611C294.372 184.88 294.461 187.284 295.248 189.5Z" fill="#263238"/>
<path d="M300.978 190.514L297.37 191.628L303.028 209.95L306.636 208.835L300.978 190.514Z" fill="#263238"/>
<path d="M59.2203 372.005C58.9453 371.48 58.7175 370.93 58.5398 370.364C58.1128 369.163 57.579 367.695 56.9252 365.814C55.5908 361.971 53.8027 356.633 51.8678 350.735C50.907 347.773 49.9596 344.971 49.199 342.382C48.4419 340.077 48.1162 337.652 48.2383 335.23C48.3558 333.586 48.8734 331.997 49.7461 330.599C49.9803 330.221 50.258 329.872 50.5734 329.558C50.7869 329.345 50.907 329.238 50.9337 329.265C50.9604 329.291 50.5201 329.745 49.973 330.733C49.2225 332.132 48.7982 333.683 48.732 335.27C48.385 339.273 50.7069 344.61 52.5483 350.508C54.3898 356.406 56.2179 361.771 57.4189 365.667C57.9793 367.508 58.4597 369.056 58.7533 370.284C58.9734 370.838 59.1301 371.416 59.2203 372.005Z" fill="#FAFAFA"/>
<path d="M92.9004 388.098C92.2626 387.598 91.7659 386.94 91.4593 386.19C90.5751 384.436 90.1744 382.479 90.2983 380.519C90.4005 378.557 91.0171 376.656 92.0864 375.008C92.9271 373.767 93.6877 373.206 93.7411 373.26C93.7944 373.313 93.2073 374.007 92.5001 375.261C91.6055 376.906 91.0902 378.73 90.9922 380.599C90.8862 382.45 91.1962 384.301 91.8996 386.017C92.4467 387.298 92.9938 388.032 92.9004 388.098Z" fill="#FAFAFA"/>
<path d="M199.452 352.417C199.35 352.482 199.237 352.527 199.118 352.55L198.117 352.871L194.261 354.045L180.023 358.222L158.899 364.333L152.788 366.081C150.706 366.668 148.598 367.309 146.503 368.096C142.146 369.648 138.031 371.809 134.28 374.515C130.784 377.138 127.974 380.567 126.087 384.509C124.292 388.193 123.077 392.131 122.484 396.185C121.296 403.978 121.79 411.17 122.017 417.242V417.442H121.83L106.284 422.74L102.041 424.141L100.933 424.488L100.546 424.581C100.546 424.581 100.653 424.514 100.907 424.408L101.988 423.994L106.191 422.499L121.63 417.015L121.456 417.268C121.163 411.197 120.616 403.925 121.79 396.092C122.381 391.97 123.605 387.964 125.42 384.216C127.348 380.168 130.228 376.647 133.813 373.954C137.616 371.212 141.79 369.024 146.209 367.456C148.331 366.668 150.466 366.028 152.548 365.441L158.673 363.706L179.836 357.741L194.127 353.738L198.024 352.697L199.038 352.444L199.452 352.417Z" fill="#FAFAFA"/>
<path d="M245.555 340.821C244.923 339.825 244.4 338.765 243.994 337.658C243.126 335.67 242.019 332.868 240.938 329.732C239.857 326.596 239.03 323.701 238.483 321.592C238.125 320.469 237.892 319.31 237.789 318.136C238.281 319.206 238.674 320.318 238.963 321.459C239.617 323.514 240.524 326.369 241.632 329.465C242.739 332.561 243.727 335.403 244.474 337.472C244.936 338.553 245.297 339.674 245.555 340.821Z" fill="#FAFAFA"/>
<path d="M212.115 241.502C212.302 241.502 217.653 257.315 224.125 276.943C230.596 296.572 235.614 312.532 235.44 312.598C235.267 312.665 229.889 296.786 223.431 277.157C216.972 257.528 211.928 241.569 212.115 241.502Z" fill="#FAFAFA"/>
<path d="M293.406 210.331L292.939 210.517L291.605 210.971L286.267 212.692L266.718 218.871L202.12 239.007L137.456 259.023L126.26 262.372C123.424 263.124 120.649 264.092 117.96 265.268C116.277 266.032 114.787 267.163 113.597 268.577C113.208 269.091 112.848 269.626 112.516 270.178C112.749 269.568 113.073 268.997 113.477 268.483C114.652 267.014 116.144 265.828 117.84 265.014C120.527 263.79 123.307 262.782 126.153 261.998L137.296 258.489L201.907 238.353L266.558 218.404L286.174 212.426L291.511 210.838L292.913 210.437C293.073 210.384 293.238 210.348 293.406 210.331Z" fill="#FAFAFA"/>
<path d="M590.523 318.416C589.188 320.258 586.733 319.644 585.572 318.523C584.513 317.297 583.791 315.816 583.477 314.226C582.463 310.69 581.435 306.967 582.143 303.365C582.308 302.278 582.769 301.257 583.477 300.416C583.844 300.002 584.313 299.692 584.838 299.516C585.362 299.341 585.924 299.306 586.466 299.415C587.081 299.656 587.638 300.026 588.098 300.5C588.558 300.974 588.912 301.541 589.135 302.164C590.804 305.627 591.68 309.42 591.697 313.266C591.81 315.065 591.387 316.857 590.483 318.416" fill="#FFC727"/>
<g opacity="0.2">
<path d="M590.523 318.416C589.188 320.258 586.733 319.644 585.572 318.523C584.513 317.297 583.791 315.816 583.477 314.226C582.463 310.69 581.435 306.967 582.143 303.365C582.308 302.278 582.769 301.257 583.477 300.416C583.844 300.002 584.313 299.692 584.838 299.516C585.362 299.341 585.924 299.306 586.466 299.415C587.081 299.656 587.638 300.026 588.098 300.5C588.558 300.974 588.912 301.541 589.135 302.164C590.804 305.627 591.68 309.42 591.697 313.266C591.81 315.065 591.387 316.857 590.483 318.416" fill="black"/>
</g>
<path d="M585.692 327.664C583.537 326.653 581.115 326.359 578.78 326.823C577.505 326.942 576.305 327.476 575.364 328.345C574.92 328.802 574.672 329.415 574.672 330.053C574.672 330.69 574.92 331.303 575.364 331.761C575.995 332.186 576.754 332.379 577.512 332.308C579.34 332.308 581.369 331.961 582.85 333.055C583.69 333.682 584.184 334.736 585.238 335.043C585.737 335.156 586.26 335.104 586.726 334.895C587.193 334.685 587.58 334.33 587.827 333.882C588.302 332.969 588.407 331.908 588.121 330.92C587.997 330.226 587.713 329.57 587.291 329.005C586.87 328.44 586.322 327.981 585.692 327.664Z" fill="#FFC727"/>
<path d="M594.005 320.992C593.344 320.129 592.903 319.117 592.722 318.045C592.54 316.973 592.624 315.873 592.965 314.84C593.668 312.761 594.928 310.915 596.607 309.502C598.515 307.813 600.73 306.508 603.133 305.659C604.064 305.285 605.066 305.116 606.068 305.166C606.569 305.193 607.056 305.342 607.486 305.6C607.916 305.858 608.277 306.218 608.537 306.647C609.217 307.981 608.537 309.542 607.843 310.85C606.591 313.131 605.158 315.309 603.56 317.362C602.386 319.103 600.756 320.487 598.849 321.365C596.888 322.112 594.846 322.019 593.819 320.671" fill="#FFC727"/>
<path d="M590.603 346.065C590.531 345.795 590.49 345.517 590.483 345.238C590.483 344.624 590.349 343.903 590.269 342.956C590.153 341.836 589.979 340.722 589.749 339.62C589.452 338.255 589.046 336.916 588.534 335.617C588.034 334.34 587.356 333.14 586.519 332.054C585.962 331.302 585.261 330.669 584.457 330.19C583.653 329.711 582.762 329.397 581.836 329.265C581.556 329.257 581.279 329.217 581.008 329.145C581.288 329.113 581.57 329.113 581.849 329.145C582.625 329.206 583.384 329.404 584.091 329.732C585.132 330.231 586.044 330.961 586.76 331.867C587.634 332.969 588.336 334.197 588.841 335.51C589.365 336.805 589.771 338.145 590.056 339.513C590.268 340.629 590.415 341.756 590.496 342.889C590.563 343.863 590.589 344.651 590.603 345.184C590.638 345.477 590.638 345.773 590.603 346.065Z" fill="#263238"/>
<path d="M590.443 344.317C590.428 344.188 590.428 344.058 590.443 343.93V342.822C590.443 341.861 590.443 340.474 590.443 338.752C590.362 335.323 590.069 330.572 589.495 325.408C588.921 320.244 588.161 315.494 587.453 312.131C587.293 311.291 587.133 310.53 586.973 309.863C586.813 309.196 586.693 308.635 586.573 308.168C586.453 307.701 586.386 307.367 586.319 307.087C586.281 306.961 586.259 306.831 586.253 306.7C586.311 306.819 586.356 306.945 586.386 307.074L586.706 308.128C586.853 308.595 587 309.155 587.16 309.823C587.32 310.49 587.52 311.237 587.694 312.091C588.645 316.476 589.362 320.908 589.842 325.368C590.403 330.586 590.669 335.35 590.683 338.792C590.683 340.514 590.683 341.902 590.683 342.862C590.683 343.316 590.683 343.676 590.616 343.97C590.571 344.091 590.513 344.208 590.443 344.317Z" fill="#263238"/>
<path d="M590.429 335.149C590.394 334.763 590.394 334.375 590.429 333.988C590.495 332.938 590.615 331.891 590.789 330.853C591.041 329.313 591.379 327.79 591.804 326.289C592.318 324.469 592.956 322.685 593.712 320.951C595.034 317.696 596.943 314.711 599.343 312.144C599.759 311.71 600.205 311.304 600.677 310.93C600.891 310.757 601.064 310.583 601.251 310.45L601.758 310.089C602.064 309.856 602.39 309.651 602.732 309.476C601.61 310.355 600.545 311.304 599.543 312.318C597.205 314.899 595.332 317.865 594.005 321.085C593.252 322.821 592.61 324.604 592.084 326.422C591.59 328.104 591.256 329.652 591.003 330.946C590.749 332.24 590.629 333.321 590.536 334.055C590.519 334.421 590.483 334.787 590.429 335.149Z" fill="#263238"/>
<path d="M201.6 103.94C201.6 103.94 200.399 103.526 198.171 103.032C195.033 102.343 191.798 102.216 188.617 102.659C183.887 103.284 179.425 105.21 175.726 108.223C171.199 111.912 168.007 116.984 166.639 122.661V122.821L166.372 123.849L165.972 122.875C163.739 117.471 159.907 112.88 154.99 109.717C150.994 107.124 146.399 105.599 141.646 105.287C138.453 105.064 135.245 105.357 132.145 106.155C129.957 106.742 128.796 107.249 128.769 107.182C129.027 107.015 129.305 106.88 129.596 106.782C130.404 106.434 131.233 106.14 132.078 105.901C135.189 104.985 138.435 104.611 141.673 104.794C146.513 105.055 151.203 106.568 155.283 109.184C160.3 112.408 164.208 117.093 166.479 122.608H165.812V122.448C167.213 116.625 170.496 111.428 175.153 107.662C178.953 104.612 183.536 102.692 188.376 102.125C191.614 101.718 194.899 101.917 198.064 102.712C198.922 102.923 199.764 103.19 200.586 103.513C200.941 103.611 201.282 103.754 201.6 103.94Z" fill="#263238"/>
<path d="M297.183 51.538C297.183 51.538 296.516 51.3512 295.288 51.0976C293.566 50.7426 291.796 50.6929 290.057 50.9508C287.505 51.2975 285.096 52.3358 283.092 53.9532C280.629 55.9609 278.894 58.7225 278.154 61.8128V61.9062L277.887 62.9337L277.5 61.9596C276.293 59.0282 274.228 56.5304 271.576 54.7939C269.409 53.3721 266.915 52.527 264.33 52.3386C262.584 52.2021 260.827 52.3463 259.126 52.7656C257.925 53.0592 257.271 53.3261 257.258 53.2727C257.244 53.2193 257.391 53.1659 257.698 53.0192C258.132 52.8183 258.577 52.6445 259.032 52.4987C261.167 51.8469 263.418 51.6621 265.63 51.9568C267.843 52.2515 269.966 53.0189 271.856 54.2068C274.646 55.9894 276.818 58.5897 278.074 61.6527H277.407V61.5593C278.191 58.3259 280.026 55.4442 282.625 53.3661C284.73 51.6694 287.276 50.6093 289.964 50.3103C291.751 50.1019 293.561 50.2286 295.301 50.684C295.756 50.8095 296.202 50.9656 296.636 51.151C297.036 51.3778 297.196 51.4579 297.183 51.538Z" fill="#263238"/>
<path d="M234.693 30.0142C234.693 30.0142 234.039 30.7614 232.852 32.0958C231.193 33.9998 229.698 36.0397 228.381 38.194C223.977 45.2664 221.664 53.441 221.709 61.7727V62.0663H221.029C220.347 57.5953 218.888 53.278 216.719 49.3095C213.748 43.8605 209.556 39.1742 204.469 35.6186C203.015 34.6178 202.174 34.1107 202.201 34.0574C202.43 34.1227 202.647 34.2265 202.841 34.3643C203.45 34.6753 204.043 35.0183 204.616 35.3918C206.738 36.7455 208.71 38.32 210.501 40.0888C213.175 42.7204 215.458 45.7223 217.279 49.0026C219.514 53.0287 221.015 57.4207 221.709 61.9729H221.016V61.6793C220.95 53.2237 223.362 44.9339 227.954 37.8337C229.322 35.6934 230.896 33.6912 232.651 31.8556C233.252 31.1884 233.799 30.7347 234.133 30.4145C234.305 30.2613 234.492 30.1271 234.693 30.0142Z" fill="#263238"/>
<path d="M109.634 80.2937C128.559 80.2937 143.901 64.9518 143.901 46.0265C143.901 27.1012 128.559 11.7593 109.634 11.7593C90.7085 11.7593 75.3665 27.1012 75.3665 46.0265C75.3665 64.9518 90.7085 80.2937 109.634 80.2937Z" fill="#FFC727"/>
<path opacity="0.2" d="M90.5919 59.9842C95.817 59.9842 100.053 55.7484 100.053 50.5233C100.053 45.2983 95.817 41.0625 90.5919 41.0625C85.3669 41.0625 81.1311 45.2983 81.1311 50.5233C81.1311 55.7484 85.3669 59.9842 90.5919 59.9842Z" fill="black"/>
<path opacity="0.2" d="M102.548 66.7233C102.551 67.4608 102.334 68.1824 101.926 68.7967C101.518 69.411 100.937 69.8902 100.256 70.1736C99.5752 70.4571 98.8255 70.5319 98.1021 70.3887C97.3787 70.2455 96.7141 69.8906 96.1926 69.3692C95.6711 68.8477 95.3163 68.1831 95.1731 67.4597C95.0298 66.7363 95.1047 65.9866 95.3881 65.3058C95.6716 64.6249 96.1508 64.0436 96.7651 63.6356C97.3794 63.2275 98.101 63.0111 98.8385 63.0137C99.8212 63.0172 100.763 63.4092 101.458 64.1041C102.153 64.799 102.545 65.7405 102.548 66.7233Z" fill="black"/>
</svg>
