<svg width="625" height="466" viewBox="0 0 625 466" fill="none" xmlns="http://www.w3.org/2000/svg">
<path d="M624.163 408.74H0V409.052H624.163V408.74Z" fill="#EBEBEB"/>
<path d="M559.622 428.825H518.278V429.137H559.622V428.825Z" fill="#EBEBEB"/>
<path d="M411.471 432.221H400.623V432.533H411.471V432.221Z" fill="#EBEBEB"/>
<path d="M517.029 417.241H493.074V417.553H517.029V417.241Z" fill="#EBEBEB"/>
<path d="M119.402 419.338H65.4872V419.65H119.402V419.338Z" fill="#EBEBEB"/>
<path d="M137.427 419.338H129.525V419.65H137.427V419.338Z" fill="#EBEBEB"/>
<path d="M280.061 424.606H163.118V424.919H280.061V424.606Z" fill="#EBEBEB"/>
<path d="M295.853 353.064H54.814C52.9257 353.061 51.1159 352.309 49.7819 350.972C48.4478 349.636 47.6985 347.825 47.6985 345.936V7.10313C47.715 5.22568 48.4715 3.43052 49.8038 2.1076C51.1361 0.784669 52.9365 0.0408138 54.814 0.0375977H295.853C297.744 0.0375977 299.557 0.788576 300.894 2.12533C302.23 3.46207 302.981 5.27509 302.981 7.16554V345.936C302.981 347.827 302.23 349.64 300.894 350.977C299.557 352.313 297.744 353.064 295.853 353.064ZM54.814 0.287264C53.0085 0.290571 51.2781 1.01013 50.0025 2.28799C48.727 3.56585 48.0106 5.29761 48.0106 7.10313V345.936C48.0106 347.742 48.727 349.474 50.0025 350.752C51.2781 352.029 53.0085 352.749 54.814 352.752H295.853C297.66 352.749 299.392 352.03 300.669 350.752C301.947 349.475 302.666 347.743 302.669 345.936V7.10313C302.666 5.29646 301.947 3.56474 300.669 2.28723C299.392 1.00972 297.66 0.290564 295.853 0.287264H54.814Z" fill="#EBEBEB"/>
<path d="M564.879 353.064H323.827C321.938 353.061 320.127 352.309 318.791 350.973C317.455 349.637 316.703 347.826 316.699 345.936V7.10313C316.719 5.22454 317.478 3.4294 318.812 2.10682C320.147 0.784233 321.948 0.0407788 323.827 0.0375977H564.879C566.754 0.0440946 568.552 0.789401 569.881 2.11198C571.211 3.43455 571.966 5.22783 571.982 7.10313V345.936C571.982 347.823 571.235 349.632 569.903 350.968C568.572 352.304 566.765 353.058 564.879 353.064ZM323.827 0.287264C322.02 0.290564 320.289 1.00972 319.011 2.28723C317.734 3.56474 317.015 5.29646 317.011 7.10313V345.936C317.015 347.743 317.734 349.475 319.011 350.752C320.289 352.03 322.02 352.749 323.827 352.752H564.879C566.686 352.749 568.417 352.03 569.695 350.752C570.972 349.475 571.692 347.743 571.695 345.936V7.10313C571.692 5.29646 570.972 3.56474 569.695 2.28723C568.417 1.00972 566.686 0.290564 564.879 0.287264H323.827Z" fill="#EBEBEB"/>
<path d="M416.689 168.362C445.335 168.362 468.557 145.14 468.557 116.494C468.557 87.8481 445.335 64.626 416.689 64.626C388.043 64.626 364.821 87.8481 364.821 116.494C364.821 145.14 388.043 168.362 416.689 168.362Z" fill="#F5F5F5"/>
<path d="M509.252 106.27C509.252 104.029 508.362 101.879 506.777 100.294C505.192 98.7095 503.043 97.8192 500.801 97.8192C499.98 97.8166 499.164 97.9387 498.379 98.1812C498.499 97.3207 498.561 96.4533 498.567 95.5846C498.571 92.9515 497.994 90.35 496.875 87.9662C495.757 85.5824 494.125 83.4753 492.098 81.7957C490.07 80.1161 487.696 78.9056 485.145 78.2509C482.595 77.5961 479.931 77.5132 477.345 78.0082C475.581 75.1114 472.923 72.8666 469.771 71.6121C466.62 70.3576 463.146 70.1615 459.874 71.0532C456.601 71.9449 453.708 73.8762 451.628 76.5559C449.549 79.2357 448.397 82.5187 448.346 85.9101H448.084C444.335 86.0205 440.777 87.5872 438.164 90.278C435.552 92.9687 434.09 96.5716 434.09 100.322C434.09 104.073 435.552 107.675 438.164 110.366C440.777 113.057 444.335 114.624 448.084 114.734H501.076C503.271 114.663 505.353 113.739 506.879 112.159C508.406 110.579 509.257 108.467 509.252 106.27Z" fill="#EBEBEB"/>
<path d="M376.756 152.758C376.756 150.519 375.868 148.371 374.285 146.787C372.703 145.202 370.557 144.31 368.318 144.307C367.472 144.299 366.63 144.421 365.821 144.669C366.205 142.126 366.033 139.529 365.319 137.059C364.605 134.588 363.364 132.301 361.682 130.355C360.001 128.409 357.918 126.849 355.577 125.784C353.236 124.719 350.692 124.173 348.12 124.184C347.014 124.186 345.911 124.291 344.824 124.496C343.053 121.627 340.402 119.408 337.266 118.17C334.13 116.932 330.678 116.741 327.425 117.625C324.172 118.51 321.292 120.423 319.215 123.078C317.138 125.734 315.975 128.99 315.9 132.36H315.638C311.889 132.471 308.331 134.038 305.718 136.728C303.106 139.419 301.644 143.022 301.644 146.772C301.644 150.523 303.106 154.126 305.718 156.816C308.331 159.507 311.889 161.074 315.638 161.184H368.505C370.708 161.135 372.805 160.226 374.347 158.652C375.889 157.077 376.753 154.962 376.756 152.758Z" fill="#EBEBEB"/>
<path d="M144.806 168.749C144.806 166.509 143.917 164.362 142.335 162.777C140.753 161.193 138.606 160.301 136.367 160.297C135.522 160.293 134.681 160.41 133.871 160.647C134.001 159.792 134.067 158.928 134.07 158.063C134.063 155.433 133.478 152.837 132.357 150.458C131.235 148.079 129.604 145.976 127.579 144.298C125.554 142.62 123.185 141.407 120.639 140.747C118.094 140.086 115.434 139.993 112.849 140.474C111.087 137.573 108.429 135.325 105.276 134.068C102.124 132.812 98.6476 132.616 95.3737 133.51C92.0997 134.404 89.2057 136.339 87.129 139.023C85.0523 141.708 83.9057 144.995 83.8626 148.388H83.6004C79.8516 148.499 76.2932 150.066 73.6805 152.756C71.0679 155.447 69.6064 159.05 69.6064 162.8C69.6064 166.551 71.0679 170.154 73.6805 172.844C76.2932 175.535 79.8516 177.102 83.6004 177.212H136.517C138.734 177.176 140.848 176.267 142.4 174.683C143.952 173.099 144.816 170.966 144.806 168.749Z" fill="#EBEBEB"/>
<path d="M504.371 209.058C504.371 207.704 503.833 206.405 502.876 205.448C501.918 204.49 500.62 203.952 499.266 203.952C498.767 203.952 498.271 204.023 497.793 204.164C498.016 202.628 497.907 201.062 497.472 199.572C497.038 198.082 496.287 196.703 495.273 195.529C494.258 194.354 493.003 193.411 491.591 192.765C490.18 192.118 488.647 191.783 487.094 191.781C486.428 191.78 485.764 191.842 485.11 191.968C484.035 190.237 482.43 188.9 480.534 188.156C478.638 187.411 476.552 187.299 474.587 187.837C472.622 188.374 470.884 189.533 469.63 191.139C468.377 192.745 467.677 194.713 467.633 196.749H467.371C465.053 196.749 462.831 197.67 461.192 199.309C459.553 200.947 458.633 203.17 458.633 205.488C458.633 207.805 459.553 210.028 461.192 211.667C462.831 213.305 465.053 214.226 467.371 214.226H499.353C500.022 214.216 500.682 214.075 501.297 213.81C501.911 213.545 502.467 213.161 502.933 212.681C503.399 212.201 503.766 211.634 504.012 211.013C504.259 210.391 504.381 209.727 504.371 209.058Z" fill="#EBEBEB"/>
<path d="M196.772 44.8652C196.779 44.0681 196.597 43.2808 196.241 42.5672C195.886 41.8536 195.368 41.2339 194.728 40.7584C194.088 40.2829 193.345 39.9649 192.56 39.8304C191.774 39.6959 190.968 39.7486 190.206 39.9842C190.43 38.4482 190.321 36.8821 189.886 35.3921C189.451 33.902 188.701 32.5229 187.686 31.3484C186.672 30.1738 185.416 29.2312 184.005 28.5846C182.594 27.938 181.06 27.6025 179.508 27.6008C178.838 27.5995 178.169 27.6622 177.511 27.788C176.436 26.0572 174.832 24.7199 172.935 23.9755C171.039 23.231 168.953 23.1192 166.988 23.6567C165.023 24.1943 163.285 25.3524 162.032 26.9584C160.778 28.5645 160.078 30.5325 160.034 32.5691H159.884C157.567 32.5691 155.344 33.4898 153.706 35.1285C152.067 36.7673 151.146 38.9899 151.146 41.3074C151.146 43.625 152.067 45.8476 153.706 47.4863C155.344 49.1251 157.567 50.0457 159.884 50.0457H191.867C193.199 49.9937 194.458 49.4227 195.375 48.4546C196.291 47.4865 196.793 46.1983 196.772 44.8652Z" fill="#EBEBEB"/>
<path d="M112.175 235.547L145.979 389.104L152.121 386.22L116.619 234.686L112.175 235.547Z" fill="#EBEBEB"/>
<path d="M498.304 388.367C498.304 388.367 477.358 244.085 524.444 94.9101L517.067 89.2178C517.067 89.2178 461.941 202.066 469.967 392.461L498.304 388.367Z" fill="#E6E6E6"/>
<path d="M537.277 55.688C554.529 44.3782 580.057 62.3666 583.565 90.4789C581.029 89.0169 578.378 87.7644 575.638 86.7339C574.303 79.6559 573.017 73.4018 573.017 73.4018L573.941 86.0973C572.418 85.548 570.757 85.0112 568.947 84.5244L567.699 77.696L567.137 84.075C564.694 83.5045 562.217 83.0875 559.722 82.8267L556.501 62.8534L554.879 82.4272C552.323 82.3563 549.766 82.4689 547.226 82.7642L545.254 69.2074V83.0389C543.068 83.3921 540.908 83.8883 538.788 84.5244L536.428 64.3015C536.428 64.3015 536.491 75.6737 536.366 85.3233C530.261 87.5355 524.616 90.8532 519.713 95.1102L519.526 92.6135C519.526 92.6135 521.511 65.9992 537.277 55.688Z" fill="#E0E0E0"/>
<path d="M513.422 46.6498C499.69 31.233 470.379 41.9187 459.656 68.1336C462.483 67.3747 465.369 66.8527 468.282 66.5731C471.415 60.0943 474.299 54.3895 474.299 54.3895L470.092 66.3984C471.703 66.2736 473.438 66.1986 475.298 66.1986L478.231 59.957L477.108 66.2611C479.616 66.3293 482.118 66.5545 484.598 66.9352L492.924 48.5348L489.404 67.8839C491.892 68.4751 494.334 69.2512 496.707 70.2058L502.162 57.6351L498.579 70.9423C500.602 71.8466 502.559 72.8937 504.434 74.0756L512.011 55.1634C512.011 55.1634 508.965 66.1237 506.568 75.4612C511.881 79.1986 516.46 83.8832 520.075 89.2802L520.912 86.9209C520.912 86.9209 525.917 60.731 513.422 46.6498Z" fill="#E0E0E0"/>
<path d="M500.227 83.2133C513.958 69.8187 524.27 81.4781 524.27 81.4781C519.114 82.8138 514.508 86.1219 510.538 90.3287L508.678 87.907L508.978 92.039C508.029 93.1375 507.105 94.2859 506.219 95.4718L503.073 88.3189L504.421 98.006C503.173 99.8535 501.925 101.751 500.889 103.648L499.503 96.5579L499.615 105.958C498.467 108.08 497.443 110.165 496.532 112.125L495.034 99.1045L494.834 115.944C492.637 121.137 491.489 124.783 491.489 124.783C491.489 124.783 486.495 96.6203 500.227 83.2133Z" fill="#E0E0E0"/>
<path d="M537.277 114.884L534.444 116.519C534.032 114.334 533.545 112.05 533.008 109.728L534.93 106.195L532.509 107.693C532.321 106.919 532.109 106.158 531.909 105.384L534.406 98.4683L530.661 101.227C528.664 94.9854 526.117 89.5053 522.934 86.8838C522.934 86.8838 554.417 96.9453 536.666 130.887C536.666 130.887 536.091 125.52 534.831 118.466L537.277 114.884Z" fill="#E0E0E0"/>
<path d="M506.319 87.1085L501.325 77.6212L503.398 87.508C502.898 87.5829 502.387 87.6827 501.875 87.7826L495.346 79.656L496.956 89.006C494.725 89.6815 492.537 90.4902 490.403 91.4277C488.076 92.4705 485.805 93.633 483.599 94.9105L480.416 86.6092L481.901 95.8967C479.742 97.145 477.632 98.5557 475.66 99.9788L474.087 92.6636L474.237 100.99C471.74 102.787 469.418 104.61 467.271 106.395L467.471 93.1379L465.536 107.856C463.339 109.728 461.354 111.526 459.669 113.124L459.432 103.923L457.097 115.608C454.675 118.017 453.29 119.553 453.29 119.553C454.538 87.3582 467.021 74.6128 487.669 71.1174C508.316 67.6221 523.196 89.1058 523.196 89.1058C523.196 89.1058 516.78 86.0599 506.319 87.1085Z" fill="#E0E0E0"/>
<path d="M566.538 126.456L564.653 136.105C563.742 133.721 562.506 130.663 560.908 127.255L562.606 113.211L559.51 124.284C557.09 119.248 554.285 114.407 551.121 109.803L554.067 100.066L549.299 107.294C548.337 106.045 547.351 104.797 546.328 103.649L548 97.5194L545.416 102.65C544.717 101.876 543.993 101.14 543.257 100.428L545.291 92.2515L542.058 99.3295C540.047 97.4892 537.831 95.8851 535.455 94.5484L538.738 84.5618L533.595 93.6246C530.361 92.1077 526.817 91.3682 523.246 91.465C523.246 91.465 529.488 81.4784 540.96 78.0455C552.432 74.6126 577.161 95.3848 566.426 141.211C566.426 141.211 566.101 140.175 565.452 138.39L566.538 126.456Z" fill="#E0E0E0"/>
<path d="M547.613 37.4126L549.573 43.2298C548.85 43.2708 548.131 43.3752 547.426 43.5419L545.067 35.9646L546.64 43.7292C545.143 44.1765 543.715 44.8276 542.395 45.6641L539.15 35.4403L541.022 46.5878C540.498 46.9748 539.974 47.3992 539.437 47.8362L535.767 38.2365L538.525 48.7225C535.813 51.4378 533.497 54.5225 531.647 57.8852L530.686 43.7292L529.063 62.9409C526.372 68.9485 524.201 75.1754 522.572 81.5535C522.572 81.5535 520.575 30.3721 532.896 24.6298C545.217 18.8874 552.544 43.467 552.544 43.467C551.996 43.3056 551.43 43.2133 550.859 43.1924L547.613 37.4126Z" fill="#E0E0E0"/>
<path d="M530.012 94.3489L528.913 104.048L525.168 94.6984L520.175 102.014L518.203 95.1978L512.435 100.041C512.435 100.041 513.147 87.6703 516.83 82.0154C520.512 76.3605 531.572 80.3302 530.012 94.3489Z" fill="#E0E0E0"/>
<path d="M377.243 250.315V182.68C377.243 182.68 363.511 197.273 354.436 195.276C345.361 193.278 333.552 200.182 333.552 200.182C333.552 200.182 345.448 198.447 349.867 203.278C354.286 208.109 374.01 208.62 374.01 208.62V252.786L377.243 250.315Z" fill="#EBEBEB"/>
<path d="M437.787 229.58H434.666V233.837H424.38V229.58H414.268V233.837H403.982V229.58H393.883V233.837H383.585V229.58H373.486V233.837H363.199V229.58H353.088V233.837H342.802V229.58H332.69V233.837H322.404V229.58H318.946L308.922 309.723L448.148 309.148L437.787 229.58Z" fill="#E0E0E0"/>
<path d="M459.932 287.752H455.65V293.594H441.519V287.752H427.638V293.594H413.494V287.752H399.613V293.594H385.482V287.752H371.601V293.594H357.457V287.752H343.576V293.594H329.432V287.752H315.551V293.594H301.42V287.752H296.664L282.882 397.867L474.188 397.068L459.932 287.752Z" fill="#EBEBEB"/>
<path d="M531.6 384.897C528.641 381.564 525.858 378.156 522.762 374.91C522.601 374.748 522.455 374.573 522.325 374.386C521.306 373.727 520.242 373.138 519.142 372.626C518.942 372.563 518.293 372.301 517.631 372.051C516.383 371.602 515.135 371.115 513.886 370.616C506.134 367.495 499.168 363.875 493.314 357.721C490.106 354.35 487.547 350.418 484.226 347.147C484.139 347.26 483.489 346.91 483.177 346.66L480.681 346.336C479.345 346.336 477.997 346.336 476.661 346.423C474.751 346.511 472.841 346.66 470.931 346.835C463.441 357.721 454.079 372.588 449.934 374.548C443.506 377.594 384.26 393.273 379.891 392.312C375.522 391.351 352.652 393.236 346.91 393.023C341.168 392.811 330.769 390.264 315.702 383.336C300.635 376.408 292.421 376.371 274.282 370.591C256.144 364.811 243.985 362.614 233.375 371.502C222.764 380.39 193.615 361.628 184.528 358.956C175.44 356.285 158.063 340.893 146.204 348.071C134.345 355.249 124.483 358.669 109.666 371.502C94.8479 384.335 65.4498 409.139 65.4498 409.139H566.029L560.274 399.09C554.79 398.756 549.427 397.328 544.503 394.891C539.578 392.453 535.191 389.055 531.6 384.897Z" fill="#F5F5F5"/>
<path d="M53.9028 262.186C53.9028 262.186 68.4707 235.971 107.943 213.352C107.943 213.352 140.075 210.618 176.351 226.434C176.351 226.434 183.704 238.643 175.34 243.461C166.976 248.28 160.048 238.593 160.048 238.593C160.048 238.593 158.5 253.348 147.565 253.773C136.629 254.197 133.459 243.461 133.459 243.461C133.459 243.461 132.385 257.006 119.365 260.426C108.105 263.435 101.114 253.773 101.114 253.773C101.114 253.773 98.8675 264.908 88.7436 268.116C80.6045 270.687 75.012 263.684 75.012 263.684C75.012 263.684 72.6776 275.768 64.0392 275.768C56.6116 275.768 53.9028 262.186 53.9028 262.186Z" fill="#E0E0E0"/>
<path d="M312.082 465.114C445.756 465.114 554.12 458.787 554.12 450.983C554.12 443.179 445.756 436.852 312.082 436.852C178.408 436.852 70.0436 443.179 70.0436 450.983C70.0436 458.787 178.408 465.114 312.082 465.114Z" fill="#F5F5F5"/>
<path d="M477.357 389.403C477.357 389.403 482.788 381.452 487.731 379.23C492.674 377.007 493.473 368.556 496.157 368.094C498.841 367.633 501.8 375.422 506.493 377.694C511.187 379.966 518.29 389.353 518.29 389.353L477.357 389.403Z" fill="#FFC727"/>
<path opacity="0.8" d="M477.357 389.403C477.357 389.403 482.788 381.452 487.731 379.23C492.674 377.007 493.473 368.556 496.157 368.094C498.841 367.633 501.8 375.422 506.493 377.694C511.187 379.966 518.29 389.353 518.29 389.353L477.357 389.403Z" fill="white"/>
<path d="M516.83 446.652H477.333L472.339 389.354H521.823L516.83 446.652Z" fill="#FFC727"/>
<path d="M524.207 386.382H469.942V392.412H524.207V386.382Z" fill="#FFC727"/>
<path opacity="0.2" d="M524.207 386.382H469.942V392.412H524.207V386.382Z" fill="white"/>
<path d="M494.747 390.627C498.342 396.269 513.734 419.55 523.271 421.248L524.444 418.427C524.444 418.427 515.906 419.451 496.981 389.204C496.802 388.91 496.517 388.696 496.185 388.606C495.853 388.515 495.5 388.555 495.196 388.717C495.036 388.807 494.896 388.93 494.785 389.078C494.675 389.225 494.596 389.394 494.554 389.573C494.511 389.753 494.507 389.939 494.54 390.12C494.573 390.302 494.644 390.474 494.747 390.627Z" fill="#263238"/>
<path d="M438.547 372.551C438.953 372.423 439.38 372.378 439.803 372.417C440.227 372.457 440.638 372.581 441.013 372.782C441.387 372.984 441.718 373.258 441.985 373.589C442.252 373.921 442.45 374.302 442.567 374.711L449.308 398.292L458.046 394.784C458.046 394.784 463.326 414.445 453.352 417.553C443.653 420.587 436.163 402.436 436.163 402.436L445.076 399.94L436.562 376.646C436.419 376.247 436.357 375.823 436.379 375.4C436.402 374.977 436.509 374.563 436.694 374.181C436.878 373.8 437.138 373.459 437.456 373.179C437.774 372.899 438.145 372.686 438.547 372.551Z" fill="#FFC727"/>
<path opacity="0.4" d="M453.39 417.553C443.653 420.586 436.163 402.436 436.163 402.436L445.076 399.939C445.076 399.939 446.611 402.561 448.334 401.911C450.057 401.262 449.358 398.254 449.358 398.254L458.096 394.746C458.096 394.746 463.364 414.482 453.39 417.553Z" fill="white"/>
<path d="M528.127 451.495C523.221 449.061 518.203 446.764 516.592 446.652C513.147 446.427 511.162 444.891 508.703 441.958C506.244 439.024 505.245 435.629 500.801 430.91C496.357 426.191 501.288 424.294 491.9 423.083C482.513 421.872 486.146 422.634 480.378 418.477C474.611 414.32 475.785 414.332 469.031 411.361C462.278 408.39 466.222 407.267 458.32 406.605C452.865 406.143 444.239 409.014 439.758 412.21C437.773 413.621 436.762 415.955 434.765 417.203C432.555 418.614 429.122 415.955 429.484 420.711C429.724 421.924 429.779 423.165 429.646 424.394C429.01 427.065 418.012 427.053 415.216 427.889C414.549 428.008 413.952 428.374 413.543 428.913C412.906 430.049 413.868 432.059 412.632 432.471C412.245 432.608 411.808 432.471 411.383 432.533C409.898 432.82 410.285 435.491 408.887 436.103C407.489 436.715 405.878 435.467 404.33 436.103C403.144 436.553 402.745 438.15 401.709 438.787C399.899 439.886 398.026 440.697 396.241 441.87C393.145 443.893 390.461 446.377 387.141 448.112L378.253 450.534L375.594 451.47L528.127 451.495Z" fill="#FFC727"/>
<path opacity="0.8" d="M528.127 451.495C523.221 449.061 518.203 446.764 516.592 446.652C513.147 446.427 511.162 444.891 508.703 441.958C506.244 439.024 505.245 435.629 500.801 430.91C496.357 426.191 501.288 424.294 491.9 423.083C482.513 421.872 486.146 422.634 480.378 418.477C474.611 414.32 475.785 414.332 469.031 411.361C462.278 408.39 466.222 407.267 458.32 406.605C452.865 406.143 444.239 409.014 439.758 412.21C437.773 413.621 436.762 415.955 434.765 417.203C432.555 418.614 429.122 415.955 429.484 420.711C429.724 421.924 429.779 423.165 429.646 424.394C429.01 427.065 418.012 427.053 415.216 427.889C414.549 428.008 413.952 428.374 413.543 428.913C412.906 430.049 413.868 432.059 412.632 432.471C412.245 432.608 411.808 432.471 411.383 432.533C409.898 432.82 410.285 435.491 408.887 436.103C407.489 436.715 405.878 435.467 404.33 436.103C403.144 436.553 402.745 438.15 401.709 438.787C399.899 439.886 398.026 440.697 396.241 441.87C393.145 443.893 390.461 446.377 387.141 448.112L378.253 450.534L375.594 451.47L528.127 451.495Z" fill="white"/>
<path d="M423.367 428.776C423.374 428.867 423.374 428.959 423.367 429.05C423.331 433.278 422.102 437.411 419.822 440.972C419.635 441.259 419.448 441.546 419.235 441.833C417.925 443.694 416.343 445.348 414.542 446.739C414.142 447.064 413.725 447.368 413.293 447.65C413.195 447.726 413.091 447.792 412.981 447.85L412.569 448.112C412.356 448.257 412.135 448.39 411.908 448.512C411.558 448.711 411.196 448.911 410.834 449.086C406.488 451.274 401.552 452.004 396.759 451.168C391.965 450.331 387.568 447.973 384.22 444.442C382.693 442.865 381.409 441.068 380.412 439.112C378.767 435.91 377.911 432.362 377.916 428.763V428.688C377.916 428.052 377.916 427.44 378.003 426.791C378.247 423.863 379.066 421.013 380.412 418.402C380.744 417.746 381.111 417.108 381.511 416.492C382.819 414.464 384.437 412.653 386.305 411.124C386.898 410.639 387.519 410.189 388.165 409.776C388.39 409.615 388.623 409.465 388.864 409.327C390.65 408.228 392.584 407.387 394.606 406.83L395.13 406.693C396.935 406.244 398.788 406.018 400.648 406.019C401.23 406.019 401.805 406.044 402.371 406.093H402.807C405.332 406.333 407.797 407 410.098 408.066L410.385 408.203C413.802 409.82 416.76 412.266 418.99 415.319C421.221 418.371 422.653 421.933 423.155 425.68C423.301 426.705 423.372 427.74 423.367 428.776Z" fill="#FFC727"/>
<path opacity="0.6" d="M423.367 428.776C423.371 432.999 422.195 437.139 419.972 440.73C417.749 444.321 414.566 447.219 410.784 449.098C410.265 448.68 409.84 448.156 409.536 447.563C413.73 435.329 409.536 428.776 409.536 428.776V428.651L409.835 426.691V426.329C410.485 422.696 412.12 415.893 415.665 411.773C418.082 413.899 420.018 416.514 421.346 419.446C422.674 422.377 423.363 425.557 423.367 428.776Z" fill="white"/>
<path opacity="0.6" d="M383.221 424.843C383.221 424.843 379.239 428.825 380.412 439.124C378.039 434.49 377.329 429.182 378.402 424.087C379.474 418.992 382.264 414.42 386.305 411.137C384.101 415.359 383.039 420.084 383.221 424.843Z" fill="white"/>
<path opacity="0.2" d="M415.728 411.774C410.734 417.566 409.486 428.776 409.486 428.776C395.754 432.134 383.184 424.844 383.184 424.844C383.001 420.076 384.064 415.344 386.267 411.112C390.449 407.71 395.705 405.906 401.096 406.022C406.486 406.139 411.659 408.169 415.69 411.749L415.728 411.774Z" fill="white"/>
<path opacity="0.2" d="M410.772 449.098C406.431 451.27 401.508 451.99 396.727 451.151C391.947 450.313 387.562 447.961 384.22 444.442C388.477 446.939 397.177 450.521 409.523 447.55C409.826 448.148 410.251 448.676 410.772 449.098Z" fill="white"/>
<g opacity="0.2">
<path d="M410.397 408.241C409.803 409.074 409.257 409.941 408.762 410.837C407.838 412.558 407.041 414.343 406.378 416.18C405.679 418.015 405.129 419.925 404.63 421.785C404.131 423.645 403.706 425.605 403.382 427.54C403.513 425.571 403.788 423.614 404.206 421.685C404.628 419.748 405.17 417.838 405.828 415.968C406.508 414.112 407.344 412.316 408.325 410.6C408.869 409.735 409.461 408.902 410.098 408.104L410.397 408.241Z" fill="black"/>
<path d="M402.807 406.144C402.495 406.705 402.208 407.28 401.934 407.854C401.017 409.79 400.261 411.798 399.674 413.858C399.012 415.906 398.513 418.003 398.039 420.1C397.564 422.197 397.165 424.319 396.79 426.441C396.918 424.281 397.176 422.13 397.564 420C397.938 417.867 398.438 415.757 399.062 413.684C399.685 411.594 400.5 409.568 401.497 407.629C401.771 407.117 402.058 406.605 402.358 406.119L402.807 406.144Z" fill="black"/>
<path d="M395.13 406.718L394.743 407.729C394.055 409.583 393.492 411.48 393.058 413.409C392.571 415.331 392.197 417.279 391.81 419.238C391.423 421.198 391.148 423.158 390.861 425.131C390.905 423.134 391.067 421.141 391.348 419.164C391.621 417.169 391.996 415.19 392.471 413.234C392.928 411.278 393.541 409.362 394.306 407.504C394.406 407.28 394.506 407.042 394.618 406.818L395.13 406.718Z" fill="black"/>
<path d="M388.864 409.339C388.439 410.737 388.04 412.136 387.753 413.559C387.465 414.982 387.128 416.754 386.879 418.365C386.629 419.975 386.454 421.598 386.305 423.233C386.219 421.594 386.253 419.95 386.404 418.315C386.562 416.676 386.808 415.047 387.141 413.434C387.419 412.202 387.761 410.985 388.165 409.789C388.39 409.627 388.623 409.477 388.864 409.339Z" fill="black"/>
<path d="M415.915 436.353C415.981 438.705 415.673 441.052 415.004 443.306C414.67 444.43 414.253 445.528 413.755 446.59C413.593 446.952 413.406 447.314 413.218 447.663C413.12 447.738 413.016 447.805 412.906 447.863C413.59 446.357 414.129 444.789 414.517 443.182C415.101 440.959 415.354 438.662 415.266 436.366C415.23 434.069 414.877 431.788 414.217 429.587C413.57 427.363 412.648 425.229 411.471 423.233C412.865 425.128 413.945 427.236 414.667 429.475C415.426 431.692 415.847 434.011 415.915 436.353Z" fill="black"/>
<path d="M420.396 435.704L420.334 437.589L420.072 439.461C420.016 439.97 419.928 440.474 419.81 440.972C419.622 441.259 419.435 441.546 419.223 441.833C419.409 441.032 419.534 440.219 419.597 439.399L419.785 437.551V435.704C419.828 435.085 419.828 434.463 419.785 433.844C419.722 433.232 419.722 432.596 419.61 432.009C419.325 429.552 418.708 427.146 417.775 424.856C416.874 422.541 415.637 420.37 414.105 418.415C415.832 420.236 417.223 422.349 418.212 424.656C419.233 426.968 419.914 429.415 420.234 431.921C420.334 432.546 420.321 433.17 420.371 433.806C420.424 434.438 420.432 435.072 420.396 435.704Z" fill="black"/>
<path d="M423.367 428.776C423.374 428.867 423.374 428.959 423.367 429.05L423.292 428.626C422.762 426.039 421.923 423.524 420.796 421.136C419.691 418.718 418.235 416.476 416.477 414.482C418.419 416.339 420.024 418.518 421.22 420.924C422.014 422.484 422.674 424.108 423.193 425.78C423.321 426.773 423.38 427.774 423.367 428.776Z" fill="black"/>
<path d="M382.11 421.249C381.108 422.388 380.248 423.646 379.551 424.994C378.902 426.194 378.355 427.447 377.916 428.738C377.916 428.102 377.916 427.49 378.003 426.841C378.337 426.119 378.717 425.418 379.139 424.744C379.918 423.414 380.923 422.231 382.11 421.249Z" fill="black"/>
<path d="M383.184 415.207C382.235 416.28 381.311 417.341 380.412 418.415C380.744 417.759 381.111 417.121 381.511 416.505C382.044 416.041 382.602 415.607 383.184 415.207Z" fill="black"/>
<path d="M383.184 429.662C385.256 430.461 387.353 431.16 389.425 431.784C391.543 432.412 393.693 432.925 395.867 433.32C400.192 434.252 404.673 434.197 408.974 433.157C406.881 433.942 404.668 434.364 402.433 434.406C400.195 434.45 397.958 434.274 395.754 433.881C393.562 433.467 391.401 432.9 389.288 432.184C387.192 431.499 385.152 430.656 383.184 429.662Z" fill="black"/>
<path d="M383.184 435.092C385.27 435.92 387.404 436.62 389.575 437.189C391.74 437.76 393.943 438.177 396.166 438.438C398.383 438.741 400.622 438.846 402.857 438.75L404.53 438.675L406.203 438.475C407.326 438.4 408.4 438.076 409.523 437.913C407.372 438.623 405.142 439.067 402.882 439.237C400.618 439.397 398.344 439.339 396.091 439.062C393.843 438.764 391.623 438.289 389.45 437.639C387.284 436.994 385.186 436.141 383.184 435.092Z" fill="black"/>
<path d="M383.733 439.786C385.697 440.701 387.73 441.461 389.812 442.058C391.887 442.652 394.009 443.07 396.154 443.306C397.227 443.481 398.301 443.506 399.375 443.581C400.448 443.656 401.534 443.581 402.62 443.519C404.782 443.397 406.928 443.088 409.037 442.595C406.975 443.32 404.833 443.794 402.658 444.005C400.469 444.224 398.262 444.199 396.079 443.931C393.902 443.662 391.756 443.177 389.675 442.483C387.597 441.815 385.604 440.91 383.733 439.786Z" fill="black"/>
<path d="M384.669 443.319C386.522 444.175 388.438 444.889 390.399 445.453C392.349 446.037 394.346 446.454 396.366 446.702C398.382 447.001 400.425 447.081 402.458 446.939L403.981 446.827L405.479 446.577C406.503 446.477 407.464 446.128 408.475 445.928C406.56 446.701 404.548 447.205 402.495 447.426C400.422 447.673 398.327 447.673 396.254 447.426C394.203 447.164 392.183 446.7 390.224 446.04C388.273 445.351 386.409 444.438 384.669 443.319Z" fill="black"/>
</g>
<path d="M141.047 393.061C141.047 393.061 145.491 386.382 153.393 385.896C161.295 385.409 167.961 395.483 167.961 395.483H165.464C165.464 395.483 159.085 388.604 154.517 388.604C149.948 388.604 145.504 394.284 145.504 394.284L141.047 393.061Z" fill="#263238"/>
<path d="M74.9995 445.765C77.7333 441.209 108.355 444.167 115.271 441.446L119.016 447.875C119.016 447.875 113.735 450.796 104.972 449.76C96.2086 448.724 82.9638 448.449 79.506 451.495L74.9995 445.765Z" fill="#263238"/>
<path opacity="0.3" d="M74.9995 445.765C77.7333 441.209 108.355 444.167 115.271 441.446L119.016 447.875C119.016 447.875 113.735 450.796 104.972 449.76C96.2086 448.724 82.9638 448.449 79.506 451.495L74.9995 445.765Z" fill="black"/>
<path d="M203.977 431.871C203.727 432.957 203.452 434.019 203.14 435.055C200.644 443.556 196.799 450.434 194.003 451.495H114.621C113.53 451.495 112.453 451.246 111.473 450.765C110.492 450.285 109.635 449.587 108.967 448.724L108.904 448.636C108.611 448.25 108.364 447.831 108.168 447.388C102.687 435.941 97.1573 413.047 104.934 402.611C105.748 401.523 106.686 400.534 107.731 399.665L107.955 399.49C109.602 398.146 111.425 397.033 113.373 396.182H113.436C118.903 393.685 125.619 392.574 132.16 392.087C134.07 391.937 135.905 391.85 137.828 391.813C142.696 391.675 147.24 391.813 150.86 391.9C163.618 392.225 173.655 396.019 180.496 395.358C183.008 395.095 185.547 395.298 187.986 395.957C188.688 396.154 189.38 396.388 190.058 396.656C193.171 397.972 196.067 399.753 198.646 401.937C206.461 408.141 206.573 420.861 203.977 431.871Z" fill="#263238"/>
<path opacity="0.1" d="M203.977 431.871C203.727 432.957 203.452 434.019 203.14 435.055C200.644 443.556 196.799 450.434 194.003 451.495H114.621C113.53 451.495 112.453 451.246 111.473 450.765C110.492 450.285 109.635 449.587 108.967 448.724L108.904 448.636C108.611 448.25 108.364 447.831 108.168 447.388C102.687 435.941 97.1573 413.047 104.934 402.611C105.748 401.523 106.686 400.534 107.731 399.665L107.955 399.49C109.602 398.146 111.425 397.033 113.373 396.182H113.436C118.903 393.685 125.619 392.574 132.16 392.087C134.07 391.937 135.905 391.85 137.828 391.813C142.696 391.675 147.24 391.813 150.86 391.9C163.618 392.225 173.655 396.019 180.496 395.358C183.008 395.095 185.547 395.298 187.986 395.957C188.688 396.154 189.38 396.388 190.058 396.656C193.171 397.972 196.067 399.753 198.646 401.937C206.461 408.141 206.573 420.861 203.977 431.871Z" fill="white"/>
<path opacity="0.2" d="M191.818 431.085C186.138 431.085 174.778 433.794 157.988 430.099C150.16 428.239 142.012 428.179 134.158 429.924C133.97 427.427 133.771 424.644 133.546 421.623C132.061 401.337 120.489 392.824 113.436 396.194H113.373C111.459 397.11 109.644 398.218 107.955 399.502L107.731 399.677C106.686 400.546 105.748 401.535 104.934 402.623C97.1573 413.059 102.687 435.954 108.168 447.401C108.364 447.844 108.611 448.263 108.904 448.649L108.967 448.736C109.641 449.501 110.471 450.114 111.401 450.534C112.331 450.954 113.339 451.171 114.359 451.171H128.578C134.382 451.171 135.069 445.853 134.42 434.431C135.406 433.869 136.617 433.182 137.965 432.258C141.498 429.962 155.242 431.098 161.172 433.32C167.101 435.542 182.655 436.528 190.183 435.304C194.465 434.669 198.812 434.589 203.115 435.067C203.427 434.031 203.702 432.97 203.952 431.884C201.38 431.597 195.987 431.085 191.818 431.085Z" fill="black"/>
<path opacity="0.2" d="M139.212 402.436C142.67 415.032 145.042 419.476 145.953 420.712C146.864 421.947 172.006 424.931 176.724 424.918C182.171 424.871 187.602 424.336 192.953 423.321C196.161 422.509 197.197 406.356 189.108 396.669C188.429 396.4 187.738 396.167 187.036 395.97C191.442 405.857 191.542 417.965 191.018 419.688C190.269 422.085 182.866 421.735 179.408 421.66C175.95 421.585 154.442 420.25 152.245 419.376C150.123 418.495 148.318 416.994 147.064 415.069C145.329 412.847 145.092 405.195 141.958 398.591C140.628 396.082 138.895 393.809 136.828 391.863C134.968 391.863 133.083 391.988 131.16 392.137C133.135 393.213 134.867 394.682 136.252 396.453C137.637 398.225 138.644 400.261 139.212 402.436Z" fill="black"/>
<path d="M115.271 414.033L108.355 415.73C108.355 415.73 103.449 429.812 106.382 435.704C109.316 441.596 86.4092 449.797 74.9995 445.69L79.4685 451.42C79.4685 451.42 106.632 449.71 111.813 439.374C116.993 429.038 109.591 427.44 109.104 424.531C108.617 421.623 115.271 414.033 115.271 414.033Z" fill="#263238"/>
<path opacity="0.1" d="M115.271 414.033L108.355 415.73C108.355 415.73 103.449 429.812 106.382 435.704C109.316 441.596 86.4092 449.797 74.9995 445.69L79.4685 451.42C79.4685 451.42 106.632 449.71 111.813 439.374C116.993 429.038 109.591 427.44 109.104 424.531C108.617 421.623 115.271 414.033 115.271 414.033Z" fill="white"/>
<path d="M176.351 123.622C176.351 123.622 149.637 108.642 144.107 104.797C138.577 100.952 108.991 71.9036 107.344 71.0922C107.344 71.0922 108.442 67.7716 105.958 65.8367C103.474 63.9018 93.7868 57.5479 92.4136 57.5479C91.0404 57.5479 87.4203 71.0922 87.9821 74.4128C88.5438 77.7333 102.088 78.5572 102.088 78.5572C102.088 78.5572 130.288 111.388 134.707 116.007C139.126 120.626 169.261 140.237 169.261 140.237L176.351 123.622Z" fill="#E4897B"/>
<path d="M186.311 126.381C186.311 126.381 192.166 138.202 177.948 156.977L146.602 133.933L159.085 111.276L186.311 126.381Z" fill="#FFC727"/>
<path opacity="0.6" d="M177.948 156.977L163.142 146.092L161.208 144.669L152.856 138.602L146.615 133.995L151.221 125.669L153.793 120.876L159.098 111.276L164.216 114.122L168.635 116.619L186.286 126.431C186.866 127.801 187.224 129.255 187.348 130.737C187.934 135.718 187.085 144.906 177.948 156.977Z" fill="white"/>
<path opacity="0.2" d="M177.948 156.977L163.142 146.092C168.223 135.581 181.368 131.873 187.372 130.688C187.934 135.718 187.085 144.906 177.948 156.977Z" fill="black"/>
<g opacity="0.2">
<path d="M168.66 116.569L164.241 119.141V114.123L168.66 116.569Z" fill="white"/>
<path d="M159.048 122.424L153.505 130.201L151.208 125.607L153.817 120.876L159.048 122.424Z" fill="white"/>
<path d="M163.142 134.121L161.208 144.669L152.856 138.54L163.142 134.121Z" fill="white"/>
<path d="M166.975 128.104L170.058 136.006L176.462 127.292L166.975 128.104Z" fill="white"/>
</g>
<path d="M244.571 120.788C244.571 120.788 271.285 105.808 276.815 101.964C282.345 98.1187 311.931 69.0701 313.591 68.2587C313.591 68.2587 312.48 64.9382 314.964 63.0032C317.448 61.0683 327.135 54.7144 328.508 54.7144C329.881 54.7144 333.502 68.2587 332.94 71.5792C332.378 74.8998 318.834 75.7237 318.834 75.7237C318.834 75.7237 290.634 108.567 286.215 113.174C281.796 117.78 251.661 137.354 251.661 137.354L244.571 120.788Z" fill="#E4897B"/>
<path d="M212.651 278.977C212.651 278.977 212.077 288.401 211.216 301.01C210.641 308.849 209.967 317.899 209.156 326.65C208.107 338.409 206.921 349.619 205.735 356.61C204.649 363.014 190.231 442.545 190.231 442.545H180.569C183.615 368.382 188.334 339.62 188.508 335.301C188.508 333.89 188.621 331.931 188.683 329.596C188.87 321.133 189.033 307.763 189.133 298.038C189.208 291.023 189.245 285.917 189.245 285.917L212.651 278.977Z" fill="#E4897B"/>
<path d="M249.914 338.983C249.577 345.462 245.719 442.195 245.719 442.195H235.096C229.666 365.148 231.726 338.396 230.752 333.053C229.092 323.966 227.531 312.019 226.458 303.094C225.596 295.966 225.059 290.835 225.059 290.835L246.718 281.473C246.718 281.473 248.029 292.708 249.015 306.165C249.502 312.906 249.926 320.233 250.051 327.049C250.151 331.318 250.126 335.388 249.914 338.983Z" fill="#E4897B"/>
<path opacity="0.2" d="M189.083 298.013L211.216 301.009C210.641 308.849 209.967 317.899 209.156 326.65L188.633 329.596C188.821 321.107 188.983 307.738 189.083 298.013Z" fill="black"/>
<path opacity="0.2" d="M250.063 327.099L230.764 333.041C229.104 323.954 227.544 312.007 226.47 303.082L249.027 306.152C249.514 312.906 249.914 320.234 250.063 327.099Z" fill="black"/>
<path d="M192.491 439.549H179.72C179.511 439.552 179.309 439.625 179.146 439.756C178.983 439.887 178.869 440.069 178.821 440.273L176.762 449.61C176.676 450.011 176.753 450.429 176.976 450.773C177.198 451.117 177.547 451.359 177.948 451.445C178.064 451.458 178.181 451.458 178.297 451.445C182.417 451.383 185.425 451.121 190.593 451.121C193.789 451.121 203.414 451.458 207.808 451.458C212.202 451.458 212.801 447.114 210.991 446.702C202.902 444.942 196.81 442.507 194.226 440.185C193.75 439.759 193.129 439.531 192.491 439.549Z" fill="#FFC727"/>
<path d="M246.518 439.224H233.773C233.564 439.221 233.361 439.291 233.198 439.42C233.034 439.55 232.92 439.732 232.874 439.935L230.802 449.285C230.762 449.488 230.763 449.696 230.804 449.898C230.846 450.101 230.927 450.293 231.043 450.463C231.159 450.634 231.308 450.78 231.481 450.893C231.654 451.005 231.847 451.083 232.05 451.12H232.387C236.519 451.058 239.515 450.808 244.696 450.808C247.879 450.808 257.503 451.133 261.91 451.133C266.317 451.133 266.903 446.789 265.081 446.389C256.992 444.629 250.912 442.182 248.328 439.86C248.083 439.64 247.798 439.47 247.487 439.361C247.176 439.252 246.847 439.205 246.518 439.224Z" fill="#FFC727"/>
<path d="M213.525 321.195C213.625 320.346 213.725 319.459 213.824 318.461C215.073 305.678 216.433 290.336 217.569 275.556C221.876 287.14 223.736 303.431 225.983 321.195H252.198C250.026 275.219 244.334 237.819 241.313 221.865H185.712C185.637 227.583 185.001 283.033 183.565 321.195H213.525Z" fill="#263238"/>
<path opacity="0.2" d="M213.525 321.195C213.625 320.346 213.725 319.459 213.824 318.461C215.073 305.678 216.433 290.336 217.569 275.556C221.876 287.14 223.736 303.431 225.983 321.195H252.198C250.026 275.219 244.334 237.819 241.313 221.865H185.712C185.637 227.583 185.001 283.033 183.565 321.195H213.525Z" fill="white"/>
<path d="M221.202 108.006C221.08 108.509 220.93 109.005 220.753 109.491C219.758 112.267 217.948 114.678 215.56 116.407C214.959 116.848 214.325 117.24 213.662 117.58C211.131 118.935 208.226 119.424 205.39 118.973C202.555 118.522 199.945 117.156 197.958 115.084C192.703 109.778 192.84 103.649 192.241 93.2755C192.083 91.0463 192.446 88.811 193.302 86.7467C194.018 85.0236 195.067 83.4583 196.388 82.1405C197.709 80.8227 199.277 79.778 201.002 79.0662C202.727 78.3545 204.575 77.9895 206.441 77.9922C208.307 77.9949 210.154 78.3652 211.877 79.082C222.014 83.2264 223.412 98.6558 221.202 108.006Z" fill="#E4897B"/>
<path opacity="0.2" d="M215.522 116.407C214.922 116.847 214.287 117.24 213.625 117.58C211.887 118.507 209.963 119.033 207.995 119.119C206.027 119.205 204.065 118.85 202.253 118.079C202.722 116.832 203.347 115.65 204.113 114.559C208.014 114.07 211.974 114.711 215.522 116.407Z" fill="black"/>
<path d="M194.638 129.864C199.756 134.508 212.277 132.797 212.277 132.797C212.277 132.797 220.091 130.65 218.443 128.216C213.849 127.454 211.615 125.307 210.691 122.549C210.193 120.844 210.036 119.058 210.229 117.293C210.303 116.309 210.432 115.329 210.616 114.36L195.137 102.9C197.159 110.465 199.644 124.384 194.638 129.864Z" fill="#E4897B"/>
<path d="M215.522 98.5677L217.757 99.4041L216.646 94.8352C216.646 94.8352 219.916 89.8419 216.646 85.5102C216.646 85.5102 225.684 82.7639 220.578 78.0202C218.68 76.2476 216.321 78.0202 210.08 75.3114C206.697 73.8259 196.111 73.7135 195.586 78.0202C195.586 78.0202 187.959 78.0202 187.135 91.0028C186.894 94.8066 187.493 98.6167 188.889 102.163C190.285 105.71 192.443 108.906 195.212 111.525C195.212 111.525 204.425 113.697 208.944 110.002C213.462 106.307 215.522 98.5677 215.522 98.5677Z" fill="#263238"/>
<path d="M209.63 99.3047C209.825 100.281 210.235 101.201 210.832 101.998C211.428 102.795 212.194 103.448 213.076 103.911C215.185 104.81 216.583 101.839 216.271 98.718C215.984 95.9467 214.549 92.0519 212.289 92.5762C210.03 93.1005 208.894 96.5084 209.63 99.3047Z" fill="#E4897B"/>
<path opacity="0.2" d="M217.619 275.493C216.434 290.273 215.123 305.653 213.874 318.436C211.977 299.973 209.655 286.816 209.655 286.816C209.655 286.816 207.483 285.03 201.504 275.493C195.524 265.956 201.504 248.13 201.504 248.13C201.229 264.683 217.619 275.493 217.619 275.493Z" fill="black"/>
<path d="M254.133 319.035L252.984 323.367H225.072V319.36L254.133 319.035Z" fill="#FFC727"/>
<path d="M214.873 319.634L214.037 323.641H182.429L180.519 319.634H214.873Z" fill="#FFC727"/>
<path d="M218.768 126.855C218.768 126.855 214.224 119.677 202.777 119.166C191.33 118.654 190.456 126.531 190.456 126.531L218.768 126.855Z" fill="#FFC727"/>
<path opacity="0.5" d="M218.768 126.855C218.768 126.855 214.224 119.677 202.777 119.166C191.33 118.654 190.456 126.531 190.456 126.531L218.768 126.855Z" fill="white"/>
<path d="M177.66 122.374C181.113 161.238 180.695 200.349 176.412 239.13L243.485 235.036C242.736 166.59 233.561 123.473 233.561 123.473C233.561 123.473 216.271 127.105 202.203 126.581C193.88 126.194 185.637 124.781 177.66 122.374Z" fill="#FFC727"/>
<path d="M233.611 123.522C233.611 123.522 242.574 144.469 243.535 165.666C244.496 186.862 207.134 215.998 207.134 215.998C207.134 215.998 178.335 196.175 156.114 197.973C133.894 199.77 126.978 207.672 126.978 207.672C126.978 207.672 144.255 170.709 174.34 157.826C174.34 157.826 168.098 136.542 177.661 122.474C177.661 122.374 198.458 129.19 233.611 123.522Z" fill="#FFC727"/>
<path opacity="0.6" d="M243.535 165.666C243.566 166.265 243.566 166.865 243.535 167.464C243.483 168.39 243.371 169.311 243.198 170.222C242.791 172.366 242.15 174.459 241.288 176.464C238.62 182.331 235.141 187.794 230.952 192.692C228.829 195.289 226.582 197.785 224.36 200.107C218.979 205.782 213.224 211.091 207.134 215.999C199.57 210.992 191.529 206.748 183.128 203.328C180.569 202.304 177.91 201.343 175.201 200.532C169.049 198.54 162.584 197.694 156.127 198.035C149.963 198.445 143.877 199.637 138.014 201.58C137.003 201.93 136.066 202.304 135.205 202.666L134.431 203.003C132.555 203.817 130.765 204.816 129.088 205.987C128.901 206.112 128.726 206.249 128.564 206.374C128.402 206.499 127.977 206.823 127.752 207.023L127.453 207.285C127.376 207.345 127.305 207.412 127.241 207.485L127.091 207.635L127.003 207.722C127.003 207.66 127.153 207.398 127.378 206.948L127.727 206.262C128.077 205.563 128.564 204.626 129.2 203.49L129.475 202.991L129.962 202.13C130.124 201.83 130.299 201.518 130.486 201.206C131.21 199.958 132.059 198.509 132.983 196.974C138.114 188.671 144.188 180.988 151.084 174.08C153.542 171.635 156.143 169.338 158.873 167.201C163.592 163.446 168.778 160.32 174.303 157.901C172.87 152.419 172.219 146.763 172.368 141.099C172.404 139.315 172.55 137.535 172.805 135.769C173.377 130.991 175.038 126.409 177.661 122.374C180.728 123.266 183.857 123.929 187.023 124.359C191.16 124.99 195.326 125.406 199.506 125.607C207.914 125.984 216.337 125.687 224.697 124.721C227.544 124.413 230.502 123.997 233.573 123.473L233.86 124.172C235.847 129.155 237.559 134.243 238.991 139.414C239.54 141.399 240.089 143.521 240.614 145.743C241.138 147.965 241.537 149.95 241.937 152.159C242.762 156.622 243.296 161.134 243.535 165.666Z" fill="white"/>
<g opacity="0.2">
<path d="M234.934 182.681L230.989 192.767C228.867 195.364 226.62 197.86 224.398 200.182L216.371 185.202L234.934 182.681Z" fill="white"/>
<path d="M166.975 173.044L151.121 173.955C153.58 171.51 156.181 169.214 158.911 167.077L166.975 173.044Z" fill="white"/>
<path d="M185.263 133.11L183.565 149.588L172.33 141.087C172.367 139.303 172.513 137.522 172.767 135.756L185.263 133.11Z" fill="white"/>
<path d="M190.456 176.526L185.263 160.697L201.054 157.776L190.456 176.526Z" fill="white"/>
<path d="M217.62 161.446V173.293L228.954 169.223L217.62 161.446Z" fill="white"/>
<path d="M188.459 195.763L183.128 203.253C180.569 202.23 177.91 201.269 175.201 200.457L171.182 191.294L188.459 195.763Z" fill="white"/>
<path d="M147.963 184.403L156.114 187.861L147.963 193.416V184.403Z" fill="white"/>
<path d="M138.001 201.468C129.887 204.302 126.978 207.622 126.978 207.622C128.79 203.928 130.803 200.336 133.008 196.862L138.001 201.468Z" fill="white"/>
<path d="M204.612 186.139L197.596 193.416L208.207 195.276L204.612 186.139Z" fill="white"/>
<path d="M204.612 140.45L212.863 151.56L218.768 138.977L204.612 140.45Z" fill="white"/>
<path d="M241.974 152.209L231.426 145.269L239.028 139.464C240.102 143.309 241.175 147.64 241.974 152.209Z" fill="white"/>
<path d="M243.522 167.464C243.295 170.586 242.535 173.647 241.275 176.514L236.856 165.641L243.522 167.464Z" fill="white"/>
<path d="M233.898 124.222L227.219 131.112L224.722 124.771C227.569 124.463 230.527 124.047 233.598 123.522L233.898 124.222Z" fill="white"/>
<path d="M199.544 125.62L194.638 136.006L187.023 124.409C191.173 125.028 195.352 125.433 199.544 125.62Z" fill="white"/>
</g>
<path opacity="0.2" d="M243.535 165.666C243.566 166.265 243.566 166.865 243.535 167.463C243.483 168.389 243.371 169.311 243.198 170.222C234.459 156.366 236.532 143.833 236.532 143.833L240.664 145.792C241.138 147.852 241.587 149.999 241.987 152.209C242.793 156.656 243.311 161.151 243.535 165.666Z" fill="black"/>
<path d="M208.132 68.3589C222.95 63.2532 226.67 82.9893 211.952 96.3339C197.234 109.678 180.332 111.314 178.409 104.548C176.487 97.7819 185.512 76.1859 208.132 68.3589Z" fill="#FFC727"/>
<path d="M193.29 67.3599C200.892 67.3599 211.69 75.0995 211.69 75.0995C211.69 75.0995 213.238 83.3384 205.66 90.5787C198.083 97.819 191.242 98.9675 187.023 96.1588C182.804 93.35 181.63 82.4272 181.63 82.4272C182.015 81.1352 182.706 79.9553 183.645 78.9881C184.584 78.0209 185.743 77.2949 187.023 76.8721C187.023 76.8721 188.271 67.4472 193.29 67.3599Z" fill="#FFC727"/>
<path opacity="0.2" d="M205.66 90.5788C198.083 97.819 191.267 98.9675 187.023 96.1713C186.283 95.652 185.655 94.9899 185.175 94.2239C182.429 90.0919 181.63 82.4646 181.63 82.4646C188.87 91.2029 197.259 82.1775 198.42 76.0857C198.764 74.6387 198.768 73.1319 198.432 71.683C198.097 70.2342 197.43 68.8827 196.485 67.7344C201.479 68.8079 206.946 72.0036 209.767 73.8137C211.016 74.5752 211.69 75.062 211.69 75.062C211.69 75.062 213.238 83.3385 205.66 90.5788Z" fill="black"/>
<path opacity="0.6" d="M205.66 90.579C198.083 97.8193 191.267 98.9677 187.023 96.1715C186.283 95.6523 185.655 94.9901 185.175 94.2241C192.765 96.4836 201.803 92.7261 206.659 85.9727C209.234 82.4767 210.349 78.1167 209.767 73.814C211.016 74.5754 211.69 75.0623 211.69 75.0623C211.69 75.0623 213.238 83.3387 205.66 90.579Z" fill="white"/>
<path d="M233.611 123.522C233.611 123.522 227.756 135.357 241.974 154.119L273.32 131.112L260.837 108.455L233.611 123.522Z" fill="#FFC727"/>
<path opacity="0.6" d="M273.32 131.112L265.143 137.117L253.047 146.017L241.974 154.156C241.25 153.207 240.589 152.271 239.964 151.36C238.697 149.503 237.546 147.568 236.519 145.568C233.987 140.92 232.588 135.741 232.437 130.45C232.352 128.078 232.778 125.716 233.685 123.522L240.651 119.652L252.647 112.999L257.915 110.065L260.886 108.417L273.32 131.112Z" fill="white"/>
<g opacity="0.2">
<path d="M265.143 137.079L253.047 145.979L247.717 134.12L265.143 137.079Z" fill="white"/>
<path d="M264.02 118.004L252.86 122.423L252.573 112.999L257.841 110.065L264.02 118.004Z" fill="white"/>
<path d="M244.571 127.292L232.437 130.45C232.352 128.078 232.778 125.716 233.685 123.522L240.651 119.652L244.571 127.292Z" fill="white"/>
<path d="M241.974 142.434L239.927 151.322C238.659 149.465 237.509 147.53 236.482 145.53L241.974 142.434Z" fill="white"/>
</g>
<path d="M319.121 336.599L299.847 335.076L306.213 253.798L325.55 255.308L319.121 336.599ZM303.804 331.606L315.676 332.53L321.455 258.716L309.596 257.793L303.804 331.606Z" fill="#263238"/>
<path d="M305.801 441.371L308.298 441.571C308.993 441.561 309.682 441.696 310.322 441.968C310.962 442.239 311.538 442.642 312.013 443.149C312.489 443.656 312.853 444.257 313.083 444.913C313.312 445.569 313.403 446.266 313.348 446.959C313.293 447.651 313.094 448.325 312.763 448.937C312.433 449.548 311.979 450.084 311.429 450.51C310.88 450.936 310.248 451.242 309.573 451.41C308.898 451.577 308.196 451.602 307.511 451.483L305.015 451.283C304.319 451.294 303.629 451.161 302.988 450.89C302.348 450.619 301.771 450.218 301.294 449.711C300.817 449.205 300.452 448.604 300.221 447.948C299.99 447.292 299.899 446.595 299.953 445.901C300.007 445.208 300.206 444.534 300.536 443.921C300.865 443.309 301.32 442.772 301.869 442.346C302.419 441.919 303.051 441.612 303.726 441.444C304.401 441.277 305.104 441.252 305.789 441.371H305.801Z" fill="#263238"/>
<path opacity="0.1" d="M300.371 445.84C300.29 446.84 300.508 447.842 300.996 448.718C301.485 449.594 302.222 450.306 303.115 450.762C304.009 451.219 305.017 451.4 306.014 451.283C307.01 451.166 307.949 450.756 308.712 450.105C309.475 449.454 310.028 448.591 310.301 447.626C310.573 446.66 310.553 445.636 310.242 444.682C309.932 443.728 309.345 442.887 308.557 442.267C307.769 441.646 306.814 441.274 305.814 441.197C305.15 441.135 304.48 441.207 303.844 441.409C303.209 441.61 302.62 441.937 302.113 442.37C301.605 442.803 301.19 443.333 300.891 443.929C300.592 444.525 300.415 445.175 300.371 445.84Z" fill="white"/>
<path d="M292.17 440.31L294.666 440.497C295.362 440.486 296.052 440.619 296.693 440.89C297.333 441.161 297.91 441.562 298.387 442.069C298.863 442.575 299.229 443.176 299.46 443.832C299.691 444.488 299.782 445.185 299.728 445.879C299.674 446.572 299.475 447.247 299.145 447.859C298.815 448.471 298.361 449.008 297.812 449.434C297.262 449.861 296.63 450.168 295.955 450.336C295.28 450.503 294.577 450.528 293.892 450.409L291.396 450.222C290.7 450.233 290.01 450.1 289.369 449.829C288.728 449.558 288.151 449.157 287.675 448.65C287.198 448.144 286.833 447.543 286.602 446.887C286.371 446.231 286.28 445.534 286.334 444.84C286.388 444.147 286.586 443.473 286.916 442.86C287.246 442.248 287.7 441.711 288.25 441.285C288.799 440.858 289.432 440.551 290.107 440.383C290.782 440.216 291.484 440.191 292.17 440.31Z" fill="#263238"/>
<path opacity="0.2" d="M286.739 444.779C286.661 445.778 286.881 446.779 287.371 447.654C287.861 448.528 288.6 449.238 289.493 449.693C290.387 450.147 291.395 450.327 292.391 450.208C293.387 450.09 294.325 449.679 295.087 449.027C295.849 448.375 296.4 447.512 296.671 446.547C296.942 445.581 296.921 444.557 296.61 443.604C296.299 442.651 295.713 441.811 294.924 441.191C294.136 440.572 293.182 440.2 292.182 440.123C290.844 440.023 289.52 440.456 288.501 441.328C287.481 442.201 286.848 443.441 286.739 444.779Z" fill="white"/>
<path d="M289.898 441.808L309.213 443.322C311.062 443.467 312.678 442.085 312.823 440.236L322.021 322.841C322.165 320.992 320.784 319.376 318.935 319.231L299.62 317.718C297.771 317.573 296.155 318.955 296.01 320.803L286.812 438.198C286.667 440.047 288.049 441.663 289.898 441.808Z" fill="#263238"/>
<path opacity="0.2" d="M299.54 442.547L309.222 443.306C311.071 443.45 312.688 442.069 312.832 440.22L322.03 322.825C322.175 320.976 320.794 319.36 318.945 319.215L309.263 318.457C307.414 318.312 305.798 319.693 305.653 321.542L296.455 438.937C296.31 440.786 297.691 442.402 299.54 442.547Z" fill="white"/>
<path d="M307.115 256.519L323.406 257.823C324.785 257.933 325.992 256.905 326.102 255.526L326.225 253.99C326.335 252.611 325.307 251.404 323.928 251.294L307.637 249.991C306.258 249.88 305.051 250.909 304.941 252.288L304.818 253.823C304.708 255.202 305.736 256.409 307.115 256.519Z" fill="#263238"/>
<path opacity="0.2" d="M307.115 256.519L323.406 257.823C324.785 257.933 325.992 256.905 326.102 255.526L326.225 253.99C326.335 252.611 325.307 251.404 323.928 251.294L307.637 249.991C306.258 249.88 305.051 250.909 304.941 252.288L304.818 253.823C304.708 255.202 305.736 256.409 307.115 256.519Z" fill="white"/>
<path opacity="0.2" d="M307.489 258.141L308.845 258.247C310.22 258.354 311.422 257.327 311.529 255.952L311.649 254.422C311.756 253.047 310.729 251.845 309.354 251.738L307.998 251.632C306.623 251.524 305.422 252.552 305.314 253.926L305.194 255.457C305.087 256.832 306.114 258.033 307.489 258.141Z" fill="black"/>
<path d="M357.944 331.643L349.63 437.751C349.483 439.624 348.599 441.363 347.171 442.585C345.743 443.807 343.889 444.412 342.015 444.267L303.317 441.234C302.005 441.122 300.79 440.497 299.936 439.494C299.083 438.491 298.661 437.192 298.761 435.878L307.337 325.564C307.445 324.252 308.067 323.035 309.068 322.18C310.068 321.324 311.367 320.898 312.68 320.995L351.378 324.028C352.31 324.095 353.219 324.345 354.055 324.764C354.89 325.183 355.634 325.763 356.244 326.471C356.854 327.178 357.318 328 357.61 328.887C357.902 329.775 358.015 330.712 357.944 331.643Z" fill="#FFC727"/>
<path opacity="0.2" d="M357.944 331.643L349.63 437.751C349.483 439.624 348.599 441.363 347.171 442.585C345.743 443.807 343.889 444.412 342.015 444.267L303.317 441.234C302.005 441.122 300.79 440.497 299.936 439.494C299.083 438.491 298.661 437.192 298.761 435.878L307.337 325.564C307.445 324.252 308.067 323.035 309.068 322.18C310.068 321.324 311.367 320.898 312.68 320.995L351.378 324.028C352.31 324.095 353.219 324.345 354.055 324.764C354.89 325.183 355.634 325.763 356.244 326.471C356.854 327.178 357.318 328 357.61 328.887C357.902 329.775 358.015 330.712 357.944 331.643Z" fill="white"/>
<path opacity="0.2" d="M331.33 322.455V322.605L329.944 322.493C328.629 322.396 327.329 322.824 326.328 323.682C325.327 324.541 324.706 325.76 324.601 327.074L315.963 437.351C315.884 438.458 316.176 439.56 316.793 440.482C317.411 441.405 318.317 442.095 319.371 442.445L303.28 441.196C301.968 441.088 300.751 440.466 299.896 439.465C299.04 438.464 298.614 437.166 298.711 435.853L307.337 325.576C307.442 324.262 308.063 323.043 309.064 322.184C310.065 321.326 311.365 320.898 312.68 320.995L331.33 322.455Z" fill="black"/>
<path opacity="0.2" d="M331.002 326.321L330.43 326.276C329.68 326.218 329.026 326.777 328.967 327.526L320.496 435.637C320.438 436.386 320.997 437.041 321.747 437.1L322.319 437.145C323.068 437.204 323.723 436.644 323.782 435.895L332.252 327.784C332.311 327.035 331.751 326.38 331.002 326.321Z" fill="black"/>
<path opacity="0.2" d="M338.753 327.46L338.181 327.415C337.432 327.356 336.777 327.916 336.718 328.665L328.247 436.776C328.189 437.525 328.748 438.18 329.498 438.239L330.07 438.284C330.819 438.342 331.474 437.783 331.533 437.033L340.003 328.923C340.062 328.173 339.502 327.518 338.753 327.46Z" fill="black"/>
<path opacity="0.2" d="M346.508 327.926L345.936 327.881C345.186 327.822 344.531 328.382 344.473 329.131L336.002 437.242C335.944 437.991 336.503 438.646 337.252 438.705L337.825 438.749C338.574 438.808 339.229 438.248 339.288 437.499L347.758 329.388C347.817 328.639 347.257 327.984 346.508 327.926Z" fill="black"/>
<path opacity="0.2" d="M354.239 328.379L353.666 328.334C352.917 328.276 352.262 328.835 352.204 329.585L343.733 437.695C343.674 438.445 344.234 439.1 344.983 439.158L345.556 439.203C346.305 439.262 346.96 438.702 347.018 437.953L355.489 329.842C355.548 329.093 354.988 328.438 354.239 328.379Z" fill="black"/>
</svg>
